<svg width="40" height="40" viewBox="0 0 40 40" fill="none" xmlns="http://www.w3.org/2000/svg">
<circle r="20" transform="matrix(1 0 0 -1 20 20)" fill="white"/>
<path d="M15.5478 29.5121C24.6048 29.5121 29.5578 22.0059 29.5578 15.4969C29.5578 15.2837 29.5534 15.0715 29.5438 14.8602C30.5075 14.1626 31.3393 13.2988 32 12.3094C31.1177 12.7018 30.1683 12.9659 29.1723 13.085C30.1889 12.4752 30.9694 11.5105 31.3376 10.3605C30.371 10.9341 29.3136 11.3385 28.2109 11.5562C27.3123 10.5987 26.0331 9.99988 24.6166 9.99988C21.8974 9.99988 19.6923 12.2058 19.6923 14.925C19.6923 15.3116 19.7356 15.6875 19.8201 16.0482C15.7277 15.8422 12.0988 13.8821 9.67015 10.9016C9.23273 11.6534 9.00265 12.5077 9.00341 13.3774C9.00341 15.0864 9.87268 16.595 11.1946 17.4777C10.4127 17.4538 9.6479 17.2425 8.96459 16.8616C8.96385 16.8823 8.96385 16.9024 8.96385 16.9245C8.96385 19.31 10.6611 21.3018 12.9142 21.7531C12.491 21.8684 12.0544 21.9267 11.6158 21.9264C11.2991 21.9264 10.9904 21.8952 10.6904 21.8376C11.3173 23.7948 13.135 25.219 15.2902 25.2589C13.6049 26.5803 11.4819 27.3673 9.17454 27.3673C8.78202 27.3677 8.38983 27.3449 8 27.2991C10.1792 28.6964 12.7668 29.5117 15.548 29.5117" fill="#FF6300"/>
</svg>
