<svg width="40" height="40" viewBox="0 0 40 40" fill="none" xmlns="http://www.w3.org/2000/svg">
<circle r="20" transform="matrix(1 0 0 -1 20 20)" fill="white"/>
<path d="M16.0006 20C16.0006 17.7909 17.7909 15.9997 20 15.9997C22.2091 15.9997 24.0003 17.7909 24.0003 20C24.0003 22.2091 22.2091 24.0003 20 24.0003C17.7909 24.0003 16.0006 22.2091 16.0006 20V20ZM13.8381 20C13.8381 23.4032 16.5968 26.1619 20 26.1619C23.4032 26.1619 26.1619 23.4032 26.1619 20C26.1619 16.5968 23.4032 13.8381 20 13.8381C16.5968 13.8381 13.8382 16.5966 13.8382 20H13.8381ZM24.9659 13.5938C24.9658 13.8786 25.0501 14.1571 25.2083 14.3939C25.3664 14.6308 25.5912 14.8155 25.8543 14.9246C26.1174 15.0337 26.4069 15.0623 26.6863 15.0068C26.9656 14.9514 27.2222 14.8143 27.4237 14.613C27.6252 14.4117 27.7624 14.1552 27.8181 13.8759C27.8738 13.5966 27.8454 13.307 27.7365 13.0439C27.6276 12.7807 27.4431 12.5557 27.2064 12.3974C26.9696 12.2391 26.6913 12.1545 26.4065 12.1544H26.4059C26.0241 12.1546 25.6581 12.3063 25.3881 12.5762C25.1181 12.846 24.9662 13.2121 24.9659 13.5938V13.5938ZM15.152 29.7678C13.982 29.7145 13.3461 29.5196 12.9236 29.355C12.3633 29.1369 11.9636 28.8771 11.5433 28.4574C11.123 28.0377 10.8628 27.6383 10.6457 27.0781C10.4809 26.6557 10.286 26.0196 10.2329 24.8496C10.1747 23.5847 10.1631 23.2048 10.1631 20.0002C10.1631 16.7956 10.1756 16.4167 10.2329 15.1508C10.2861 13.9808 10.4825 13.346 10.6457 12.9223C10.8638 12.362 11.1236 11.9623 11.5433 11.542C11.963 11.1217 12.3623 10.8616 12.9236 10.6444C13.346 10.4797 13.982 10.2848 15.152 10.2316C16.4169 10.1734 16.7969 10.1618 20 10.1618C23.2031 10.1618 23.5835 10.1742 24.8494 10.2318C26.0194 10.2851 26.6542 10.4814 27.0779 10.6446C27.6381 10.8618 28.0379 11.1225 28.4582 11.5422C28.8785 11.9619 29.1377 12.3622 29.3558 12.9225C29.5205 13.3449 29.7154 13.981 29.7686 15.1509C29.8267 16.4169 29.8384 16.7958 29.8384 20.0004C29.8384 23.205 29.8267 23.5839 29.7686 24.8498C29.7153 26.0198 29.5195 26.6557 29.3558 27.0783C29.1377 27.6385 28.8779 28.0383 28.4582 28.4576C28.0385 28.8769 27.6381 29.1371 27.0779 29.3552C26.6555 29.5199 26.0194 29.7148 24.8494 29.768C23.5845 29.8262 23.2046 29.8378 20 29.8378C16.7954 29.8378 16.4165 29.8262 15.152 29.768V29.7678ZM15.0526 8.07267C13.7752 8.13085 12.9022 8.33341 12.1399 8.63005C11.3509 8.93638 10.682 9.34736 10.0142 10.0142C9.3463 10.681 8.93638 11.3499 8.63005 12.1399C8.33341 12.9027 8.13085 13.7752 8.07267 15.0526C8.01354 16.3321 8 16.7412 8 20C8 23.2588 8.01354 23.6679 8.07267 24.9474C8.13085 26.2249 8.33341 27.0973 8.63005 27.8601C8.93638 28.6491 9.3464 29.3193 10.0142 29.9858C10.682 30.6524 11.3499 31.0628 12.1399 31.37C12.9037 31.6666 13.7752 31.8692 15.0526 31.9273C16.3328 31.9855 16.7412 32 20 32C23.2588 32 23.6679 31.9865 24.9474 31.9273C26.2249 31.8692 27.0973 31.6666 27.8601 31.37C28.6491 31.0628 29.318 30.6526 29.9858 29.9858C30.6537 29.319 31.0627 28.6491 31.3699 27.8601C31.6666 27.0973 31.8701 26.2248 31.9273 24.9474C31.9855 23.6669 31.999 23.2588 31.999 20C31.999 16.7412 31.9855 16.3321 31.9273 15.0526C31.8692 13.7751 31.6666 12.9022 31.3699 12.1399C31.0627 11.3509 30.6526 10.682 29.9858 10.0142C29.319 9.3463 28.6491 8.93638 27.8611 8.63005C27.0973 8.33341 26.2248 8.12989 24.9483 8.07267C23.6686 8.01421 23.2598 8 20.0014 8C16.7431 8 16.3333 8.01354 15.0531 8.07267" fill="#FF6300"/>
</svg>
