<svg width="40" height="40" viewBox="0 0 40 40" fill="none" xmlns="http://www.w3.org/2000/svg">
<circle r="20" transform="matrix(1 0 0 -1 20 20)" fill="white"/>
<path d="M20.0775 27.9789L15.3321 27.8921C13.7957 27.8619 12.2554 27.9223 10.749 27.6089C8.45755 27.1408 8.29521 24.8455 8.12534 22.9202C7.89128 20.2134 7.98189 17.4575 8.4236 14.7733C8.67295 13.2672 9.65427 12.3685 11.1718 12.2707C16.2948 11.9158 21.4518 11.9579 26.5634 12.1235C27.1032 12.1386 27.6468 12.2216 28.1791 12.316C30.8067 12.7766 30.8708 15.3777 31.0411 17.5674C31.211 19.7796 31.1393 22.0032 30.8146 24.2003C30.5541 26.0195 30.0557 27.5451 27.9525 27.6924C25.3174 27.8849 22.7427 28.04 20.1001 27.9906C20.1002 27.9789 20.0851 27.9789 20.0775 27.9789ZM17.2877 23.3732C19.2735 22.2331 21.2214 21.1119 23.1959 19.9793C21.2064 18.8392 19.2621 17.718 17.2877 16.5855V23.3732Z" fill="#FF6300"/>
</svg>
