<?xml version="1.0" encoding="UTF-8"?>
<svg xmlns="http://www.w3.org/2000/svg" xmlns:xlink="http://www.w3.org/1999/xlink" width="389px" height="37px" viewBox="0 0 392 37" version="1.1">
<defs>
<clipPath id="clip1">
  <path d="M 379 15 L 391.808594 15 L 391.808594 29 L 379 29 Z M 379 15 "/>
</clipPath>
</defs>
<g id="surface1">
<path style=" stroke:none;fill-rule:nonzero;fill:rgb(36.078431%,5.882353%,85.098039%);fill-opacity:1;" d="M 156.769531 31.667969 C 156.757812 31.746094 156.761719 31.824219 156.785156 31.894531 C 156.808594 31.96875 156.851562 32.035156 156.90625 32.085938 C 156.957031 32.140625 157.023438 32.183594 157.097656 32.207031 C 157.167969 32.230469 157.246094 32.234375 157.320312 32.222656 L 161.464844 32.222656 L 161.464844 13.742188 L 160.203125 13.742188 C 159.378906 13.707031 158.574219 13.988281 157.953125 14.53125 C 157.332031 15.074219 156.945312 15.839844 156.875 16.660156 C 155.660156 14.433594 153.292969 13.363281 150.488281 13.363281 C 145.683594 13.363281 141.472656 17.253906 141.472656 23.285156 C 141.472656 29.0625 144.5 32.699219 149.894531 32.699219 C 153.777344 32.699219 155.398438 30.921875 155.398438 29.179688 C 155.421875 28.828125 155.363281 28.472656 155.230469 28.144531 C 155.09375 27.820312 154.886719 27.527344 154.621094 27.292969 C 154.160156 27.714844 153.617188 28.039062 153.027344 28.25 C 152.4375 28.457031 151.8125 28.546875 151.1875 28.507812 C 148.75 28.507812 146.566406 27.136719 146.566406 23.285156 C 146.566406 19.628906 149.082031 17.808594 151.703125 17.808594 C 155.070312 17.808594 156.769531 19.996094 156.769531 23.179688 Z M 186.257812 9.484375 L 194.992188 32.222656 L 190.003906 32.222656 C 189.820312 32.242188 189.640625 32.191406 189.5 32.082031 C 189.355469 31.96875 189.257812 31.808594 189.226562 31.632812 L 182.316406 12.703125 L 178.617188 22.78125 L 181.023438 22.78125 C 183.238281 22.78125 184.089844 23.625 184.605469 24.996094 L 185.238281 26.671875 C 185.382812 27.039062 185.238281 27.292969 184.859375 27.292969 L 176.957031 27.292969 L 175.179688 32.222656 L 170.597656 32.222656 C 170.519531 32.234375 170.441406 32.222656 170.367188 32.191406 C 170.292969 32.160156 170.230469 32.109375 170.1875 32.042969 C 170.140625 31.976562 170.113281 31.902344 170.105469 31.820312 C 170.101562 31.742188 170.117188 31.664062 170.152344 31.59375 L 178.324219 10.195312 C 179.171875 7.976562 180.265625 7.277344 182.207031 7.277344 L 186.265625 7.277344 C 186.566406 7.277344 186.671875 7.429688 186.671875 7.617188 C 186.671875 8.023438 186.082031 8.132812 186.082031 8.761719 C 186.101562 9.011719 186.160156 9.253906 186.257812 9.484375 Z M 115.894531 31.667969 C 115.882812 31.746094 115.890625 31.824219 115.914062 31.894531 C 115.9375 31.96875 115.976562 32.035156 116.03125 32.085938 C 116.085938 32.140625 116.152344 32.183594 116.222656 32.207031 C 116.296875 32.230469 116.371094 32.234375 116.449219 32.222656 L 120.582031 32.222656 L 120.582031 13.742188 L 119.332031 13.742188 C 118.507812 13.707031 117.699219 13.988281 117.078125 14.53125 C 116.460938 15.074219 116.074219 15.839844 116 16.660156 C 114.789062 14.433594 112.417969 13.363281 109.613281 13.363281 C 104.761719 13.363281 100.597656 17.253906 100.597656 23.285156 C 100.597656 29.0625 103.625 32.699219 109.023438 32.699219 C 112.90625 32.699219 114.527344 30.921875 114.527344 29.179688 C 114.550781 28.828125 114.492188 28.472656 114.355469 28.144531 C 114.222656 27.820312 114.015625 27.527344 113.75 27.292969 C 113.285156 27.714844 112.746094 28.039062 112.152344 28.25 C 111.5625 28.457031 110.9375 28.546875 110.3125 28.507812 C 107.875 28.507812 105.691406 27.136719 105.691406 23.285156 C 105.691406 19.628906 108.207031 17.808594 110.828125 17.808594 C 114.195312 17.808594 115.894531 19.996094 115.894531 23.179688 Z M 94.152344 14.367188 C 94.28125 14.136719 94.476562 13.949219 94.714844 13.832031 C 94.953125 13.710938 95.21875 13.667969 95.480469 13.703125 L 100.839844 13.703125 L 92.929688 22.554688 L 101.023438 32.222656 L 95.53125 32.222656 C 95.265625 32.257812 95 32.210938 94.761719 32.09375 C 94.527344 31.972656 94.332031 31.785156 94.199219 31.554688 L 88.132812 24.113281 L 88.132812 32.222656 L 84 32.222656 C 83.921875 32.234375 83.847656 32.230469 83.773438 32.207031 C 83.703125 32.183594 83.636719 32.140625 83.582031 32.085938 C 83.527344 32.035156 83.488281 31.96875 83.464844 31.894531 C 83.441406 31.824219 83.433594 31.746094 83.445312 31.667969 L 83.445312 9.589844 C 83.449219 8.679688 83.816406 7.804688 84.457031 7.160156 C 85.101562 6.515625 85.972656 6.152344 86.882812 6.148438 L 88.132812 6.148438 L 88.132812 21.183594 Z M 71.984375 9.503906 L 80.71875 32.242188 L 75.757812 32.242188 C 75.578125 32.261719 75.398438 32.210938 75.253906 32.101562 C 75.109375 31.988281 75.011719 31.828125 74.980469 31.652344 L 68.070312 12.703125 L 64.371094 22.78125 L 66.78125 22.78125 C 68.992188 22.78125 69.847656 23.625 70.363281 24.996094 L 70.992188 26.671875 C 71.136719 27.039062 70.992188 27.292969 70.625 27.292969 L 62.714844 27.292969 L 60.9375 32.222656 L 56.355469 32.222656 C 56.277344 32.234375 56.195312 32.222656 56.125 32.191406 C 56.050781 32.160156 55.988281 32.109375 55.941406 32.042969 C 55.894531 31.976562 55.867188 31.902344 55.863281 31.820312 C 55.855469 31.742188 55.871094 31.664062 55.910156 31.59375 L 64.082031 10.195312 C 64.925781 7.976562 66.023438 7.277344 67.964844 7.277344 L 72.03125 7.277344 C 72.324219 7.277344 72.429688 7.429688 72.429688 7.617188 C 72.429688 8.023438 71.847656 8.132812 71.847656 8.761719 C 71.851562 9.011719 71.902344 9.253906 71.992188 9.484375 Z M 206.359375 17.167969 L 206.359375 31.667969 C 206.347656 31.746094 206.351562 31.824219 206.375 31.894531 C 206.398438 31.96875 206.441406 32.035156 206.496094 32.085938 C 206.546875 32.140625 206.613281 32.183594 206.6875 32.207031 C 206.757812 32.230469 206.835938 32.234375 206.910156 32.222656 L 211.046875 32.222656 L 211.046875 23.003906 C 211.003906 22.351562 211.097656 21.699219 211.320312 21.082031 C 211.539062 20.46875 211.882812 19.90625 212.332031 19.429688 C 212.777344 18.953125 213.316406 18.574219 213.914062 18.316406 C 214.515625 18.058594 215.160156 17.925781 215.8125 17.925781 C 216.527344 17.890625 217.246094 18 217.917969 18.257812 C 218.332031 17.441406 218.574219 16.546875 218.625 15.628906 C 218.625 14.523438 218.035156 13.480469 216.035156 13.480469 C 214.035156 13.480469 212.152344 14.746094 211.046875 17.371094 L 211.046875 13.703125 L 209.792969 13.703125 C 209.335938 13.679688 208.878906 13.75 208.449219 13.910156 C 208.019531 14.074219 207.632812 14.328125 207.308594 14.652344 C 206.984375 14.980469 206.734375 15.371094 206.570312 15.800781 C 206.410156 16.230469 206.339844 16.6875 206.367188 17.148438 Z M 197.710938 17.167969 C 197.714844 16.253906 198.078125 15.382812 198.722656 14.738281 C 199.363281 14.09375 200.234375 13.730469 201.144531 13.722656 L 202.398438 13.722656 L 202.398438 32.203125 L 198.261719 32.203125 C 198.1875 32.214844 198.109375 32.210938 198.039062 32.1875 C 197.964844 32.164062 197.898438 32.121094 197.847656 32.066406 C 197.792969 32.015625 197.75 31.949219 197.726562 31.875 C 197.703125 31.804688 197.699219 31.726562 197.710938 31.652344 Z M 123.269531 28.925781 C 123.269531 31.367188 127.5625 32.632812 131.035156 32.632812 C 135.578125 32.632812 139.316406 30.484375 139.316406 26.632812 C 139.316406 23.78125 137.878906 22.109375 134.40625 21.261719 L 130.523438 20.289062 C 129.550781 20.027344 128.96875 19.617188 128.96875 18.695312 C 128.96875 17.769531 129.890625 17.246094 131.667969 17.246094 C 133.742188 17.269531 135.769531 17.902344 137.492188 19.0625 C 138.175781 18.40625 138.605469 17.527344 138.714844 16.582031 C 138.714844 14.511719 135.316406 13.285156 131.578125 13.285156 C 127.589844 13.285156 123.929688 15.289062 123.929688 19.121094 C 123.929688 22.039062 125.378906 23.820312 128.628906 24.558594 L 132.617188 25.53125 C 133.648438 25.746094 134.238281 26.195312 134.238281 27.050781 C 134.238281 28.121094 133.355469 28.675781 131.210938 28.675781 C 128.777344 28.59375 126.417969 27.808594 124.417969 26.417969 C 123.726562 27.074219 123.316406 27.972656 123.269531 28.925781 Z M 200.117188 5.144531 C 199.34375 5.144531 198.605469 5.453125 198.058594 6 C 197.511719 6.546875 197.203125 7.289062 197.203125 8.0625 C 197.203125 8.835938 197.511719 9.578125 198.058594 10.125 C 198.605469 10.675781 199.34375 10.980469 200.117188 10.980469 C 200.507812 10.992188 200.894531 10.925781 201.257812 10.785156 C 201.621094 10.644531 201.953125 10.429688 202.230469 10.160156 C 202.511719 9.886719 202.734375 9.558594 202.886719 9.199219 C 203.039062 8.839844 203.117188 8.453125 203.117188 8.0625 C 203.117188 7.671875 203.039062 7.285156 202.886719 6.925781 C 202.734375 6.566406 202.511719 6.242188 202.230469 5.96875 C 201.953125 5.695312 201.621094 5.484375 201.257812 5.34375 C 200.894531 5.199219 200.507812 5.132812 200.117188 5.144531 Z M 200.117188 5.144531 "/>
<path style=" stroke:none;fill-rule:nonzero;fill:rgb(100%,38.823529%,0%);fill-opacity:1;" d="M 0.144531 36.066406 L 13.734375 12.964844 C 13.957031 12.597656 14.101562 12.441406 14.328125 12.441406 C 14.550781 12.441406 14.707031 12.636719 14.890625 12.925781 C 16.570312 15.769531 17.464844 19.007812 17.472656 22.3125 C 17.472656 30.980469 10.675781 36.960938 0.894531 36.960938 C 0.707031 36.960938 0 36.960938 0 36.515625 C -0.00390625 36.351562 0.046875 36.195312 0.144531 36.066406 Z M 0.144531 36.066406 "/>
<path style=" stroke:none;fill-rule:nonzero;fill:rgb(100%,38.823529%,0%);fill-opacity:1;" d="M 31.285156 14.6875 L 43.183594 35.988281 C 43.484375 36.515625 43.300781 36.960938 42.554688 36.960938 C 33.816406 36.960938 29.761719 33.671875 26.480469 27.796875 L 17.304688 11.359375 C 16.863281 10.703125 16.605469 9.941406 16.558594 9.152344 C 16.652344 8.179688 16.988281 7.242188 17.53125 6.429688 L 18.683594 4.378906 C 20.324219 1.34375 22.109375 0 26.324219 0 L 29.3125 0 C 29.761719 0 29.796875 0.339844 29.574219 0.59375 C 28.539062 1.839844 28.003906 3.429688 28.082031 5.046875 C 28.082031 7.285156 28.90625 10.386719 31.285156 14.6875 Z M 31.285156 14.6875 "/>
<path style=" stroke:none;fill-rule:nonzero;fill:rgb(100%,38.823529%,0%);fill-opacity:1;" d="M 255.617188 28.675781 L 255.617188 15.417969 L 258.332031 15.417969 L 258.332031 28.675781 Z M 255.617188 28.675781 "/>
<path style=" stroke:none;fill-rule:nonzero;fill:rgb(100%,38.823529%,0%);fill-opacity:1;" d="M 264.265625 28.675781 L 264.265625 17.585938 L 260.28125 17.585938 L 260.28125 15.417969 L 270.988281 15.417969 L 270.988281 17.585938 L 266.960938 17.585938 L 266.960938 28.675781 Z M 264.265625 28.675781 "/>
<path style=" stroke:none;fill-rule:nonzero;fill:rgb(100%,38.823529%,0%);fill-opacity:1;" d="M 272.375 19.136719 L 273.84375 15.242188 L 276.042969 15.242188 L 274.257812 19.136719 Z M 272.375 19.136719 "/>
<path style=" stroke:none;fill-rule:nonzero;fill:rgb(100%,38.823529%,0%);fill-opacity:1;" d="M 282.691406 28.914062 C 282.03125 28.914062 281.4375 28.878906 280.90625 28.8125 C 280.390625 28.746094 279.917969 28.640625 279.480469 28.496094 C 279.042969 28.347656 278.609375 28.164062 278.171875 27.9375 L 278.171875 25.316406 C 278.726562 25.765625 279.382812 26.125 280.132812 26.390625 C 280.886719 26.640625 281.648438 26.765625 282.414062 26.765625 C 283.128906 26.765625 283.664062 26.628906 284.019531 26.347656 C 284.390625 26.058594 284.578125 25.648438 284.578125 25.117188 C 284.578125 24.707031 284.425781 24.375 284.121094 24.125 C 283.828125 23.871094 283.441406 23.652344 282.949219 23.46875 C 282.460938 23.28125 281.925781 23.089844 281.34375 22.890625 C 280.933594 22.746094 280.53125 22.585938 280.132812 22.414062 C 279.75 22.230469 279.402344 21.996094 279.082031 21.71875 C 278.78125 21.441406 278.535156 21.097656 278.351562 20.6875 C 278.164062 20.261719 278.074219 19.746094 278.074219 19.136719 C 278.074219 18.644531 278.164062 18.160156 278.351562 17.683594 C 278.535156 17.207031 278.820312 16.777344 279.203125 16.394531 C 279.585938 16.007812 280.082031 15.703125 280.691406 15.480469 C 281.3125 15.253906 282.039062 15.140625 282.871094 15.140625 C 283.414062 15.140625 283.882812 15.175781 284.277344 15.242188 C 284.6875 15.308594 285.074219 15.40625 285.429688 15.539062 C 285.800781 15.671875 286.1875 15.835938 286.597656 16.035156 L 286.597656 18.660156 C 286.28125 18.433594 285.945312 18.222656 285.585938 18.023438 C 285.230469 17.8125 284.847656 17.640625 284.4375 17.507812 C 284.039062 17.375 283.605469 17.300781 283.128906 17.289062 C 282.652344 17.273438 282.242188 17.328125 281.898438 17.445312 C 281.554688 17.566406 281.292969 17.746094 281.105469 17.984375 C 280.921875 18.222656 280.828125 18.507812 280.828125 18.835938 C 280.828125 19.25 280.941406 19.578125 281.164062 19.832031 C 281.402344 20.070312 281.726562 20.269531 282.136719 20.425781 C 282.546875 20.585938 283.011719 20.746094 283.527344 20.902344 C 284.039062 21.0625 284.53125 21.242188 284.992188 21.441406 C 285.457031 21.640625 285.859375 21.882812 286.203125 22.175781 C 286.558594 22.453125 286.835938 22.804688 287.035156 23.230469 C 287.234375 23.652344 287.332031 24.167969 287.332031 24.777344 C 287.332031 25.519531 287.160156 26.210938 286.816406 26.847656 C 286.488281 27.46875 285.976562 27.972656 285.289062 28.355469 C 284.601562 28.726562 283.738281 28.914062 282.691406 28.914062 Z M 282.691406 28.914062 "/>
<path style=" stroke:none;fill-rule:nonzero;fill:rgb(100%,38.823529%,0%);fill-opacity:1;" d="M 299.222656 28.675781 L 299.222656 22.832031 L 294.226562 15.417969 L 297.535156 15.417969 L 301.421875 21.71875 L 300.234375 21.679688 L 303.84375 15.417969 L 306.617188 15.417969 L 301.523438 23.507812 L 301.917969 22.035156 L 301.917969 28.675781 Z M 299.222656 28.675781 "/>
<path style=" stroke:none;fill-rule:nonzero;fill:rgb(100%,38.823529%,0%);fill-opacity:1;" d="M 313.597656 28.914062 C 312.289062 28.914062 311.15625 28.667969 310.207031 28.175781 C 309.269531 27.675781 308.546875 26.917969 308.042969 25.910156 C 307.542969 24.890625 307.289062 23.605469 307.289062 22.058594 C 307.289062 19.792969 307.832031 18.082031 308.917969 16.929688 C 310.015625 15.765625 311.574219 15.179688 313.597656 15.179688 C 314.90625 15.179688 316.03125 15.433594 316.96875 15.9375 C 317.921875 16.425781 318.644531 17.183594 319.152344 18.203125 C 319.652344 19.207031 319.902344 20.488281 319.902344 22.035156 C 319.902344 24.300781 319.355469 26.019531 318.253906 27.183594 C 317.171875 28.335938 315.617188 28.914062 313.597656 28.914062 Z M 313.597656 26.648438 C 314.375 26.648438 315.023438 26.496094 315.542969 26.191406 C 316.066406 25.886719 316.464844 25.394531 316.730469 24.71875 C 316.992188 24.03125 317.125 23.136719 317.125 22.035156 C 317.125 20.925781 316.992188 20.035156 316.730469 19.375 C 316.464844 18.699219 316.066406 18.207031 315.542969 17.902344 C 315.023438 17.597656 314.375 17.445312 313.597656 17.445312 C 312.816406 17.445312 312.164062 17.605469 311.632812 17.921875 C 311.117188 18.226562 310.730469 18.71875 310.464844 19.394531 C 310.199219 20.054688 310.066406 20.945312 310.066406 22.058594 C 310.066406 23.167969 310.199219 24.0625 310.464844 24.738281 C 310.730469 25.402344 311.117188 25.886719 311.632812 26.191406 C 312.164062 26.496094 312.816406 26.648438 313.597656 26.648438 Z M 313.597656 26.648438 "/>
<path style=" stroke:none;fill-rule:nonzero;fill:rgb(100%,38.823529%,0%);fill-opacity:1;" d="M 328.179688 29.011719 C 326.265625 29.011719 324.808594 28.566406 323.820312 27.679688 C 322.839844 26.78125 322.351562 25.414062 322.351562 23.585938 L 322.351562 15.417969 L 325.148438 15.417969 L 325.148438 23.507812 C 325.148438 24.648438 325.382812 25.488281 325.863281 26.03125 C 326.335938 26.574219 327.070312 26.847656 328.0625 26.847656 C 329 26.847656 329.71875 26.574219 330.222656 26.03125 C 330.738281 25.488281 330.996094 24.648438 330.996094 23.507812 L 330.996094 15.417969 L 333.574219 15.417969 L 333.574219 23.585938 C 333.574219 24.804688 333.351562 25.820312 332.898438 26.628906 C 332.449219 27.433594 331.820312 28.039062 331.015625 28.4375 C 330.210938 28.820312 329.265625 29.011719 328.179688 29.011719 Z M 328.179688 29.011719 "/>
<path style=" stroke:none;fill-rule:nonzero;fill:rgb(100%,38.823529%,0%);fill-opacity:1;" d="M 336.542969 28.675781 L 336.542969 15.417969 L 342.710938 15.417969 C 344.140625 15.417969 345.25 15.765625 346.042969 16.453125 C 346.835938 17.128906 347.234375 18.148438 347.234375 19.511719 C 347.234375 20.148438 347.101562 20.757812 346.835938 21.339844 C 346.585938 21.910156 346.210938 22.386719 345.707031 22.773438 C 345.21875 23.15625 344.617188 23.394531 343.902344 23.488281 L 343.921875 22.59375 L 347.890625 28.675781 L 344.5 28.675781 L 341.007812 22.8125 L 342.214844 23.886719 L 339.242188 23.886719 L 339.242188 28.675781 Z M 339.242188 21.796875 L 342.136719 21.796875 C 342.851562 21.796875 343.398438 21.625 343.785156 21.28125 C 344.167969 20.9375 344.355469 20.394531 344.355469 19.652344 C 344.355469 18.988281 344.199219 18.480469 343.882812 18.121094 C 343.566406 17.765625 343.0625 17.585938 342.375 17.585938 L 339.242188 17.585938 Z M 339.242188 21.796875 "/>
<path style=" stroke:none;fill-rule:nonzero;fill:rgb(100%,38.823529%,0%);fill-opacity:1;" d="M 359.960938 28.914062 C 359.296875 28.914062 358.703125 28.878906 358.175781 28.8125 C 357.660156 28.746094 357.183594 28.640625 356.746094 28.496094 C 356.3125 28.347656 355.875 28.164062 355.441406 27.9375 L 355.441406 25.316406 C 355.992188 25.765625 356.648438 26.125 357.402344 26.390625 C 358.15625 26.640625 358.917969 26.765625 359.683594 26.765625 C 360.398438 26.765625 360.933594 26.628906 361.289062 26.347656 C 361.660156 26.058594 361.84375 25.648438 361.84375 25.117188 C 361.84375 24.707031 361.691406 24.375 361.386719 24.125 C 361.097656 23.871094 360.707031 23.652344 360.21875 23.46875 C 359.730469 23.28125 359.195312 23.089844 358.613281 22.890625 C 358.203125 22.746094 357.800781 22.585938 357.402344 22.414062 C 357.019531 22.230469 356.667969 21.996094 356.351562 21.71875 C 356.046875 21.441406 355.804688 21.097656 355.617188 20.6875 C 355.433594 20.261719 355.339844 19.746094 355.339844 19.136719 C 355.339844 18.644531 355.433594 18.160156 355.617188 17.683594 C 355.804688 17.207031 356.085938 16.777344 356.472656 16.394531 C 356.851562 16.007812 357.351562 15.703125 357.957031 15.480469 C 358.578125 15.253906 359.304688 15.140625 360.136719 15.140625 C 360.679688 15.140625 361.152344 15.175781 361.546875 15.242188 C 361.957031 15.308594 362.339844 15.40625 362.699219 15.539062 C 363.066406 15.671875 363.457031 15.835938 363.867188 16.035156 L 363.867188 18.660156 C 363.550781 18.433594 363.210938 18.222656 362.855469 18.023438 C 362.5 17.8125 362.113281 17.640625 361.703125 17.507812 C 361.308594 17.375 360.875 17.300781 360.398438 17.289062 C 359.921875 17.273438 359.511719 17.328125 359.167969 17.445312 C 358.824219 17.566406 358.558594 17.746094 358.375 17.984375 C 358.1875 18.222656 358.09375 18.507812 358.09375 18.835938 C 358.09375 19.25 358.210938 19.578125 358.433594 19.832031 C 358.671875 20.070312 358.996094 20.269531 359.40625 20.425781 C 359.816406 20.585938 360.277344 20.746094 360.792969 20.902344 C 361.308594 21.0625 361.796875 21.242188 362.261719 21.441406 C 362.722656 21.640625 363.125 21.882812 363.472656 22.175781 C 363.828125 22.453125 364.105469 22.804688 364.304688 23.230469 C 364.5 23.652344 364.601562 24.167969 364.601562 24.777344 C 364.601562 25.519531 364.425781 26.210938 364.085938 26.847656 C 363.753906 27.46875 363.246094 27.972656 362.558594 28.355469 C 361.871094 28.726562 361.007812 28.914062 359.960938 28.914062 Z M 359.960938 28.914062 "/>
<path style=" stroke:none;fill-rule:nonzero;fill:rgb(100%,38.823529%,0%);fill-opacity:1;" d="M 369.601562 24.621094 L 368.832031 22.613281 L 374.441406 15.417969 L 377.851562 15.417969 Z M 367.046875 28.675781 L 367.046875 15.417969 L 369.761719 15.417969 L 369.761719 28.675781 Z M 372.300781 20.664062 L 378.269531 28.675781 L 374.820312 28.675781 L 370.21875 22.414062 Z M 372.300781 20.664062 "/>
<g clip-path="url(#clip1)" clip-rule="nonzero">
<path style=" stroke:none;fill-rule:nonzero;fill:rgb(100%,38.823529%,0%);fill-opacity:1;" d="M 384.042969 28.675781 L 384.042969 22.832031 L 379.046875 15.417969 L 382.355469 15.417969 L 386.242188 21.71875 L 385.054688 21.679688 L 388.660156 15.417969 L 391.441406 15.417969 L 386.339844 23.507812 L 386.738281 22.035156 L 386.738281 28.675781 Z M 384.042969 28.675781 "/>
</g>
<path style=" stroke:none;fill-rule:nonzero;fill:rgb(100%,38.823529%,0%);fill-opacity:1;" d="M 237.097656 13.703125 L 238.175781 13.703125 L 238.175781 32.183594 L 236.058594 32.183594 L 236.058594 14.675781 C 236.078125 14.414062 236.195312 14.164062 236.386719 13.984375 C 236.578125 13.804688 236.832031 13.703125 237.097656 13.703125 Z M 237.097656 13.703125 "/>
</g>
</svg>
