<svg width="40" height="40" viewBox="0 0 40 40" fill="none" xmlns="http://www.w3.org/2000/svg">
<circle r="20" transform="matrix(1 0 0 -1 20 20)" fill="white"/>
<path fill-rule="evenodd" clip-rule="evenodd" d="M11.3134 10.008C11.1295 10.0287 10.9633 10.0787 10.7912 10.1654C10.6528 10.2351 10.552 10.3055 10.4445 10.4076C10.2194 10.6216 10.076 10.8829 10.0184 11.184L10 11.2804V19.9961C10 28.4382 10.0005 28.7145 10.0149 28.7962C10.0391 28.934 10.0792 29.0543 10.1447 29.1858C10.223 29.3431 10.2899 29.4357 10.4177 29.5634C10.6417 29.7874 10.8848 29.9145 11.213 29.9792L11.3013 29.9966L19.9367 29.9993C26.1478 30.0012 28.5969 29.9995 28.6605 29.9931C29.0047 29.9589 29.3069 29.8227 29.5493 29.5926C29.7736 29.3797 29.9149 29.1237 29.9755 28.8203L29.994 28.7279L29.9964 20.0564C29.9981 13.7888 29.9963 11.3603 29.9899 11.2965C29.972 11.1175 29.9309 10.9782 29.8453 10.8064C29.6222 10.3588 29.1888 10.064 28.6709 10.0076C28.5753 9.99722 11.406 9.99758 11.3134 10.008ZM14.9066 13.4133C15.6635 13.5253 16.1751 14.0419 16.2624 14.7824C16.2775 14.9104 16.2675 15.1457 16.2417 15.2687C16.0777 16.0517 15.4 16.5328 14.5025 16.5033C14.3356 16.4979 14.2148 16.4816 14.0727 16.4454C13.3635 16.2649 12.9039 15.6758 12.9039 14.9474C12.9039 14.5167 13.0657 14.126 13.3598 13.8461C13.6396 13.5799 14.004 13.4298 14.4583 13.3939C14.5499 13.3867 14.7995 13.3975 14.9066 13.4133ZM23.7725 17.5347C24.4639 17.5911 25.0817 17.8249 25.5676 18.2143C25.6763 18.3013 25.848 18.4671 25.9408 18.5746C26.1306 18.7943 26.28 19.024 26.4148 19.3031C26.6691 19.8299 26.8115 20.4256 26.8571 21.1527C26.8622 21.2342 26.8651 22.2789 26.8651 24.0104V26.7398H25.371H23.8769L23.8767 24.3439C23.8766 22.9481 23.8733 21.8681 23.8688 21.7563C23.8497 21.2856 23.7794 20.9531 23.6348 20.6508C23.5 20.3692 23.288 20.1483 23.0364 20.0275C22.7465 19.8884 22.3593 19.8499 22.003 19.9247C21.5255 20.025 21.125 20.3554 20.8842 20.8476C20.7939 21.0322 20.7562 21.1755 20.7366 21.4083C20.7307 21.4791 20.728 22.3268 20.728 24.1255V26.7398H19.2296H17.7312L17.7375 24.7657C17.7455 22.2488 17.7455 18.4325 17.7375 18.0381L17.7313 17.7348H19.2297H20.728V18.3668V18.9988L20.8 18.8929C20.9391 18.6882 21.0447 18.5588 21.2094 18.3907C21.4565 18.1386 21.6935 17.9668 21.9932 17.8226C22.3741 17.6393 22.749 17.5504 23.2584 17.5227C23.3408 17.5182 23.662 17.5257 23.7725 17.5347ZM16.0769 22.2373V26.7398H14.5788H13.0806V22.2373V17.7348H14.5788H16.0769V22.2373Z" fill="#FF6300"/>
</svg>
