<svg width="89" height="64" viewBox="0 0 89 64" fill="none" xmlns="http://www.w3.org/2000/svg">
<path d="M71.2129 12.7414C71.2129 8.65039 67.7523 5.33398 63.4834 5.33398L54.981 5.33398C54.981 10.6523 50.4822 14.9636 44.9327 14.9636C39.3832 14.9636 34.8844 10.6523 34.8844 5.33398L25.609 5.33398C21.3402 5.33398 17.8796 8.65039 17.8796 12.7414L17.8796 51.2599C17.8796 55.3509 21.3402 58.6673 25.609 58.6673L63.4834 58.6673C67.7523 58.6673 71.2129 55.3509 71.2129 51.2599L71.2129 12.7414Z" fill="#FFEFE5"/>
<path fill-rule="evenodd" clip-rule="evenodd" d="M68.5462 12.7414C68.5462 10.229 66.3876 8.00065 63.4834 8.00065L57.3501 8.00065C56.0828 13.5733 50.9261 17.6303 44.9327 17.6303C38.9393 17.6303 33.7826 13.5733 32.5153 8.00065L25.609 8.00065C22.7048 8.00065 20.5462 10.229 20.5462 12.7414L20.5462 51.2599C20.5462 53.7723 22.7048 56.0006 25.609 56.0006L63.4834 56.0006C66.3876 56.0006 68.5462 53.7723 68.5462 51.2599L68.5462 12.7414ZM25.609 5.33398C21.3402 5.33398 17.8796 8.65039 17.8796 12.7414L17.8796 51.2599C17.8796 55.3509 21.3402 58.6673 25.609 58.6673L63.4834 58.6673C67.7523 58.6673 71.2129 55.3509 71.2129 51.2599L71.2129 12.7414C71.2129 8.65039 67.7523 5.33398 63.4834 5.33398L54.981 5.33398C54.981 10.6523 50.4822 14.9636 44.9327 14.9636C39.3832 14.9636 34.8844 10.6523 34.8844 5.33398L25.609 5.33398Z" fill="#FF6300"/>
<path d="M39.8799 47.0736H42.5465L49.2132 36.4069H56.5465C57.6532 36.4069 58.5465 35.5136 58.5465 34.4069C58.5465 33.3002 57.6532 32.4069 56.5465 32.4069L49.2132 32.4069L42.5465 21.7402L39.8799 21.7402L43.2132 32.4069H35.8799L33.8799 29.7402L31.8799 29.7402L33.2132 34.4069L31.8799 39.0736L33.8799 39.0736L35.8799 36.4069L43.2132 36.4069L39.8799 47.0736Z" fill="#5C0FD9"/>
</svg>
