<svg width="80" height="80" viewBox="0 0 80 80" fill="none" xmlns="http://www.w3.org/2000/svg">
<path d="M14.877 18.476C14.877 18.476 31.8685 18.476 39.592 9.10547C47.3155 18.476 64.3071 18.476 64.3071 18.476C64.3071 18.476 64.3071 32.5318 64.3071 45.8067C64.3071 59.0816 39.592 71.5756 39.592 71.5756C39.592 71.5756 14.877 58.3007 14.877 45.8067C14.877 33.3127 14.877 18.476 14.877 18.476Z" fill="#D4A610" fill-opacity="0.2"/>
<path fill-rule="evenodd" clip-rule="evenodd" d="M37.3337 70.2794C38.7326 71.1119 39.5924 71.5737 39.5924 71.5737C39.5924 71.5737 64.3075 59.0797 64.3075 45.8047V18.474C64.3075 18.474 47.3159 18.474 39.5924 9.10352C38.8901 9.95559 38.1112 10.7302 37.2754 11.4343C45.6314 18.474 59.6734 18.474 59.6734 18.474V45.8047C59.6734 56.5355 43.5239 66.756 37.3337 70.2794Z" fill="#D4A610" fill-opacity="0.2"/>
<path fill-rule="evenodd" clip-rule="evenodd" d="M39.5927 6.66602L40.7794 8.10574C44.3092 12.3882 50.0733 14.6325 55.1817 15.7802C57.7048 16.3471 59.9991 16.6314 61.6623 16.7735C62.4926 16.8444 63.1624 16.8796 63.6209 16.8971C63.85 16.9059 64.0261 16.9102 64.1428 16.9123C64.2011 16.9133 64.2445 16.9139 64.2723 16.9141L64.3021 16.9143L64.3078 16.9143H65.8525V18.4761H64.3078C65.8525 18.4761 65.8525 18.476 65.8525 18.4761V45.8068C65.8525 49.6129 64.0884 53.2154 61.6693 56.3872C59.2388 59.5741 56.0347 62.4746 52.8893 64.9094C49.7356 67.3506 46.5902 69.3624 44.238 70.7621C43.0602 71.4629 42.0774 72.0126 41.3865 72.3883C41.041 72.5762 40.7683 72.7208 40.5805 72.8191C40.4866 72.8682 40.4139 72.9058 40.3639 72.9315L40.3061 72.9611L40.2844 72.9722C40.2839 72.9724 40.2836 72.9726 39.5927 71.5757C38.868 72.9549 38.8677 72.9547 38.8672 72.9545L38.8659 72.9538L38.8615 72.9514L38.8459 72.943L38.7886 72.9118C38.7389 72.8848 38.6665 72.8451 38.5729 72.7932C38.3858 72.6895 38.1137 72.5371 37.7689 72.3395C37.0795 71.9443 36.0982 71.3676 34.9222 70.6369C32.5733 69.1773 29.4327 67.0941 26.2842 64.6072C23.1443 62.127 19.9471 59.2068 17.5217 56.065C15.1153 52.9476 13.333 49.437 13.333 45.8068V18.4776C13.333 18.4775 13.333 18.4761 14.8777 18.4761L13.333 18.4776V16.9143H14.8768L14.8834 16.9143L14.9132 16.9141C14.941 16.9139 14.9844 16.9133 15.0427 16.9123C15.1594 16.9102 15.3355 16.9059 15.5646 16.8971C16.0231 16.8796 16.6929 16.8444 17.5232 16.7735C19.1864 16.6314 21.4807 16.3471 24.0038 15.7802C29.1122 14.6325 34.8763 12.3882 38.4061 8.10574L39.5927 6.66602ZM16.4224 19.983V45.8068C16.4224 48.4236 17.7295 51.2575 19.9571 54.1432C22.1658 57.0044 25.1474 59.7455 28.1862 62.1458C31.2165 64.5394 34.2547 66.5558 36.5398 67.9757C37.6809 68.6847 38.6305 69.2427 39.2926 69.6223C39.4085 69.6887 39.5155 69.7496 39.6131 69.8049C39.7079 69.7541 39.8113 69.6983 39.9229 69.6376C40.5837 69.2782 41.5317 68.7481 42.671 68.0702C44.9528 66.7124 47.9862 64.7709 51.0112 62.4293C54.0446 60.0812 57.0193 57.3691 59.2228 54.4799C61.4379 51.5755 62.7631 48.6381 62.7631 45.8068V19.983C62.3719 19.9609 61.9148 19.9297 61.4021 19.8859C59.638 19.7351 57.2017 19.4338 54.5115 18.8293C49.6713 17.7419 43.7751 15.6223 39.5927 11.4146C35.4104 15.6223 29.5142 17.7419 24.674 18.8293C21.9838 19.4338 19.5475 19.7351 17.7834 19.8859C17.2707 19.9297 16.8136 19.9609 16.4224 19.983ZM39.5927 71.5757L38.8672 72.9545L39.5713 73.3327L40.2844 72.9722L39.5927 71.5757Z" fill="#C99B09"/>
<path fill-rule="evenodd" clip-rule="evenodd" d="M35.793 71.1715L35.8645 71.0412C35.8281 71.1094 35.8065 71.149 35.7937 71.172C35.7935 71.1718 35.7932 71.1717 35.793 71.1715ZM36.3526 71.5089L36.4807 71.5766L37.1938 71.2219L37.2155 71.2111L37.2732 71.1819C37.3232 71.1567 37.3959 71.1197 37.4898 71.0713C37.6776 70.9746 37.9504 70.8323 38.2959 70.6475C38.9867 70.2778 39.9696 69.7369 41.1473 69.0474C43.4995 67.6702 46.6449 65.6909 49.7987 63.2889C52.9441 60.8933 56.1481 58.0395 58.5787 54.9039C59.4978 53.7181 60.3224 52.4712 60.9916 51.1753C62.102 49.0902 62.7618 46.9365 62.7618 44.7626V44.5056L62.7618 44.4937V16.8541C63.0988 16.8746 63.3876 16.8882 63.6214 16.8971C63.8505 16.9058 64.0266 16.9101 64.1433 16.9122C64.2016 16.9133 64.245 16.9138 64.2728 16.9141L64.3026 16.9143L64.3083 16.9143H65.853V45.8067L65.853 45.8188V46.08C65.853 48.2895 65.1932 50.4783 64.0827 52.5976C63.4135 53.9147 62.589 55.182 61.6698 56.3871C59.2393 59.5741 56.0352 62.4745 52.8898 64.9093C49.7361 67.3506 46.5907 69.3623 44.2385 70.762C43.0607 71.4628 42.0779 72.0125 41.387 72.3883C41.0415 72.5762 40.7688 72.7207 40.581 72.819C40.4871 72.8682 40.4144 72.9058 40.3644 72.9315L40.3066 72.9611L40.2849 72.9721L40.2477 72.8971C40.2641 72.9301 40.2732 72.9487 40.2783 72.959C40.2848 72.9722 40.2848 72.9722 40.2849 72.9721L39.5718 73.3326L38.8678 72.9544C38.868 72.9546 38.8682 72.9547 38.9557 72.7885L38.8678 72.9544L38.8664 72.9537L38.8464 72.9429L38.7891 72.9118C38.7394 72.8847 38.667 72.845 38.5734 72.7932C38.3863 72.6895 38.1142 72.5371 37.7694 72.3395C37.3831 72.118 36.9051 71.8395 36.3526 71.5089ZM51.9588 14.9205C50.9683 14.6908 50.0698 14.3609 49.2386 13.9473C50.1371 14.3136 51.0488 14.6364 51.9588 14.9205Z" fill="#B18C15"/>
<path d="M37.6542 51.9288C37.6542 53.1177 37.7847 53.9909 38.0456 54.5482C38.3437 55.0684 38.8841 55.4399 39.6668 55.6628C40.4867 55.8858 41.7539 55.9972 43.4683 55.9972C43.5801 55.9972 43.6361 56.1087 43.6361 56.3316C43.6361 56.5546 43.5801 56.666 43.4683 56.666C41.9403 56.666 40.7476 56.6474 39.8904 56.6103L35.0267 56.5546L31.0015 56.6103C30.2934 56.6474 29.3244 56.666 28.0945 56.666C27.9827 56.666 27.9268 56.5546 27.9268 56.3316C27.9268 56.1087 27.9827 55.9972 28.0945 55.9972C29.3617 55.9972 30.2748 55.9043 30.8338 55.7186C31.3929 55.5328 31.7656 55.1798 31.9519 54.6596C32.1755 54.1395 32.2873 53.3035 32.2873 52.1517V26.3475C32.2873 25.2329 32.1755 24.4155 31.9519 23.8953C31.7656 23.3751 31.3742 23.0222 30.7779 22.8364C30.2189 22.6135 29.3244 22.502 28.0945 22.502C27.9827 22.502 27.9268 22.3905 27.9268 22.1676C27.9268 21.9447 27.9827 21.8332 28.0945 21.8332L31.0015 21.8889C32.6414 21.9633 33.9645 22.0004 34.9708 22.0004C35.828 22.0004 36.8716 21.9447 38.1015 21.8332C38.5487 21.7961 39.145 21.7589 39.8904 21.7217C40.6731 21.6846 41.5862 21.666 42.6298 21.666C46.3195 21.666 49.2265 22.4463 51.3509 24.0068C53.5126 25.5673 54.5934 27.9638 54.5934 31.1963C54.5934 33.537 53.9785 35.5248 52.7486 37.1596C51.5559 38.7945 50.0092 40.0206 48.1084 40.838C46.245 41.6554 44.3255 42.0641 42.3502 42.0641C41.3067 42.0641 40.4308 41.9712 39.7227 41.7854C39.6109 41.7854 39.555 41.6926 39.555 41.5068C39.555 41.3953 39.5736 41.2839 39.6109 41.1724C39.6854 41.0609 39.76 41.0238 39.8345 41.0609C40.4308 41.2095 41.0831 41.2838 41.7912 41.2838C43.7292 41.2838 45.3691 40.485 46.7108 38.8874C48.0525 37.2897 48.7234 35.0047 48.7234 32.0323C48.7234 29.097 48.0339 26.8306 46.6549 25.2329C45.2759 23.5981 43.3752 22.7807 40.9526 22.7807C40.0581 22.7807 39.3686 22.8736 38.8841 23.0593C38.4369 23.2451 38.1201 23.5981 37.9337 24.1182C37.7474 24.6013 37.6542 25.3815 37.6542 26.459V51.9288Z" fill="#C99B09"/>
</svg>
