<svg width="64" height="64" viewBox="0 0 64 64" fill="none" xmlns="http://www.w3.org/2000/svg">
<path d="M58.6663 32.0007C58.6663 46.7282 46.7273 58.6673 31.9997 58.6673C17.2721 58.6673 5.33301 46.7282 5.33301 32.0007C5.33301 17.2731 17.2721 5.33398 31.9997 5.33398C46.7273 5.33398 58.6663 17.2731 58.6663 32.0007Z" fill="#037E0B" fill-opacity="0.1"/>
<path fill-rule="evenodd" clip-rule="evenodd" d="M45.1977 55.1779C53.2433 50.5867 58.667 41.9271 58.667 32.0007C58.667 17.2731 46.7279 5.33398 32.0003 5.33398C24.8012 5.33398 18.2684 8.18672 13.4707 12.8234C17.3621 10.6028 21.867 9.33398 26.6681 9.33398C41.3957 9.33398 53.3348 21.2731 53.3348 36.0007C53.3348 43.5292 50.215 50.329 45.1977 55.1779Z" fill="#037E0B" fill-opacity="0.1"/>
<path fill-rule="evenodd" clip-rule="evenodd" d="M31.9997 7.87367C18.6747 7.87367 7.87269 18.6757 7.87269 32.0007C7.87269 45.3256 18.6747 56.1276 31.9997 56.1276C45.3246 56.1276 56.1267 45.3256 56.1267 32.0007C56.1267 18.6757 45.3246 7.87367 31.9997 7.87367ZM5.33301 32.0007C5.33301 17.2731 17.2721 5.33398 31.9997 5.33398C46.7273 5.33398 58.6663 17.2731 58.6663 32.0007C58.6663 46.7282 46.7273 58.6673 31.9997 58.6673C17.2721 58.6673 5.33301 46.7282 5.33301 32.0007Z" fill="#037E0B"/>
<path fill-rule="evenodd" clip-rule="evenodd" d="M47.9993 21.3925L31.9395 45.6086C31.5032 46.2664 30.7799 46.6624 30.0044 46.6679C29.2289 46.6734 28.5003 46.2878 28.0552 45.6363L20.6751 34.8336L18.4214 37.8693L14.666 34.9347L18.8765 29.2631C19.3329 28.6483 20.0479 28.2939 20.801 28.3092C21.554 28.3245 22.2548 28.7077 22.6871 29.3405L29.9592 39.985L44.0964 18.668L47.9993 21.3925Z" fill="#037E0B"/>
</svg>
