<svg width="18" height="18" viewBox="0 0 18 18" fill="none" xmlns="http://www.w3.org/2000/svg">
<path d="M2.0884 14.6647L6.48824 7.19469C6.56074 7.07379 6.60908 7.02539 6.68158 7.02539C6.76623 7.02539 6.80249 7.08587 6.86291 7.18254C7.43104 8.18577 7.70904 9.16489 7.70904 10.2165C7.70904 13.0208 5.49703 14.9668 2.33014 14.9668C2.26972 14.9668 2.04006 14.9668 2.04006 14.8097C2.03935 14.7573 2.05639 14.7062 2.0884 14.6647Z" fill="#666666"/>
<path d="M12.1817 7.75005L16.0376 14.6399C16.1343 14.8092 16.0739 14.9541 15.8321 14.9541C13.0036 14.9541 11.6862 13.8905 10.6225 11.9927L7.64897 6.67449C7.46765 6.36018 7.40723 6.14261 7.40723 5.96134C7.40723 5.75585 7.49182 5.51411 7.73356 5.07896L8.0962 4.41427C8.62803 3.43515 9.20825 3 10.5741 3H11.5411C11.6862 3 11.6982 3.10882 11.6257 3.19341C11.3719 3.49563 11.1422 3.9187 11.1422 4.63184C11.1422 5.35678 11.4081 6.36001 12.1817 7.75005Z" fill="#666666"/>
</svg>
