<svg width="80" height="80" viewBox="0 0 80 80" fill="none" xmlns="http://www.w3.org/2000/svg">
<path d="M19.5202 43.4494L32.5568 21.3161C32.7716 20.9578 32.9148 20.8145 33.1297 20.8145C33.3805 20.8145 33.4879 20.9937 33.6669 21.2801C35.3503 24.2526 36.174 27.1537 36.174 30.2695C36.174 38.5785 29.6199 44.3445 20.2365 44.3445C20.0575 44.3445 19.377 44.3445 19.377 43.8791C19.3749 43.7238 19.4254 43.5724 19.5202 43.4494Z" fill="#FF6300"/>
<path d="M49.426 22.9629L60.8508 43.3772C61.1372 43.8788 60.9582 44.3083 60.2419 44.3083C51.8613 44.3083 47.9576 41.1568 44.8059 35.5338L35.9956 19.7761C35.4583 18.8448 35.2793 18.2001 35.2793 17.663C35.2793 17.0542 35.5299 16.3379 36.2462 15.0486L37.3207 13.0791C38.8965 10.178 40.6157 8.88867 44.6627 8.88867H47.5278C47.9576 8.88867 47.9934 9.21109 47.7784 9.46173C47.0263 10.3572 46.3459 11.6107 46.3459 13.7238C46.3459 15.8717 47.1338 18.8443 49.426 22.9629Z" fill="#FF6300"/>
<path d="M13.333 66.666V51.666H23.7934V54.4771H17.0656V58.0528H22.8717V60.9089H17.0656V66.666H13.333Z" fill="#FF6300"/>
<path d="M26.4732 66.666V51.666H30.2058V63.8099H36.8875V66.666H26.4732Z" fill="#FF6300"/>
<path d="M39.2535 66.666V51.666H49.7829V54.4771H42.986V57.738H48.8844V60.5716H42.986V63.8549H49.7829V66.666H39.2535Z" fill="#FF6300"/>
<path d="M66.6663 66.666H62.0352L51.5518 51.666H56.1829L66.6663 66.666ZM59.04 57.2207L62.3808 51.666H66.5051L60.9754 59.9194L59.04 57.2207ZM59.6621 60.3917L55.7682 66.666H51.7362L57.7036 57.8954L59.6621 60.3917Z" fill="#FF6300"/>
</svg>
