<svg width="64" height="64" viewBox="0 0 64 64" fill="none" xmlns="http://www.w3.org/2000/svg">
<path d="M12.2275 14.7816C12.2275 14.7816 25.8208 14.7816 31.9996 7.28516C38.1783 14.7816 51.7716 14.7816 51.7716 14.7816C51.7716 14.7816 51.7716 26.0262 51.7716 36.6461C51.7716 47.2661 31.9996 57.2613 31.9996 57.2613C31.9996 57.2613 12.2275 46.6414 12.2275 36.6461C12.2275 26.6509 12.2275 14.7816 12.2275 14.7816Z" fill="#D4A610" fill-opacity="0.2"/>
<path fill-rule="evenodd" clip-rule="evenodd" d="M30.1932 56.2259C31.3123 56.8918 32.0001 57.2613 32.0001 57.2613C32.0001 57.2613 51.7722 47.2661 51.7722 36.6461V14.7816C51.7722 14.7816 38.1789 14.7816 32.0001 7.28516C31.4383 7.96681 30.8151 8.58647 30.1465 9.1498C36.8313 14.7816 48.0649 14.7816 48.0649 14.7816V36.6461C48.0649 45.2308 35.1453 53.4072 30.1932 56.2259Z" fill="#D4A610" fill-opacity="0.2"/>
<path fill-rule="evenodd" clip-rule="evenodd" d="M32 5.33398L32.9493 6.48577C35.7731 9.91176 40.3844 11.7071 44.4711 12.6253C46.4896 13.0788 48.325 13.3063 49.6556 13.4199C50.3199 13.4767 50.8557 13.5049 51.2225 13.5189C51.4058 13.5259 51.5466 13.5293 51.64 13.531C51.6866 13.5318 51.7214 13.5323 51.7436 13.5325L51.7675 13.5326L51.772 13.5326H53.0078V14.782H51.772C53.0078 14.782 53.0078 14.7819 53.0078 14.782V36.6466C53.0078 39.6915 51.5965 42.5735 49.6612 45.1109C47.7168 47.6605 45.1535 49.9808 42.6372 51.9287C40.1142 53.8817 37.5979 55.4911 35.7162 56.6108C34.774 57.1715 33.9877 57.6112 33.435 57.9118C33.1586 58.0622 32.9404 58.1778 32.7902 58.2564C32.715 58.2958 32.6569 58.3258 32.6169 58.3464L32.5707 58.3701L32.5533 58.3789C32.5529 58.3791 32.5526 58.3792 32 57.2617C31.4202 58.3651 31.4199 58.365 31.4196 58.3648L31.4185 58.3642L31.4149 58.3623L31.4025 58.3556L31.3567 58.3307C31.3169 58.309 31.259 58.2772 31.1841 58.2358C31.0344 58.1528 30.8168 58.0309 30.5409 57.8728C29.9894 57.5566 29.2043 57.0952 28.2636 56.5107C26.3844 55.343 23.872 53.6765 21.3532 51.6869C18.8412 49.7028 16.2834 47.3666 14.3432 44.8532C12.418 42.3593 10.9922 39.5507 10.9922 36.6466V14.7833C10.9922 14.7832 10.9922 14.782 12.2279 14.782L10.9922 14.7833V13.5326H12.2272L12.2325 13.5326L12.2563 13.5325C12.2786 13.5323 12.3133 13.5318 12.36 13.531C12.4533 13.5293 12.5942 13.5259 12.7775 13.5189C13.1442 13.5049 13.6801 13.4767 14.3444 13.4199C15.6749 13.3063 17.5104 13.0788 19.5288 12.6253C23.6155 11.7071 28.2268 9.91176 31.0506 6.48577L32 5.33398ZM13.4637 15.9876V36.6466C13.4637 38.7401 14.5094 41.0072 16.2915 43.3157C18.0585 45.6047 20.4437 47.7976 22.8747 49.7178C25.299 51.6327 27.7295 53.2458 29.5576 54.3818C30.4705 54.949 31.2301 55.3954 31.7599 55.699C31.8526 55.7522 31.9382 55.8009 32.0163 55.8451C32.0921 55.8045 32.1748 55.7598 32.2641 55.7112C32.7927 55.4237 33.5511 54.9996 34.4626 54.4573C36.288 53.3711 38.7148 51.8179 41.1348 49.9446C43.5615 48.0662 45.9412 45.8965 47.704 43.5851C49.4761 41.2616 50.5363 38.9117 50.5363 36.6466V15.9876C50.2233 15.9699 49.8577 15.9449 49.4475 15.9099C48.0362 15.7893 46.0871 15.5482 43.935 15.0646C40.0628 14.1947 35.3458 12.499 32 9.13282C28.6541 12.499 23.9371 14.1947 20.065 15.0646C17.9128 15.5482 15.9638 15.7893 14.5525 15.9099C14.1423 15.9449 13.7767 15.9699 13.4637 15.9876ZM32 57.2617L31.4196 58.3648L31.9828 58.6673L32.5533 58.3789L32 57.2617Z" fill="#C99B09"/>
<path fill-rule="evenodd" clip-rule="evenodd" d="M28.96 56.9383L29.0177 56.8331C28.988 56.8886 28.9707 56.9204 28.9605 56.9386C28.9604 56.9385 28.9602 56.9384 28.96 56.9383ZM29.3897 57.1975L29.5106 57.2614L30.0811 56.9776L30.0985 56.9689L30.1447 56.9456C30.1847 56.9254 30.2429 56.8958 30.318 56.8571C30.4682 56.7797 30.6864 56.666 30.9628 56.518C31.5155 56.2223 32.3018 55.7896 33.244 55.238C35.1258 54.1363 37.642 52.5528 40.165 50.6312C42.6814 48.7147 45.2446 46.4317 47.1891 43.9232C47.9244 42.9746 48.584 41.977 49.1194 40.9403C50.0077 39.2722 50.5356 37.5493 50.5356 35.8102V35.6046L50.5356 35.5951V13.4842C50.8048 13.5006 51.0355 13.5114 51.2223 13.5185C51.4056 13.5255 51.5465 13.5289 51.6398 13.5306C51.6865 13.5315 51.7212 13.5319 51.7435 13.5321L51.7673 13.5322L51.7718 13.5322H53.0076V36.6462L53.0076 36.6558V36.8648C53.0076 38.6324 52.4797 40.3835 51.5914 42.0789C51.056 43.1326 50.3964 44.1464 49.6611 45.1105C47.7166 47.6601 45.1534 49.9805 42.6371 51.9283C40.1141 53.8813 37.5978 55.4907 35.716 56.6104C34.7738 57.1711 33.9875 57.6108 33.4348 57.9114C33.1584 58.0618 32.9402 58.1774 32.79 58.2561C32.7149 58.2954 32.6567 58.3255 32.6167 58.346L32.5705 58.3697L32.5531 58.3785L32.5223 58.3163C32.5373 58.3466 32.545 58.3621 32.5489 58.3701C32.5531 58.3786 32.5531 58.3786 32.5531 58.3785L31.9826 58.6669L31.4194 58.3644C31.4196 58.3645 31.4197 58.3646 31.4898 58.2316L31.4194 58.3644L31.4183 58.3638L31.4023 58.3552L31.3565 58.3303C31.3168 58.3086 31.2588 58.2768 31.184 58.2354C31.0342 58.1524 30.8166 58.0305 30.5407 57.8724C30.2276 57.6929 29.8392 57.4666 29.3897 57.1975ZM41.8804 11.9335C41.098 11.751 40.3873 11.4903 39.7294 11.1641C40.44 11.4533 41.1608 11.7085 41.8804 11.9335Z" fill="#B18C15"/>
<path d="M30.449 41.5442C30.449 42.4953 30.5533 43.1939 30.762 43.6397C31.0006 44.0559 31.4329 44.3531 32.059 44.5314C32.715 44.7098 33.7287 44.799 35.1003 44.799C35.1897 44.799 35.2344 44.8881 35.2344 45.0665C35.2344 45.2448 35.1897 45.334 35.1003 45.334C33.8778 45.334 32.9237 45.3191 32.2379 45.2894L28.3469 45.2448L25.1268 45.2894C24.5603 45.3191 23.7851 45.334 22.8012 45.334C22.7117 45.334 22.667 45.2448 22.667 45.0665C22.667 44.8881 22.7117 44.799 22.8012 44.799C23.8149 44.799 24.5454 44.7246 24.9926 44.576C25.4399 44.4274 25.738 44.145 25.8871 43.7289C26.066 43.3128 26.1555 42.644 26.1555 41.7225V21.0792C26.1555 20.1875 26.066 19.5336 25.8871 19.1174C25.738 18.7013 25.425 18.4189 24.9479 18.2703C24.5007 18.0919 23.7851 18.0028 22.8012 18.0028C22.7117 18.0028 22.667 17.9136 22.667 17.7353C22.667 17.5569 22.7117 17.4677 22.8012 17.4677L25.1268 17.5123C26.4387 17.5718 27.4972 17.6015 28.3022 17.6015C28.988 17.6015 29.8228 17.5569 30.8068 17.4677C31.1645 17.438 31.6416 17.4083 32.2379 17.3786C32.8641 17.3488 33.5945 17.334 34.4294 17.334C37.3812 17.334 39.7068 17.9582 41.4063 19.2066C43.1357 20.455 44.0003 22.3722 44.0003 24.9582C44.0003 26.8308 43.5084 28.421 42.5244 29.7289C41.5703 31.0367 40.333 32.0176 38.8123 32.6716C37.3215 33.3255 35.786 33.6525 34.2058 33.6525C33.3709 33.6525 32.6703 33.5781 32.1037 33.4295C32.0143 33.4295 31.9696 33.3552 31.9696 33.2066C31.9696 33.1174 31.9845 33.0283 32.0143 32.9391C32.0739 32.8499 32.1336 32.8202 32.1932 32.8499C32.6703 32.9688 33.192 33.0283 33.7585 33.0283C35.309 33.0283 36.6209 32.3892 37.6942 31.1111C38.7676 29.8329 39.3043 28.0049 39.3043 25.627C39.3043 23.2788 38.7527 21.4656 37.6495 20.1875C36.5463 18.8796 35.0257 18.2257 33.0877 18.2257C32.3721 18.2257 31.8205 18.3 31.4329 18.4486C31.0751 18.5973 30.8217 18.8796 30.6726 19.2958C30.5235 19.6822 30.449 20.3064 30.449 21.1684V41.5442Z" fill="#C99B09"/>
</svg>
