<svg width="15" height="12" viewBox="0 0 15 12" fill="none" xmlns="http://www.w3.org/2000/svg">
<path d="M0.0881534 11.6647L4.48799 4.19469C4.5605 4.07379 4.60883 4.02539 4.68134 4.02539C4.76599 4.02539 4.80224 4.08587 4.86266 4.18254C5.4308 5.18577 5.70879 6.16489 5.70879 7.21645C5.70879 10.0208 3.49679 11.9668 0.329897 11.9668C0.269476 11.9668 0.0398162 11.9668 0.0398162 11.8097C0.0391077 11.7573 0.056143 11.7062 0.0881534 11.6647Z" fill="#666666"/>
<path d="M10.1815 4.75005L14.0374 11.6399C14.134 11.8092 14.0736 11.9541 13.8319 11.9541C11.0034 11.9541 9.68592 10.8905 8.62221 8.99273L5.64873 3.67449C5.4674 3.36018 5.40698 3.14261 5.40698 2.96134C5.40698 2.75585 5.49157 2.51411 5.73332 2.07896L6.09596 1.41427C6.62778 0.43515 7.208 0 8.57388 0H9.54085C9.68592 0 9.698 0.108816 9.62544 0.193406C9.37161 0.49563 9.14195 0.918696 9.14195 1.63184C9.14195 2.35678 9.40787 3.36001 10.1815 4.75005Z" fill="#666666"/>
</svg>
