<svg width="65" height="64" viewBox="0 0 65 64" fill="none" xmlns="http://www.w3.org/2000/svg">
<rect width="64" height="64" transform="translate(0.545898)" fill="white"/>
<path d="M5.97856 21.1721C5.88383 19.9405 6.31961 17.4774 8.82062 17.4774H35.5358C36.9568 17.4774 39.2305 17.4774 39.2305 19.7511C39.2305 19.87 39.2295 19.975 39.2278 20.067C39.363 19.1699 39.8694 17.4774 41.5041 17.4774H55.7144C56.8512 17.2879 59.1249 17.4774 59.1249 19.7511V44.7611C58.9354 45.898 57.988 48.1716 55.7144 48.1716H41.5041C40.1748 48.1716 39.3429 46.9778 39.2411 45.1487C39.1136 46.3479 38.655 48.1716 37.241 48.1716H9.67312C8.4416 48.1716 5.97856 47.4895 5.97856 44.7611V21.1721Z" fill="#FFEFE5"/>
<path fill-rule="evenodd" clip-rule="evenodd" d="M10.5146 25.9472C10.5146 25.3193 10.7974 24.8103 11.1462 24.8103L32.6195 24.8103C32.9683 24.8103 33.2511 25.3193 33.2511 25.9472C33.2511 26.575 32.9683 27.084 32.6195 27.084L11.1462 27.084C10.7974 27.084 10.5146 26.575 10.5146 25.9472Z" fill="#5C0FD9"/>
<path fill-rule="evenodd" clip-rule="evenodd" d="M39.5028 17.9902C40.1307 17.9902 40.6396 18.3879 40.6396 18.8784L40.6396 20.5436C40.6396 21.0341 40.1307 21.4318 39.5028 21.4318C38.875 21.4318 38.366 21.0341 38.366 20.5436L38.366 18.8784C38.366 18.3879 38.875 17.9902 39.5028 17.9902ZM39.5028 22.986C40.1307 22.986 40.6396 23.3837 40.6396 23.8742L40.6396 27.2047C40.6396 27.6952 40.1307 28.0928 39.5028 28.0928C38.875 28.0928 38.366 27.6952 38.366 27.2047L38.366 23.8742C38.366 23.3837 38.875 22.986 39.5028 22.986ZM39.5028 29.6471C40.1307 29.6471 40.6396 30.0447 40.6396 30.5352L40.6396 33.8658C40.6396 34.3563 40.1307 34.7539 39.5028 34.7539C38.875 34.7539 38.366 34.3563 38.366 33.8658L38.366 30.5352C38.366 30.0447 38.875 29.6471 39.5028 29.6471ZM39.5028 36.3082C40.1307 36.3082 40.6396 36.7058 40.6396 37.1963L40.6396 40.5268C40.6396 41.0173 40.1307 41.415 39.5028 41.415C38.875 41.415 38.366 41.0173 38.366 40.5268L38.366 37.1963C38.366 36.7058 38.875 36.3082 39.5028 36.3082ZM39.5028 42.9692C40.1307 42.9692 40.6396 43.3669 40.6396 43.8574L40.6396 45.5226C40.6396 46.0131 40.1307 46.4108 39.5028 46.4108C38.875 46.4108 38.366 46.0131 38.366 45.5226L38.366 43.8574C38.366 43.3669 38.875 42.9692 39.5028 42.9692Z" fill="#FF6300"/>
<path fill-rule="evenodd" clip-rule="evenodd" d="M10.5146 32.1991C10.5146 31.5713 10.7974 31.0623 11.1462 31.0623L32.6195 31.0623C32.9683 31.0623 33.2511 31.5713 33.2511 32.1991C33.2511 32.827 32.9683 33.3359 32.6195 33.3359L11.1462 33.3359C10.7974 33.3359 10.5146 32.827 10.5146 32.1991Z" fill="#5C0FD9"/>
<path fill-rule="evenodd" clip-rule="evenodd" d="M10.5146 38.453C10.5146 37.8252 10.7974 37.3162 11.1462 37.3162L32.6195 37.3162C32.9683 37.3162 33.2511 37.8252 33.2511 38.453C33.2511 39.0809 32.9683 39.5898 32.6195 39.5898L11.1462 39.5898C10.7974 39.5898 10.5146 39.0809 10.5146 38.453Z" fill="#5C0FD9"/>
<path fill-rule="evenodd" clip-rule="evenodd" d="M44.0508 39.5897C44.0508 38.9619 44.3335 38.4529 44.6823 38.4529L53.6506 38.4529C53.9994 38.4529 54.2822 38.9619 54.2822 39.5897C54.2822 40.2176 53.9994 40.7266 53.6506 40.7266L44.6823 40.7266C44.3335 40.7266 44.0508 40.2176 44.0508 39.5897Z" fill="#5C0FD9"/>
<path fill-rule="evenodd" clip-rule="evenodd" d="M57.2809 18.9935C56.9054 18.8308 56.3533 18.8106 55.948 18.8782L55.832 18.8975H41.5041C41.294 18.8975 41.1835 18.9633 41.0617 19.1163C40.9011 19.3182 40.7694 19.6381 40.6862 19.9986C40.6702 20.0679 40.657 20.1342 40.6463 20.1958C40.6423 20.3503 40.6361 20.4761 40.6286 20.5756C40.6238 20.6387 40.613 20.7784 40.5814 20.9152L40.5812 20.916C40.5742 20.9465 40.5484 21.0582 40.4898 21.1887C40.4655 21.2428 40.3875 21.4124 40.226 21.5838C40.0696 21.7497 39.5797 22.1631 38.8614 21.9921C38.2696 21.8512 38.0094 21.4073 37.9573 21.3168C37.8729 21.1699 37.8346 21.0416 37.8202 20.9906C37.7881 20.8763 37.7773 20.7823 37.7738 20.7508C37.7509 20.5453 37.77 20.2981 37.787 20.1334C37.7928 20.0775 37.7999 20.0178 37.8083 19.9549C37.809 19.8937 37.8095 19.8255 37.8095 19.7501C37.8095 19.4283 37.7334 19.3118 37.7086 19.2781C37.6769 19.235 37.6032 19.1622 37.4102 19.0886C36.9534 18.9146 36.3068 18.8975 35.5358 18.8975H8.82063C8.4394 18.8975 8.2143 18.9878 8.07386 19.0776C7.92623 19.1721 7.79385 19.3169 7.68059 19.5297C7.43444 19.9921 7.3618 20.625 7.39542 21.0622L7.39961 21.1166V44.7602C7.39961 45.6115 7.74535 46.0357 8.15062 46.3051C8.63228 46.6252 9.26304 46.7496 9.67314 46.7496H37.2411C37.247 46.7496 37.2515 46.7494 37.2545 46.7491C37.2704 46.738 37.3282 46.6898 37.407 46.5562C37.5787 46.2651 37.7122 45.8067 37.79 45.2934C37.7999 45.2278 37.8086 45.1635 37.8163 45.1008C37.8117 44.9878 37.8095 44.8742 37.8095 44.7602C37.8095 44.4435 37.817 44.1732 37.8406 43.9902L37.8411 43.9866C37.8452 43.954 37.863 43.8129 37.9183 43.6567C37.9355 43.6079 37.9701 43.5177 38.0304 43.4136C38.0773 43.3325 38.2166 43.1052 38.4965 42.9262C38.8591 42.6943 39.3654 42.6104 39.8474 42.8273C40.2163 42.9934 40.402 43.264 40.4624 43.3582C40.5895 43.5565 40.6363 43.7422 40.646 43.7809L40.6469 43.7844C40.6642 43.8524 40.6737 43.9096 40.6787 43.9429C40.6891 44.0119 40.6943 44.0751 40.6972 44.1195C40.7126 44.3495 40.7079 44.7291 40.6667 45.1723C40.714 45.7931 40.8653 46.2131 41.0233 46.4544C41.18 46.6937 41.3227 46.7496 41.5041 46.7496H55.7144C56.3033 46.7496 56.7259 46.4805 57.0735 46.0271C57.417 45.579 57.622 45.0191 57.7038 44.6289V19.7501C57.7038 19.4285 57.6274 19.2815 57.5824 19.2163C57.5326 19.1441 57.4458 19.0649 57.2809 18.9935ZM39.2761 48.7485C39.8649 49.2749 40.6224 49.5917 41.5041 49.5917H55.7144C57.3991 49.5917 58.5871 48.724 59.3289 47.7563C60.0435 46.8243 60.402 45.7412 60.5266 44.9938L60.5459 44.8778V19.7501C60.5459 18.9349 60.3382 18.2057 59.9213 17.6018C59.5093 17.0049 58.9566 16.6222 58.411 16.3858C57.4236 15.9579 56.3403 15.9521 55.6067 16.0554H41.5041C40.5683 16.0554 39.8276 16.3981 39.2758 16.8849C38.999 16.6873 38.7064 16.5411 38.4219 16.4327C37.4267 16.0536 36.2785 16.0547 35.6137 16.0554C35.5869 16.0554 35.561 16.0554 35.5358 16.0554H8.82063C6.98395 16.0554 5.79831 17.0173 5.17182 18.1943C4.61251 19.245 4.50569 20.4265 4.55755 21.2212V44.7602C4.55755 46.6372 5.44333 47.9183 6.57746 48.672C7.6352 49.375 8.85173 49.5917 9.67314 49.5917H37.2411C38.1241 49.5917 38.7927 49.2257 39.2761 48.7485ZM37.7919 20.3916C37.7918 20.3914 37.7922 20.3878 37.793 20.3814C37.7923 20.3886 37.7919 20.3919 37.7919 20.3916Z" fill="#FF6300"/>
<path fill-rule="evenodd" clip-rule="evenodd" d="M52.0085 25.9475H46.3244V31.6316H52.0085V25.9475ZM44.0508 23.6738V33.9052H54.2822V23.6738H44.0508Z" fill="#5C0FD9"/>
</svg>
