<svg width="80" height="80" viewBox="0 0 80 80" fill="none" xmlns="http://www.w3.org/2000/svg">
<g clip-path="url(#clip0_7576_161371)">
<path d="M56.4929 49.665C57.6697 53.4392 58.8304 57.2177 60.0337 60.983C60.3638 62.0179 60.1863 62.84 59.3924 63.5754C58.7336 64.1846 58.1349 64.8584 57.4775 65.4691C57.0138 65.8992 56.4958 66.2691 56.0028 66.667H54.9477C53.8795 66.2398 53.3453 65.3385 52.8215 64.3843C48.7759 57.0166 44.7083 49.6606 40.6466 42.3003C40.5336 42.0962 40.4118 41.8966 40.293 41.694C40.3649 41.603 40.428 41.5046 40.5087 41.4239C43.7883 38.1415 47.0708 34.8592 50.3534 31.5797C50.4619 31.4711 50.5896 31.3816 50.7085 31.2832C51.853 34.9443 52.9961 38.6069 54.1421 42.2665C54.1583 42.3193 54.2008 42.3648 54.2302 42.4148C54.9829 44.831 55.7357 47.2488 56.4885 49.665H56.4929Z" fill="#FF8331"/>
<path d="M50.7113 31.283C50.5925 31.3813 50.4648 31.4709 50.3562 31.5795C47.0737 34.8589 43.7911 38.1413 40.5115 41.4236C40.4308 41.5044 40.3677 41.6042 40.2958 41.6937C40.1359 41.8038 39.9612 41.8963 39.8189 42.027C37.9186 43.7592 36.0624 45.5413 34.1137 47.2162C32.4776 48.624 30.7358 49.9055 29.0453 51.2502C28.9015 51.3647 28.7988 51.5291 28.677 51.6715C28.4936 51.7654 28.2911 51.8344 28.1297 51.9577C26.8325 52.9413 25.5368 53.9277 24.2514 54.9274C23.7217 55.3399 23.2198 55.7891 22.7062 56.2221C21.9828 56.6317 21.2887 57.1117 20.5286 57.4376C19.186 58.0131 17.8169 58.1701 16.5593 57.1851C15.9533 56.711 15.5747 56.093 15.5703 55.2915C16.194 55.2137 16.8176 55.1359 17.4412 55.0581C17.7758 55.9902 18.4082 56.1487 19.1126 55.4691C19.5058 55.0889 19.8859 54.6969 20.2733 54.3109C21.9872 52.6051 23.7026 50.9008 25.418 49.1965C25.5441 49.173 25.6982 49.1891 25.7892 49.1216C26.9499 48.2408 28.1356 47.3865 29.2508 46.4499C31.5443 44.524 33.9171 42.6743 36.0477 40.5796C43.0648 33.6772 49.9908 26.6809 56.9448 19.7154C57.3278 19.3308 57.6579 18.8934 58.013 18.4809C58.512 18.8493 59.0006 19.2339 59.5142 19.5804C59.6771 19.6905 59.928 19.7903 60.0997 19.7463C60.7761 19.5716 61.3411 18.3121 61.0329 17.6647C60.7497 17.0702 60.4108 16.5006 60.0967 15.9208C60.6925 14.9915 61.3499 14.0931 61.8737 13.1243C62.964 11.1058 64.0337 9.06538 63.9853 6.66673C65.2766 6.64324 66.0895 7.1996 66.5342 8.40333C66.5664 8.48994 66.6222 8.56627 66.6677 8.64848V10.2897C66.0675 11.8809 65.5833 13.5309 64.8379 15.0503C63.6346 17.5047 62.044 19.7257 60.1275 21.6869C57.1458 24.7403 54.1333 27.7643 51.1354 30.8029C50.9857 30.9541 50.8537 31.123 50.7143 31.2844L50.7113 31.283Z" fill="#C3D2DA"/>
<path d="M63.9844 6.66602C64.0329 9.0632 62.9631 11.1051 61.8729 13.1236C61.349 14.0924 60.6931 14.9908 60.0959 15.92C58.9542 14.4286 57.5998 13.1911 55.8786 12.3881C55.0524 12.0021 54.3995 12.1723 53.701 13.0516C53.2578 13.6109 53.9064 13.9075 54.0869 14.3126C54.1559 14.4682 54.2806 14.6062 54.4009 14.7325C55.6012 15.9846 56.806 17.2324 58.0107 18.4802C57.6556 18.8927 57.3269 19.3301 56.9424 19.7147C49.9885 26.6802 43.0624 33.6765 36.0454 40.5789C33.9147 42.6737 31.542 44.5248 29.2484 46.4492C28.1332 47.3858 26.9491 48.2402 25.7869 49.1209C25.6959 49.1899 25.5404 49.1738 25.4156 49.1958C25.7678 48.8318 26.1214 48.4706 26.4707 48.1051C26.9329 47.6222 26.9828 47.0805 26.6057 46.7135C26.233 46.3509 25.69 46.4052 25.2146 46.8808C22.7567 49.3323 20.3003 51.7838 17.8601 54.2529C17.6561 54.4585 17.5769 54.7873 17.4389 55.0588C16.8153 55.1366 16.1916 55.2144 15.568 55.2923C15.2775 54.3322 15.612 53.4573 15.9965 52.6191C16.309 51.938 16.7316 51.3082 17.1058 50.6564C17.2452 50.5302 17.4052 50.4201 17.5196 50.2748C18.2489 49.3397 18.9767 48.4002 19.6899 47.4533C20.3898 46.5241 21.0736 45.5817 21.7648 44.6466C22.6702 43.5119 23.5623 42.3668 24.4838 41.2453C25.6049 39.8816 26.7231 38.5134 27.8941 37.1923C29.0548 35.8829 30.283 34.6322 31.4759 33.3521C31.5508 33.2714 31.5831 33.1525 31.6344 33.0512C31.7283 32.9866 31.8355 32.9337 31.9147 32.853C35.2075 29.5589 38.4989 26.2633 41.7887 22.9648C41.8944 22.8591 41.9692 22.7226 42.0573 22.6007C42.2172 22.4598 42.386 22.3277 42.5371 22.1765C44.7338 19.9819 46.8923 17.7477 49.1359 15.6015C50.8909 13.9222 52.6621 12.2355 54.5917 10.769C56.8089 9.08228 59.2492 7.70827 61.9756 6.96548C62.6227 6.78932 63.3124 6.7629 63.9815 6.66748L63.9844 6.66602Z" fill="#DFF2FB"/>
<path d="M28.5698 31.3103C21.7582 27.5509 14.9422 23.7973 8.14082 20.0188C7.71528 19.7824 7.32055 19.4052 7.04761 19.0015C6.44452 18.109 6.57365 17.1621 7.32495 16.3914C8.15696 15.5386 9.02125 14.7165 9.84592 13.8577C10.5488 13.1252 11.3397 12.9667 12.2965 13.272C15.8798 14.4141 19.4705 15.5327 23.0583 16.6586C23.2622 16.7232 23.4692 16.776 23.6731 16.8348C26.0884 17.5878 28.5038 18.3424 30.9191 19.0954C33.2199 19.8323 35.5193 20.5678 37.8202 21.3062C37.9493 21.3473 38.0741 21.4001 38.2003 21.4471C38.0653 21.6321 37.9537 21.8376 37.7938 21.9976C34.8737 24.9276 31.9463 27.8518 29.0232 30.7804C28.8589 30.9448 28.7209 31.1327 28.5698 31.3103Z" fill="#FF8331"/>
<path d="M22.7061 56.2226C23.2196 55.7895 23.7215 55.3403 24.2512 54.9278C25.5352 53.9267 26.8309 52.9417 28.1295 51.9581C28.2909 51.8348 28.4934 51.7658 28.6768 51.6719C29.7348 53.6037 30.8119 55.5282 31.8464 57.4733C32.9058 59.4653 32.6388 62.3043 30.379 63.8134C29.5485 64.3683 29.0906 64.3125 28.4391 63.489C26.9615 61.6202 25.4926 59.7457 24.0179 57.874C23.5835 57.3221 23.1433 56.7745 22.7061 56.224V56.2226Z" fill="#FF8331"/>
<path d="M28.5693 31.3085C28.7205 31.1309 28.8599 30.943 29.0228 30.7786C31.9458 27.85 34.8718 24.9258 37.7934 21.9958C37.9518 21.8358 38.0648 21.6303 38.1998 21.4453C39.4867 21.8299 40.7736 22.2145 42.0605 22.5991C41.971 22.721 41.8962 22.8575 41.792 22.9632C38.5036 26.2617 35.2122 29.5573 31.9179 32.8514C31.8387 32.9306 31.7316 32.9835 31.6377 33.0495C30.6149 32.4697 29.5936 31.8884 28.5708 31.3085H28.5693Z" fill="#FF6300"/>
<path d="M14.0414 48.1575C12.5798 47.0184 11.1066 45.8939 9.66415 44.7313C9.00969 44.2043 9.0185 43.667 9.54089 43.0108C11.2915 40.8089 14.5183 40.6665 16.5755 41.7616C17.434 42.2181 18.263 42.7319 19.1053 43.2207C18.3379 43.9679 17.569 44.7151 16.803 45.4638C15.8829 46.3622 14.9629 47.2606 14.0414 48.1575Z" fill="#FF8331"/>
<path d="M30.9178 19.0935C28.5025 18.3404 26.0872 17.5859 23.6719 16.8328C24.9324 15.4456 26.2486 14.1362 27.9346 13.2451C28.4555 12.9692 28.8048 12.9956 29.2098 13.4198C30.0843 14.3358 30.9824 15.2298 31.8951 16.1077C32.2546 16.4526 32.303 16.7829 32.0536 17.1925C31.6706 17.8237 31.2949 18.4593 30.9163 19.0935H30.9178Z" fill="#C3D2DA"/>
<path d="M14.0415 48.1575C14.9616 47.2591 15.8816 46.3607 16.8031 45.4637C17.5706 44.7151 18.338 43.9679 19.1055 43.2207C19.9932 43.6963 20.881 44.1705 21.7673 44.6461C21.0762 45.5827 20.3924 46.5236 19.6924 47.4528C18.9778 48.4011 18.2514 49.3392 17.5222 50.2743C17.4077 50.4196 17.2477 50.5297 17.1083 50.6559C16.2411 49.966 15.3724 49.279 14.5081 48.5861C14.3438 48.454 14.1956 48.3013 14.04 48.1575H14.0415Z" fill="#FF6300"/>
<path d="M56.4927 49.6657C55.7399 47.2494 54.9871 44.8317 54.2344 42.4154C54.8859 42.0279 55.536 41.6403 56.1875 41.2528C56.5558 41.0341 56.8654 41.0781 57.1765 41.3981C58.0731 42.32 58.9755 43.236 59.9044 44.1256C60.3285 44.5308 60.3505 44.8801 60.0775 45.4013C59.1912 47.0909 57.8779 48.4047 56.4927 49.6657Z" fill="#C3D2DA"/>
<path d="M58.0096 18.4807C56.8063 17.2315 55.6002 15.9837 54.3998 14.733C54.2795 14.6067 54.1548 14.4702 54.0858 14.3132C53.9053 13.9095 53.2568 13.6129 53.6999 13.0522C54.3984 12.1714 55.0514 12.0026 55.8775 12.3887C57.5987 13.1916 58.9516 14.4291 60.0947 15.9206C60.4087 16.5004 60.7462 17.07 61.0309 17.6645C61.3391 18.3104 60.7741 19.5714 60.0977 19.7461C59.926 19.7901 59.6751 19.6903 59.5122 19.5802C58.9986 19.2338 58.51 18.8506 58.0111 18.4807H58.0096Z" fill="#FFC19A"/>
<path d="M17.4404 55.0595C17.5784 54.788 17.6576 54.4591 17.8616 54.2536C20.3018 51.786 22.7597 49.333 25.2161 46.8815C25.6915 46.4074 26.2345 46.3516 26.6072 46.7142C26.9843 47.0812 26.9329 47.6229 26.4722 48.1058C26.1229 48.4713 25.7693 48.8325 25.4171 49.1965C23.7018 50.9008 21.9864 52.6051 20.2725 54.3109C19.8851 54.6969 19.505 55.0889 19.1118 55.4691C18.4074 56.1488 17.7765 55.9902 17.4404 55.0581V55.0595Z" fill="#FF6300"/>
</g>
<circle cx="56.6667" cy="56.6667" r="16.6667" fill="#D31313"/>
<g clip-path="url(#clip1_7576_161371)">
<path d="M56.667 44.166C49.7545 44.166 44.167 49.7535 44.167 56.666C44.167 63.5785 49.7545 69.166 56.667 69.166C63.5795 69.166 69.167 63.5785 69.167 56.666C69.167 49.7535 63.5795 44.166 56.667 44.166ZM56.667 66.666C51.1545 66.666 46.667 62.1785 46.667 56.666C46.667 51.1535 51.1545 46.666 56.667 46.666C62.1795 46.666 66.667 51.1535 66.667 56.666C66.667 62.1785 62.1795 66.666 56.667 66.666ZM61.1545 50.416L56.667 54.9035L52.1795 50.416L50.417 52.1785L54.9045 56.666L50.417 61.1535L52.1795 62.916L56.667 58.4285L61.1545 62.916L62.917 61.1535L58.4295 56.666L62.917 52.1785L61.1545 50.416Z" fill="white"/>
</g>
<defs>
<clipPath id="clip0_7576_161371">
<rect width="60" height="60" fill="white" transform="translate(6.66699 6.66602)"/>
</clipPath>
<clipPath id="clip1_7576_161371">
<rect width="30" height="30" fill="white" transform="translate(41.667 41.666)"/>
</clipPath>
</defs>
</svg>
