<svg width="64" height="64" viewBox="0 0 64 64" fill="none" xmlns="http://www.w3.org/2000/svg">
<path d="M32.0007 5.33398C17.254 5.33398 5.33398 17.254 5.33398 32.0007C5.33398 46.7473 17.254 58.6673 32.0007 58.6673C46.7473 58.6673 58.6673 46.7473 58.6673 32.0007C58.6673 17.254 46.7473 5.33398 32.0007 5.33398ZM32.0007 53.334C20.2407 53.334 10.6673 43.7607 10.6673 32.0007C10.6673 20.2407 20.2407 10.6673 32.0007 10.6673C43.7607 10.6673 53.334 20.2407 53.334 32.0007C53.334 43.7607 43.7607 53.334 32.0007 53.334ZM41.574 18.6673L32.0007 28.2407L22.4273 18.6673L18.6673 22.4273L28.2407 32.0007L18.6673 41.574L22.4273 45.334L32.0007 35.7607L41.574 45.334L45.334 41.574L35.7607 32.0007L45.334 22.4273L41.574 18.6673Z" fill="#D31313"/>
</svg>
