<svg width="65" height="64" viewBox="0 0 65 64" fill="none" xmlns="http://www.w3.org/2000/svg">
<path d="M55.4249 13.0156C55.1969 12.7533 54.8712 12.5961 54.5239 12.5816C54.3976 12.5816 41.9274 12.0768 33.7453 5.29015C33.2783 4.90328 32.6018 4.90328 32.1349 5.29015C23.9527 12.0944 11.4881 12.5816 11.3563 12.5816C11.0103 12.5935 10.6847 12.7471 10.4549 13.0059C10.2256 13.2651 10.1125 13.6071 10.1424 13.9521C10.1424 13.9521 11.3109 27.4399 11.8083 33.0216C12.3131 38.5209 13.2192 48.7503 32.3976 57.8789C32.7413 58.0404 33.1392 58.0404 33.4829 57.8789C52.6639 48.7503 53.5799 38.521 54.0723 33.0216C54.5771 27.4391 55.7381 13.9521 55.7381 13.9521C55.7654 13.6101 55.652 13.2721 55.4249 13.0156Z" fill="#FFEFE5"/>
<path d="M55.4249 13.0156C55.1969 12.7533 54.8712 12.5961 54.5239 12.5816C54.3976 12.5816 41.9274 12.0768 33.7453 5.29015C33.2783 4.90328 32.6018 4.90328 32.1349 5.29015C23.9527 12.0944 11.4881 12.5816 11.3563 12.5816C11.0103 12.5935 10.6847 12.7471 10.4549 13.0059C10.2256 13.2651 10.1125 13.6071 10.1424 13.9521C10.1424 13.9521 11.3109 27.4399 11.8083 33.0216C12.3131 38.5209 13.2192 48.7503 32.3976 57.8789C32.7413 58.0404 33.1392 58.0404 33.4829 57.8789C52.6639 48.7503 53.5799 38.521 54.0723 33.0216C54.5771 27.4391 55.7381 13.9521 55.7381 13.9521C55.7654 13.6101 55.652 13.2721 55.4249 13.0156ZM51.5585 32.8095C51.1144 37.7538 50.2967 46.9101 32.9397 55.3469C15.584 46.9098 14.7683 37.7534 14.321 32.8095C13.9169 28.2666 13.0592 18.524 12.7664 15.0267C20.0055 14.4788 26.9685 12.0141 32.9389 7.88444C38.91 12.014 45.8723 14.4791 53.1114 15.0272C52.8086 18.5252 51.9605 28.2738 51.5569 32.8099L51.5585 32.8095Z" fill="#FF6300"/>
<path d="M30.471 34.7867L39.2577 26L41.1377 27.8933L30.471 38.56L25.1377 33.2267L27.0177 31.3467L30.471 34.7867Z" fill="#5C0FD9"/>
</svg>
