<svg width="65" height="64" viewBox="0 0 65 64" fill="none" xmlns="http://www.w3.org/2000/svg">
<path d="M53.1541 52.2802H10.7541C9.3488 52.279 8.0015 51.7203 7.00774 50.7265C6.01398 49.7328 5.45517 48.3855 5.4541 46.9802V37.4401H6.51415C8.40776 37.4401 10.1572 36.4301 11.1039 34.7901C12.0507 33.1501 12.0507 31.13 11.1039 29.4901C10.1571 27.8501 8.40776 26.84 6.51415 26.84H5.4541V17.3C5.45524 15.8947 6.01401 14.5474 7.00774 13.5536C8.00147 12.5599 9.3488 12.0011 10.7541 12H53.1541C54.5594 12.0011 55.9067 12.5599 56.9005 13.5536C57.8942 14.5474 58.453 15.8947 58.4541 17.3V26.84H57.3941C55.5004 26.84 53.751 27.8501 52.8043 29.4901C51.8575 31.13 51.8575 33.1501 52.8043 34.7901C53.7511 36.4301 55.5004 37.4401 57.3941 37.4401H58.4541V46.9802C58.453 48.3855 57.8942 49.7328 56.9005 50.7265C55.9067 51.7203 54.5594 52.2791 53.1541 52.2802Z" fill="#FFEFE5"/>
<path d="M53.1541 52.2802H10.7541C9.3488 52.279 8.0015 51.7203 7.00774 50.7265C6.01398 49.7328 5.45517 48.3855 5.4541 46.9802V37.4401H6.51415C8.40776 37.4401 10.1572 36.4301 11.1039 34.7901C12.0507 33.1501 12.0507 31.13 11.1039 29.4901C10.1571 27.8501 8.40776 26.84 6.51415 26.84H5.4541V17.3C5.45524 15.8947 6.01401 14.5474 7.00774 13.5536C8.00147 12.5599 9.3488 12.0011 10.7541 12H53.1541C54.5594 12.0011 55.9067 12.5599 56.9005 13.5536C57.8942 14.5474 58.453 15.8947 58.4541 17.3V26.84H57.3941C55.5004 26.84 53.751 27.8501 52.8043 29.4901C51.8575 31.13 51.8575 33.1501 52.8043 34.7901C53.7511 36.4301 55.5004 37.4401 57.3941 37.4401H58.4541V46.9802C58.453 48.3855 57.8942 49.7328 56.9005 50.7265C55.9067 51.7203 54.5594 52.2791 53.1541 52.2802ZM7.5743 39.4836V46.9801C7.57543 47.8232 7.91085 48.6314 8.5071 49.2274C9.10297 49.8236 9.9112 50.159 10.7544 50.1602H53.1544C53.9975 50.159 54.8058 49.8236 55.4017 49.2274C55.9979 48.6315 56.3333 47.8233 56.3345 46.9801V39.4836C53.9605 39.1406 51.8987 37.671 50.8002 35.5385C49.7012 33.406 49.7012 30.8741 50.8002 28.7416C51.8988 26.6091 53.9605 25.1395 56.3345 24.7965V17.3C56.3333 16.4569 55.9979 15.6486 55.4017 15.0527C54.8058 14.4565 53.9976 14.121 53.1544 14.1199H10.7544C9.91128 14.121 9.10303 14.4565 8.5071 15.0527C7.91085 15.6486 7.57543 16.4568 7.5743 17.3V24.7965C9.94832 25.1395 12.0101 26.6091 13.1086 28.7416C14.2076 30.8741 14.2076 33.406 13.1086 35.5385C12.01 37.671 9.94832 39.1406 7.5743 39.4836Z" fill="#FF6300"/>
<path d="M33.4558 32.1414L39.7817 25.8155L38.2807 24.3145L31.9548 30.6403L25.6289 24.3145L24.1279 25.8155L30.4538 32.1414L24.1279 38.4673L25.6289 39.9683L31.9548 33.6424L38.2807 39.9683L39.7817 38.4673L33.4558 32.1414Z" fill="#5C0FD9"/>
</svg>
