<svg width="12" height="16" viewBox="0 0 12 16" fill="none" xmlns="http://www.w3.org/2000/svg">
<path d="M4.125 12.5H3V5.75H4.125V12.5ZM6.5625 12.5H5.4375V5.75H6.5625V12.5ZM9 12.5H7.875V5.75H9V12.5ZM9.75 3.5H8.25V1.25C8.25 0.8375 7.9125 0.5 7.5 0.5H4.5C4.0875 0.5 3.75 0.8375 3.75 1.25V3.5H2.25C1.425 3.5 0.75 4.175 0.75 5V13.25C0.75 14.075 1.425 14.75 2.25 14.75C2.25 15.1625 2.5875 15.5 3 15.5C3.4125 15.5 3.75 15.1625 3.75 14.75H8.25C8.25 15.1625 8.5875 15.5 9 15.5C9.4125 15.5 9.75 15.1625 9.75 14.75C10.575 14.75 11.25 14.075 11.25 13.25V5C11.25 4.175 10.575 3.5 9.75 3.5ZM4.875 1.625H7.125V3.5H4.875V1.625ZM9.75 13.25H2.25V5H9.75V13.25Z" fill="#666666"/>
</svg>
