<svg width="65" height="64" viewBox="0 0 65 64" fill="none" xmlns="http://www.w3.org/2000/svg">
<circle cx="32.4538" cy="32.0007" r="26.6667" fill="#FFEFE5"/>
<path fill-rule="evenodd" clip-rule="evenodd" d="M32.4538 8.47124C19.4588 8.47124 8.92436 19.0057 8.92436 32.0007C8.92436 44.9956 19.4588 55.5301 32.4538 55.5301C45.4487 55.5301 55.9832 44.9956 55.9832 32.0007C55.9832 19.0057 45.4487 8.47124 32.4538 8.47124ZM5.78711 32.0007C5.78711 17.2731 17.7262 5.33398 32.4538 5.33398C47.1814 5.33398 59.1204 17.2731 59.1204 32.0007C59.1204 46.7282 47.1814 58.6673 32.4538 58.6673C17.7262 58.6673 5.78711 46.7282 5.78711 32.0007Z" fill="#FF6300"/>
<path fill-rule="evenodd" clip-rule="evenodd" d="M22.1783 32.7251L24.0634 30.839L30.2469 37.019L55.7511 11.5147L57.6368 13.4004L30.2474 40.7897L22.1783 32.7251Z" fill="#5C0FD9"/>
</svg>
