<svg width="18" height="18" viewBox="0 0 18 18" fill="none" xmlns="http://www.w3.org/2000/svg">
<path d="M6.94005 8.15198H4.79695V6.76028C4.79695 6.3556 4.77319 6.10391 4.72568 6.00521C4.68156 5.90322 4.58145 5.85222 4.42534 5.85222C4.24887 5.85222 4.13688 5.91309 4.08937 6.03482C4.04186 6.15655 4.0181 6.41976 4.0181 6.82444V10.5356C4.0181 10.9239 4.04186 11.1772 4.08937 11.2957C4.13688 11.4141 4.24378 11.4733 4.41007 11.4733C4.56957 11.4733 4.67308 11.4141 4.72059 11.2957C4.77149 11.1772 4.79695 10.8992 4.79695 10.4616V9.45979H6.94005V9.7707C6.94005 10.5965 6.87896 11.1821 6.75679 11.5276C6.63801 11.8731 6.37161 12.1757 5.95758 12.4357C5.54695 12.6956 5.03959 12.8255 4.43552 12.8255C3.80769 12.8255 3.29016 12.7153 2.88292 12.4949C2.47568 12.2744 2.20588 11.9701 2.07353 11.5819C1.94118 11.1904 1.875 10.6031 1.875 9.82005V7.48574C1.875 6.90998 1.89536 6.47898 1.93609 6.19274C1.97681 5.90322 2.09729 5.62521 2.29751 5.35871C2.50113 5.09221 2.78111 4.88329 3.13744 4.73195C3.49717 4.57732 3.9095 4.5 4.37443 4.5C5.00566 4.5 5.52658 4.61844 5.93722 4.85533C6.34785 5.09221 6.61765 5.38832 6.74661 5.74365C6.87557 6.09569 6.94005 6.64513 6.94005 7.39198V8.15198Z" fill="#666666"/>
<path d="M12.6058 9.34628C12.6058 10.1491 12.5854 10.7182 12.5447 11.0538C12.5074 11.3861 12.3852 11.6905 12.1782 11.9668C11.9745 12.2432 11.698 12.4554 11.3484 12.6035C10.9989 12.7515 10.5916 12.8255 10.1267 12.8255C9.68552 12.8255 9.28846 12.7564 8.93552 12.6183C8.58597 12.4768 8.3043 12.2662 8.0905 11.9866C7.8767 11.7069 7.74943 11.4026 7.70871 11.0736C7.66799 10.7446 7.64762 10.1688 7.64762 9.34628V7.97925C7.64762 7.17648 7.66629 6.60894 7.70362 6.27664C7.74434 5.94105 7.86652 5.63508 8.07014 5.35871C8.27715 5.08234 8.55543 4.87013 8.90498 4.72208C9.25453 4.57403 9.66177 4.5 10.1267 4.5C10.5679 4.5 10.9632 4.57074 11.3128 4.71221C11.6657 4.85039 11.9491 5.05931 12.1629 5.33897C12.3767 5.61863 12.504 5.92296 12.5447 6.25196C12.5854 6.58097 12.6058 7.15674 12.6058 7.97925V9.34628ZM10.4627 6.7208C10.4627 6.34902 10.4406 6.11214 10.3965 6.01014C10.3558 5.90486 10.2692 5.85222 10.1369 5.85222C10.0249 5.85222 9.93835 5.89499 9.87726 5.98053C9.81957 6.06279 9.79072 6.30954 9.79072 6.7208V10.4517C9.79072 10.9156 9.80939 11.2019 9.84672 11.3105C9.88744 11.419 9.97907 11.4733 10.1216 11.4733C10.2675 11.4733 10.3609 11.4108 10.4016 11.2858C10.4423 11.1608 10.4627 10.863 10.4627 10.3925V6.7208Z" fill="#666666"/>
<path d="M16.0028 12.5919V13.5H12.9859V12.74C13.8795 11.3231 14.4101 10.4468 14.5775 10.1112C14.7472 9.77344 14.832 9.51024 14.832 9.3216C14.832 9.17684 14.806 9.06937 14.754 8.99918C14.7042 8.9268 14.6273 8.8906 14.5232 8.8906C14.4191 8.8906 14.3411 8.93009 14.289 9.00905C14.2393 9.08801 14.2144 9.24484 14.2144 9.47953V9.9862H12.9859V9.79209C12.9859 9.49378 13.0017 9.25909 13.0334 9.08801C13.065 8.91473 13.1431 8.74474 13.2675 8.57805C13.392 8.41135 13.5537 8.28523 13.7528 8.19969C13.9519 8.11415 14.1906 8.07138 14.4689 8.07138C15.0141 8.07138 15.4259 8.20298 15.7042 8.46619C15.9847 8.7272 16.125 9.0584 16.125 9.45979C16.125 9.76467 16.0458 10.0871 15.8874 10.4271C15.7313 10.767 15.2687 11.4887 14.4994 12.5919H16.0028Z" fill="#666666"/>
</svg>
