<svg width="41" height="20" viewBox="0 0 41 20" fill="none" xmlns="http://www.w3.org/2000/svg">
<g clip-path="url(#clip0_7576_161402)">
<path d="M9.98032 1.13867V15.7316H7.41443V15.0652C6.66187 15.6564 5.72759 15.9683 4.77082 15.9478C4.12336 15.9455 3.48308 15.812 2.88862 15.5555C2.29416 15.2989 1.75783 14.9246 1.312 14.4551C0.866171 13.9856 0.520083 13.4306 0.294618 12.8237C0.0691535 12.2167 -0.0310138 11.5704 0.000160255 10.9237C-0.0374007 10.2738 0.0580309 9.62311 0.280616 9.01138C0.503202 8.39965 0.84826 7.83976 1.29468 7.36598C1.7411 6.8922 2.27949 6.51449 2.87691 6.25595C3.47434 5.99741 4.11823 5.86349 4.7692 5.86237C5.70609 5.84456 6.62196 6.14101 7.37071 6.70444V1.13867H9.98032ZM7.45249 10.9229C7.4694 10.5927 7.41799 10.2626 7.30148 9.95313C7.18497 9.64371 7.00586 9.36166 6.77536 9.12462C6.54486 8.88759 6.26792 8.70066 5.96188 8.57555C5.65583 8.45043 5.32726 8.38981 4.99672 8.39749C4.67078 8.39677 4.34813 8.46262 4.04855 8.59102C3.74896 8.71942 3.47877 8.90766 3.25451 9.14419C3.03026 9.38073 2.85669 9.66057 2.74443 9.96657C2.63217 10.2726 2.58359 10.5983 2.60167 10.9237C2.5874 11.2461 2.63884 11.5681 2.75288 11.8701C2.86691 12.172 3.04116 12.4476 3.26503 12.6801C3.4889 12.9126 3.75771 13.0972 4.05513 13.2225C4.35254 13.3479 4.67235 13.4115 4.9951 13.4094C5.3225 13.4181 5.64821 13.3595 5.95206 13.2372C6.25591 13.115 6.53145 12.9317 6.76163 12.6987C6.99181 12.4657 7.17174 12.188 7.2903 11.8827C7.40885 11.5774 7.4635 11.251 7.45087 10.9237L7.45249 10.9229ZM12.5924 6.07612H15.1971V15.7308H12.5924V6.07612ZM26.7885 6.07612V15.4466C26.7979 16.0656 26.6792 16.6798 26.44 17.2508C26.2007 17.8217 25.8461 18.3371 25.3983 18.7646C24.9506 19.192 24.4193 19.5224 23.8379 19.7349C23.2565 19.9474 22.6374 20.0374 22.0195 19.9994C21.0368 20.0459 20.066 19.7688 19.2558 19.2108C18.4456 18.6527 17.8407 17.8444 17.5339 16.9097L19.9273 16.0142C20.0507 16.4637 20.3259 16.8566 20.706 17.1262C21.0862 17.3959 21.548 17.5256 22.013 17.4935C22.2983 17.5145 22.5847 17.4746 22.8534 17.3766C23.1221 17.2785 23.3668 17.1244 23.5715 16.9246C23.7761 16.7248 23.9359 16.4838 24.0404 16.2175C24.1448 15.9513 24.1915 15.6659 24.1773 15.3802V14.5932C23.4753 15.1486 22.6011 15.4408 21.7062 15.4191C21.0905 15.4191 20.4811 15.2948 19.9146 15.0535C19.3482 14.8122 18.8364 14.4589 18.4098 14.0148C17.9833 13.5708 17.651 13.0451 17.4327 12.4694C17.2144 11.8937 17.1147 11.2798 17.1395 10.6646C17.1118 10.049 17.2083 9.43418 17.4234 8.85675C17.6385 8.27932 17.9678 7.75115 18.3915 7.30377C18.8152 6.85639 19.3248 6.49897 19.8897 6.25285C20.4546 6.00673 21.0633 5.87696 21.6794 5.87127C22.5999 5.85416 23.4961 6.16725 24.2057 6.75383V6.08422H26.7869V6.07612H26.7885ZM24.255 10.6695C24.2632 10.3689 24.211 10.0697 24.1016 9.78968C23.9922 9.50961 23.8278 9.25431 23.6181 9.03883C23.4084 8.82335 23.1576 8.65206 22.8806 8.53509C22.6036 8.41812 22.306 8.35782 22.0054 8.35777C21.7047 8.35771 21.407 8.4179 21.13 8.53477C20.853 8.65165 20.6022 8.82284 20.3924 9.03825C20.1826 9.25365 20.0181 9.5089 19.9086 9.78893C19.7991 10.069 19.7468 10.3681 19.7548 10.6687C19.7706 11.255 20.0145 11.812 20.4348 12.2211C20.855 12.6303 21.4184 12.8592 22.0049 12.8592C22.5915 12.8592 23.1548 12.6303 23.5751 12.2211C23.9954 11.812 24.2393 11.255 24.255 10.6687V10.6695ZM29.3933 6.07612H31.9989V15.7308H29.3933V6.07612ZM37.5387 6.07612H40.5856V8.54728H37.5371V12.1245C37.5257 12.2769 37.5474 12.4299 37.6006 12.5732C37.6538 12.7165 37.7372 12.8466 37.8453 12.9547C37.9534 13.0628 38.0835 13.1462 38.2268 13.1994C38.37 13.2526 38.5231 13.2743 38.6755 13.2629H40.5848V15.734H38.129C37.709 15.7613 37.288 15.6996 36.8936 15.5529C36.4992 15.4062 36.1401 15.1779 35.84 14.8828C35.54 14.5878 35.3056 14.2327 35.1522 13.8408C34.9989 13.4489 34.93 13.029 34.9502 12.6087V8.54404H33.5713V7.20644L36.0967 4.08106H37.5379L37.5387 6.07612ZM13.8887 1.15648H26.7877V3.19365H13.8895L13.8887 1.15648Z" fill="black"/>
<path d="M31.9991 2.17238L30.0308 0H29.3936V4.35934H30.0243L31.9991 2.17238Z" fill="#FFBB00"/>
</g>
<defs>
<clipPath id="clip0_7576_161402">
<rect width="40.5854" height="20" fill="white"/>
</clipPath>
</defs>
</svg>
