<svg width="56" height="56" viewBox="0 0 56 56" fill="none" xmlns="http://www.w3.org/2000/svg">
<path d="M25.668 34.9994H30.3346V39.666H25.668V34.9994ZM25.668 16.3327H30.3346V30.3327H25.668V16.3327ZM27.978 4.66602C15.098 4.66602 4.66797 15.1193 4.66797 27.9994C4.66797 40.8794 15.098 51.3327 27.978 51.3327C40.8813 51.3327 51.3346 40.8794 51.3346 27.9994C51.3346 15.1193 40.8813 4.66602 27.978 4.66602ZM28.0013 46.666C17.688 46.666 9.33464 38.3127 9.33464 27.9994C9.33464 17.686 17.688 9.33268 28.0013 9.33268C38.3146 9.33268 46.668 17.686 46.668 27.9994C46.668 38.3127 38.3146 46.666 28.0013 46.666Z" fill="#D31313"/>
</svg>
