<svg width="65" height="64" viewBox="0 0 65 64" fill="none" xmlns="http://www.w3.org/2000/svg">
<circle cx="32.362" cy="32.0007" r="26.6667" fill="#FFEFE5"/>
<path fill-rule="evenodd" clip-rule="evenodd" d="M32.362 7.87367C19.037 7.87367 8.235 18.6757 8.235 32.0007C8.235 45.3256 19.037 56.1276 32.362 56.1276C45.6869 56.1276 56.489 45.3256 56.489 32.0007C56.489 18.6757 45.6869 7.87367 32.362 7.87367ZM5.69531 32.0007C5.69531 17.2731 17.6344 5.33398 32.362 5.33398C47.0896 5.33398 59.0286 17.2731 59.0286 32.0007C59.0286 46.7282 47.0896 58.6673 32.362 58.6673C17.6344 58.6673 5.69531 46.7282 5.69531 32.0007Z" fill="#FF6300"/>
<path fill-rule="evenodd" clip-rule="evenodd" d="M31.0293 16L33.696 16L33.696 33.2522L45.0579 40.1956L43.6674 42.471L31.0293 34.7478L31.0293 16Z" fill="#5C0FD9"/>
</svg>
