<svg width="65" height="64" viewBox="0 0 65 64" fill="none" xmlns="http://www.w3.org/2000/svg">
<path d="M19.5365 5.00955C18.9164 5.07757 18.4511 5.60831 18.4645 6.23228V7.09768H16.4327C14.2283 7.09768 12.4072 8.8999 12.4072 11.1043V53.9745C12.4072 56.179 14.2283 58 16.4327 58H48.1108C50.3153 58 52.1363 56.179 52.1363 53.9745V11.1043C52.1363 8.89979 50.3153 7.09768 48.1108 7.09768H46.079V6.23228C46.0874 5.88167 45.9425 5.54533 45.6822 5.31019C45.4219 5.07547 45.0725 4.96546 44.7249 5.00955C44.1118 5.08639 43.6566 5.61461 43.6713 6.23228V7.09768H39.7772V6.23228C39.7848 5.88544 39.6424 5.55247 39.3867 5.31817C39.1306 5.08387 38.7863 4.97133 38.4415 5.00955C37.8213 5.07757 37.3561 5.60831 37.3695 6.23228V7.09768H33.4754V6.23228C33.4829 5.88544 33.3406 5.55247 33.0849 5.31817C32.8287 5.08387 32.4844 4.97133 32.1397 5.00955C31.5195 5.07757 31.0542 5.60831 31.0677 6.23228V7.09768H27.1736V6.23228C27.1811 5.88544 27.0388 5.55247 26.7831 5.31817C26.5269 5.08387 26.1826 4.97133 25.8379 5.00955C25.2177 5.07757 24.7524 5.60831 24.7659 6.23228V7.09768H20.8718V6.23228C20.8793 5.88544 20.737 5.55247 20.4813 5.31817C20.2251 5.08387 19.8813 4.97133 19.5365 5.00955Z" fill="#FFEFE5"/>
<path d="M19.5365 5.00955C18.9164 5.07757 18.4511 5.60831 18.4645 6.23228V7.09768H16.4327C14.2283 7.09768 12.4072 8.8999 12.4072 11.1043V53.9745C12.4072 56.179 14.2283 58 16.4327 58H48.1108C50.3153 58 52.1363 56.179 52.1363 53.9745V11.1043C52.1363 8.89979 50.3153 7.09768 48.1108 7.09768H46.079V6.23228C46.0874 5.88167 45.9425 5.54533 45.6822 5.31019C45.4219 5.07547 45.0725 4.96546 44.7249 5.00955C44.1118 5.08639 43.6566 5.61461 43.6713 6.23228V7.09768H39.7772V6.23228C39.7848 5.88544 39.6424 5.55247 39.3867 5.31817C39.1306 5.08387 38.7863 4.97133 38.4415 5.00955C37.8213 5.07757 37.3561 5.60831 37.3695 6.23228V7.09768H33.4754V6.23228C33.4829 5.88544 33.3406 5.55247 33.0849 5.31817C32.8287 5.08387 32.4844 4.97133 32.1397 5.00955C31.5195 5.07757 31.0542 5.60831 31.0677 6.23228V7.09768H27.1736V6.23228C27.1811 5.88544 27.0388 5.55247 26.7831 5.31817C26.5269 5.08387 26.1826 4.97133 25.8379 5.00955C25.2177 5.07757 24.7524 5.60831 24.7659 6.23228V7.09768H20.8718V6.23228C20.8793 5.88544 20.737 5.55247 20.4813 5.31817C20.2251 5.08387 19.8813 4.97133 19.5365 5.00955ZM16.4327 9.50532H18.4645V9.86265C18.4599 10.1851 18.5846 10.4954 18.8109 10.7251C19.0373 10.9548 19.3459 11.0837 19.6684 11.0837C19.9908 11.0837 20.2995 10.9548 20.5258 10.7251C20.7521 10.4954 20.8768 10.1851 20.8722 9.86265V9.50532H24.7663V9.86265C24.7617 10.1851 24.8864 10.4954 25.1128 10.7251C25.3391 10.9548 25.6477 11.0837 25.9702 11.0837C26.2927 11.0837 26.6013 10.9548 26.8276 10.7251C27.0539 10.4954 27.1786 10.1851 27.174 9.86265V9.50532H31.0682V9.86265C31.0635 10.1851 31.1883 10.4954 31.4146 10.7251C31.6409 10.9548 31.9495 11.0837 32.272 11.0837C32.5945 11.0837 32.9031 10.9548 33.1294 10.7251C33.3558 10.4954 33.4805 10.1851 33.4759 9.86265V9.50532H37.37V9.86265C37.3654 10.1851 37.4901 10.4954 37.7164 10.7251C37.9427 10.9548 38.2514 11.0837 38.5738 11.0837C38.8963 11.0837 39.2049 10.9548 39.4313 10.7251C39.6576 10.4954 39.7823 10.1851 39.7777 9.86265V9.50532H43.6718V9.86265C43.6672 10.1851 43.7919 10.4954 44.0182 10.7251C44.2446 10.9548 44.5532 11.0837 44.8757 11.0837C45.1981 11.0837 45.5068 10.9548 45.7331 10.7251C45.9594 10.4954 46.0841 10.1851 46.0795 9.86265V9.50532H48.1113C49.0233 9.50532 49.7288 10.1918 49.7288 11.1043V53.9745C49.7288 54.887 49.0234 55.5924 48.1113 55.5924H16.4332C15.5212 55.5924 14.8158 54.887 14.8158 53.9745V11.1043C14.8158 10.1918 15.5207 9.50532 16.4327 9.50532Z" fill="#FF6300"/>
<path d="M21.9736 39.6947H41.9128V36.5625H21.9736V39.6947Z" fill="#5C0FD9"/>
<path d="M21.9736 47.9994H41.9128V44.8672H21.9736V47.9994Z" fill="#5C0FD9"/>
<path d="M26.8135 27.2612H30.376V30.8238H33.5083V27.2612H37.0708V24.129H33.5083V20.5664H30.376V24.129H26.8135V27.2612Z" fill="#5C0FD9"/>
</svg>
