<svg width="18" height="18" viewBox="0 0 18 18" fill="none" xmlns="http://www.w3.org/2000/svg">
<path d="M7.125 13.5H6V6.75H7.125V13.5ZM9.5625 13.5H8.4375V6.75H9.5625V13.5ZM12 13.5H10.875V6.75H12V13.5ZM12.75 4.5H11.25V2.25C11.25 1.8375 10.9125 1.5 10.5 1.5H7.5C7.0875 1.5 6.75 1.8375 6.75 2.25V4.5H5.25C4.425 4.5 3.75 5.175 3.75 6V14.25C3.75 15.075 4.425 15.75 5.25 15.75C5.25 16.1625 5.5875 16.5 6 16.5C6.4125 16.5 6.75 16.1625 6.75 15.75H11.25C11.25 16.1625 11.5875 16.5 12 16.5C12.4125 16.5 12.75 16.1625 12.75 15.75C13.575 15.75 14.25 15.075 14.25 14.25V6C14.25 5.175 13.575 4.5 12.75 4.5ZM7.875 2.625H10.125V4.5H7.875V2.625ZM12.75 14.25H5.25V6H12.75V14.25Z" fill="#666666"/>
</svg>
