<svg width="80" height="80" viewBox="0 0 80 80" fill="none" xmlns="http://www.w3.org/2000/svg">
<g clip-path="url(#clip0_7576_161378)">
<path d="M32.4494 73.3319C31.6592 72.2313 31.8774 70.9104 31.6899 69.6842C31.4281 67.9672 31.26 66.2354 31.0628 64.5086C30.9126 63.1862 30.78 61.8605 30.6427 60.5364C30.5538 59.6819 30.4681 58.8275 30.3809 57.973C30.5732 57.9632 30.7655 57.9453 30.9578 57.9453C40.6802 57.9453 50.4025 57.9453 60.1249 57.9453C60.3172 57.9453 60.5095 57.9632 60.7018 57.973C60.5305 59.3362 60.3495 60.6978 60.1927 62.0643C60.0021 63.7292 59.8421 65.3989 59.6497 67.0638C59.4089 69.1543 59.1504 71.2431 58.8983 73.3319H32.4494Z" fill="#DFDFDF"/>
<path d="M58.9014 73.3336C59.1519 71.2447 59.4121 69.1559 59.6528 67.0654C59.8452 65.4006 60.0035 63.7308 60.1959 62.0659C60.3526 60.7011 60.5336 59.3395 60.7049 57.9747C61.4806 57.9616 62.2564 57.9486 63.0321 57.9355C64.1116 57.9535 65.1928 57.9731 66.2723 57.991C66.0671 59.876 65.8618 61.761 65.655 63.646C65.4691 65.3386 65.2817 67.0312 65.0958 68.7238C64.9617 69.9451 64.8631 71.1714 64.6676 72.3829C64.6126 72.7237 64.2732 73.0172 64.0631 73.332H58.9014V73.3336Z" fill="#C5C5C5"/>
<path d="M26.1223 21.0126C25.5874 21.0044 25.0525 21.0028 24.5192 20.9881C23.7354 20.9669 23.3605 20.6359 23.3508 19.845C23.3281 17.8589 23.3281 15.8712 23.3524 13.8851C23.3621 13.1301 23.7386 12.8186 24.4917 12.7844C25.1672 12.7534 25.8411 12.7029 26.5151 12.6621C26.7591 12.7045 27.0047 12.7844 27.2488 12.7844C32.5576 12.7909 37.8664 12.7909 43.1753 12.7893C49.8384 12.7877 56.5015 12.7828 63.1646 12.7795C64.2797 12.7844 65.3948 12.7893 66.5099 12.7942L66.5196 20.9702C65.9572 20.9832 65.3965 20.9946 64.8341 21.0077C64.6838 21.0012 64.5335 20.9881 64.3848 20.9881C51.7809 20.9881 39.1771 20.9881 26.5732 20.9881C26.4229 20.9881 26.2743 21.0028 26.124 21.0093L26.1223 21.0126Z" fill="#494949"/>
<path d="M26.1227 21.0114C26.273 21.0033 26.4217 20.9902 26.572 20.9902C39.1758 20.9902 51.7796 20.9902 64.3835 20.9902C64.5338 20.9902 64.6841 21.0033 64.8328 21.0098C64.6905 22.5035 64.5564 23.9971 64.4029 25.4891C64.2542 26.9371 64.0877 28.3851 63.9294 29.8331C63.737 29.8413 63.5431 29.8576 63.3508 29.8576C51.395 29.8576 39.4376 29.8576 27.4818 29.8576C27.3315 29.8576 27.1812 29.8446 27.0309 29.838C26.8742 28.2596 26.719 26.6828 26.5574 25.1043C26.4168 23.7395 26.2665 22.3763 26.1211 21.0131L26.1227 21.0114Z" fill="#DFDFDF"/>
<path d="M63.1632 12.7792C56.5001 12.7825 49.837 12.7874 43.1739 12.789C37.865 12.7907 32.5562 12.7907 27.2474 12.7841C27.0033 12.7841 26.7577 12.7042 26.5137 12.6618C27.5674 10.8551 28.6227 9.04837 29.6731 7.24C29.9495 6.76711 30.3696 6.66602 30.8771 6.66602C34.6361 6.6758 38.3935 6.67091 42.1525 6.67091C47.8217 6.67091 53.4926 6.67091 59.1618 6.67091C59.3767 6.67091 59.59 6.68232 59.805 6.68884C60.4013 7.78137 60.9944 8.87715 61.5956 9.96804C62.1127 10.9073 62.6412 11.8416 63.1632 12.7776V12.7792Z" fill="#303030"/>
<path d="M63.0303 57.9346C63.1919 56.3529 63.3486 54.7712 63.5151 53.1911C63.6476 51.9307 63.7882 50.6702 63.9337 49.4113C64.1373 47.6617 64.3539 45.9153 64.5542 44.1656C64.7417 42.5219 64.9082 40.875 65.0956 39.2313C65.2928 37.5028 65.5126 35.7776 65.7049 34.0492C65.86 32.6615 65.9877 31.2689 66.1283 29.8796C67.2871 29.865 68.4442 29.8487 69.6029 29.834C69.8825 29.8389 70.1605 29.847 70.44 29.8503C71.3644 29.8633 71.7426 30.2302 71.6634 31.1711C71.5535 32.4838 71.3806 33.7915 71.2303 35.0993C70.9491 37.5452 70.6663 39.9912 70.3835 42.4371C70.0991 44.9043 69.813 47.3714 69.5318 49.8386C69.2959 51.898 69.0664 53.9592 68.832 56.0186C68.79 56.3839 68.7658 56.7524 68.6898 57.1112C68.5702 57.6786 68.1743 57.9346 67.6216 57.9591C67.1723 57.9787 66.7214 57.9819 66.2722 57.9917C65.1926 57.9721 64.1114 57.9542 63.0319 57.9363L63.0303 57.9346Z" fill="#FF6300"/>
<path d="M66.5175 20.9708C66.5143 18.2461 66.511 15.5197 66.5078 12.7949C67.4742 12.7949 68.4406 12.8014 69.4054 12.7835C69.6478 12.7786 69.8903 12.6954 70.1327 12.6465C70.7403 12.6905 71.3496 12.7606 71.9572 12.7753C73.0012 12.7998 73.3276 13.1112 73.3293 14.1728C73.3325 15.9664 73.3325 17.7585 73.3293 19.5522C73.3276 20.6578 73.0028 20.9872 71.933 20.992C71.4627 20.9937 70.9924 21.0067 70.5205 21.0132L66.5159 20.9692L66.5175 20.9708Z" fill="#313131"/>
<path d="M66.5177 20.9723L70.5223 21.0164C70.3171 22.859 70.1038 24.7016 69.9082 26.5442C69.7919 27.6384 69.7046 28.7358 69.6028 29.8315C68.444 29.8462 67.2869 29.8625 66.1282 29.8772C65.3945 29.8625 64.6624 29.8462 63.9287 29.8315C64.0871 28.3835 64.2535 26.9372 64.4022 25.4875C64.5541 23.9955 64.6899 22.5019 64.8321 21.0082C65.3945 20.9952 65.9553 20.9837 66.5177 20.9707V20.9723Z" fill="#C5C5C5"/>
<path d="M70.1331 12.6468C69.8907 12.6941 69.6499 12.7789 69.4058 12.7838C68.4394 12.8017 67.4746 12.7936 66.5082 12.7952C65.3931 12.7903 64.278 12.7854 63.1629 12.7805C62.6393 11.8446 62.1125 10.9102 61.5953 9.97096C60.9941 8.88007 60.401 7.78592 59.8047 6.69177C61.8862 6.68524 63.9677 6.65752 66.0476 6.69503C66.3514 6.69992 66.7732 6.93799 66.9316 7.19726C68.0289 8.99585 69.0713 10.827 70.1315 12.6485L70.1331 12.6468Z" fill="#232323"/>
<path d="M63.9287 29.832C63.7364 29.8402 63.5425 29.8565 63.3502 29.8565C51.3944 29.8565 39.4386 29.8565 27.4812 29.8565C27.3309 29.8565 27.1806 29.8434 27.0303 29.8369C26.7944 29.8434 26.5584 29.8549 26.3225 29.8565C25.2235 29.8679 24.8696 30.3017 25.0005 31.4023C25.4659 35.337 25.9201 39.2717 26.3726 43.2081C26.8962 47.7673 27.4117 52.3282 27.9353 56.8891C28.0129 57.5707 28.3426 57.8854 29.0294 57.9343C29.4787 57.9669 29.9296 57.962 30.3805 57.9734C30.5728 57.9637 30.7651 57.9457 30.9574 57.9457C40.6798 57.9457 50.4021 57.9457 60.1245 57.9457C60.3168 57.9457 60.5091 57.9637 60.7014 57.9734C61.4771 57.9604 62.2529 57.9474 63.0286 57.9343C63.1902 56.3526 63.3469 54.7709 63.5134 53.1908C63.6459 51.9303 63.7865 50.6699 63.932 49.411C64.1356 47.6613 64.3521 45.9149 64.5525 44.1653C64.74 42.5216 64.9065 40.8747 65.0939 39.231C65.2911 37.5025 65.5109 35.7773 65.7032 34.0488C65.8583 32.6612 65.986 31.2686 66.1266 29.8793C65.3929 29.8646 64.6608 29.8483 63.9271 29.8337L63.9287 29.832Z" fill="#FF8331"/>
</g>
<g clip-path="url(#clip1_7576_161378)">
<path d="M55.9199 73.3324H16.3485C16.3315 73.3078 16.3201 73.2682 16.2974 73.2597C14.9184 72.7613 14.4503 71.7456 14.4522 70.3316C14.473 58.0252 14.4644 45.7189 14.4644 33.4125C14.4644 33.2096 14.4739 33.0057 14.4786 32.8027C15.2996 32.882 15.9456 33.2757 16.5178 33.8562C17.2423 34.5915 18.0103 35.2844 18.748 36.0075C18.9438 36.2 19.0951 36.4379 19.2672 36.656C18.853 37.059 18.4359 37.4583 18.0244 37.8652C17.5355 38.3485 17.0418 38.828 16.5708 39.3283C16.2615 39.6558 16.2643 40.1675 16.5395 40.4299C16.8129 40.6904 17.2517 40.6602 17.596 40.3525C17.701 40.259 17.7965 40.1552 17.8968 40.057C18.731 39.2348 19.5652 38.4117 20.3994 37.5895C20.4561 37.6632 20.5043 37.7462 20.5696 37.8104C21.5542 38.7638 22.5425 39.7134 23.5262 40.6668C24.1514 41.2728 24.7718 41.8826 25.3951 42.4915C25.2579 42.6406 25.1255 42.7954 24.9818 42.9389C22.6995 45.2186 20.4164 47.4973 18.1332 49.7769C18.0339 49.876 17.8769 49.9638 17.8485 50.0809C17.7833 50.3499 17.6868 50.6737 17.7833 50.8983C17.857 51.072 18.2193 51.2372 18.4274 51.2108C18.6903 51.1778 18.9721 50.989 19.1708 50.7926C21.4974 48.4913 23.8099 46.1748 26.129 43.864C26.2822 43.712 26.4544 43.5789 26.618 43.4364C26.6587 43.5195 26.6795 43.6223 26.7429 43.6828C28.3365 45.2308 29.9349 46.7752 31.5324 48.3195C31.3839 48.4809 31.242 48.6489 31.0869 48.8028C27.1912 52.6928 23.2945 56.5819 19.3987 60.4719C19.2663 60.6041 19.1206 60.7334 19.0223 60.8901C18.8142 61.2214 18.8407 61.5584 19.1273 61.8312C19.4195 62.1088 19.7496 62.1031 20.0636 61.8539C20.1979 61.7472 20.3161 61.6188 20.4381 61.4971C24.3575 57.5863 28.276 53.6745 32.1963 49.7647C32.3401 49.6212 32.4981 49.4928 32.6494 49.3569C33.1573 49.8609 33.6623 50.3678 34.175 50.8681C35.3336 51.999 36.496 53.1261 37.6574 54.2551C33.389 58.5189 29.1206 62.7827 24.8522 67.0475C24.7302 67.1693 24.6044 67.2873 24.4909 67.4176C24.2393 67.7045 24.2138 68.0085 24.4654 68.3077C24.7169 68.6069 25.0272 68.7155 25.38 68.4946C25.5634 68.3795 25.7308 68.2313 25.885 68.0783C30.0021 63.9731 34.1173 59.8659 38.2315 55.7578C38.3866 55.603 38.5247 55.4331 38.6713 55.2698C39.2558 55.8069 39.8479 56.3365 40.4239 56.8811C41.5447 57.9403 42.656 59.0088 43.772 60.0727C43.6481 60.2133 43.5308 60.3606 43.3984 60.4927C40.7682 63.1207 38.1369 65.7458 35.5067 68.3728C35.3742 68.5059 35.2248 68.6324 35.1302 68.7901C34.9222 69.1346 34.925 69.4801 35.2466 69.7661C35.5596 70.0455 35.8802 69.9832 36.1839 69.7454C36.3068 69.6491 36.4127 69.5311 36.5234 69.4206C38.5219 67.4261 40.5194 65.4305 42.5198 63.4378C43.2755 62.6855 44.0397 61.9417 44.7992 61.1941C44.9609 61.3102 45.1397 61.4083 45.2825 61.5452C45.902 62.1371 46.513 62.7384 47.123 63.3406C48.0196 64.227 48.9125 65.1171 49.8072 66.0054C49.6965 66.1536 49.601 66.3179 49.4724 66.4481C48.6476 67.2826 47.8106 68.1048 46.9868 68.9402C46.652 69.28 46.6416 69.6179 46.9187 69.9389C47.1902 70.2523 47.5448 70.2891 47.9241 70.0229C48.0764 69.9162 48.2069 69.7775 48.3412 69.6462C49.2369 68.7731 50.1297 67.899 51.0244 67.0249C51.1029 67.1212 51.172 67.2278 51.2609 67.3137C52.5046 68.521 53.7408 69.7378 55.0015 70.9281C55.7052 71.5927 56.1223 72.3384 55.9227 73.3333L55.9199 73.3324Z" fill="#F68D3C"/>
<path d="M14.4786 32.8046C14.4181 31.5576 14.9071 30.6684 15.9087 30.2087C16.9273 29.7405 17.9374 29.9548 18.8577 30.8261C19.2313 31.1791 19.6162 31.5199 19.9964 31.8654C20.1232 32.0032 20.2424 32.1495 20.3767 32.2788C30.0503 41.5881 39.724 50.8965 49.4005 60.2029C51.2533 61.9851 53.1156 63.7578 54.9741 65.5353C55.726 66.2565 56.4789 66.9777 57.2308 67.6988C57.6394 68.1057 58.0442 68.5154 58.4556 68.9184C59.9594 70.3882 59.5007 72.5338 57.5297 73.2512C57.4909 73.2654 57.4606 73.3059 57.4275 73.3343H55.9199C56.1195 72.3393 55.7024 71.5927 54.9987 70.9291C53.7379 69.7387 52.5018 68.5229 51.258 67.3147C51.1691 67.2288 51.1001 67.123 51.0216 67.0258C51.0821 66.9352 51.1464 66.8474 51.2013 66.7539C51.4595 66.315 51.4188 66.0158 51.0679 65.7269C50.7218 65.4419 50.4153 65.5315 50.1155 65.8119C50.0276 65.894 49.9093 65.9431 49.8043 66.0073C48.9096 65.119 48.0168 64.2289 47.1202 63.3425C46.5101 62.7403 45.8991 62.139 45.2796 61.5471C45.1368 61.4112 44.9581 61.312 44.7963 61.1959C45.0706 60.8561 45.2238 60.4936 44.9221 60.0991C44.7046 59.8149 44.2203 59.8178 43.7701 60.0745C42.655 59.0097 41.5428 57.9421 40.422 56.883C39.8451 56.3374 39.2539 55.8078 38.6694 55.2717C38.694 54.3891 38.5294 54.2248 37.6555 54.2588C36.4941 53.1298 35.3317 52.0028 34.1731 50.8719C33.6605 50.3716 33.1563 49.8647 32.6475 49.3606C32.8452 48.5526 32.5794 48.1552 31.8918 48.2373C31.7698 48.2515 31.6506 48.294 31.5305 48.3232C29.933 46.7789 28.3346 45.2346 26.741 43.6865C26.6785 43.6261 26.6568 43.5232 26.6161 43.4392C26.6993 43.3269 26.792 43.2202 26.863 43.1003C27.0692 42.7492 27.0512 42.4037 26.7466 42.1262C26.4317 41.8392 26.094 41.8836 25.781 42.1564C25.6523 42.2687 25.5237 42.381 25.396 42.4943C24.7737 41.8864 24.1523 41.2757 23.5271 40.6696C22.5425 39.7162 21.5551 38.7666 20.5706 37.8132C20.5043 37.749 20.4561 37.666 20.4003 37.5924C20.4088 36.5889 20.057 36.2991 19.2682 36.6597C19.096 36.4426 18.9447 36.2038 18.7489 36.0112C18.0122 35.2872 17.2432 34.5953 16.5187 33.86C15.9475 33.2794 15.3005 32.8858 14.4796 32.8065L14.4786 32.8046Z" fill="#E7782D"/>
<path d="M37.6556 54.256C38.5295 54.222 38.6941 54.3872 38.6695 55.2689C38.5229 55.4322 38.3838 55.6021 38.2297 55.7569C34.1154 59.865 30.0012 63.9731 25.8832 68.0774C25.729 68.2313 25.5616 68.3785 25.3781 68.4937C25.0253 68.7146 24.7151 68.606 24.4635 68.3068C24.2119 68.0076 24.2375 67.7036 24.4891 67.4166C24.6025 67.2873 24.7283 67.1684 24.8503 67.0466C29.1188 62.7828 33.3872 58.5189 37.6556 54.2541V54.256Z" fill="#CE641C"/>
<path d="M31.5302 48.3211C31.6503 48.2918 31.7695 48.2503 31.8915 48.2352C32.5791 48.1531 32.8449 48.5505 32.6472 49.3585C32.4959 49.4944 32.3379 49.6228 32.1942 49.7663C28.2738 53.6762 24.3553 57.5879 20.4359 61.4987C20.3139 61.6205 20.1957 61.7489 20.0614 61.8555C19.7474 62.1047 19.4164 62.1104 19.1251 61.8329C18.8385 61.5601 18.812 61.2231 19.0201 60.8918C19.1184 60.7351 19.2641 60.6067 19.3965 60.4736C23.2923 56.5835 27.1899 52.6944 31.0847 48.8044C31.2398 48.6496 31.3817 48.4825 31.5302 48.3211Z" fill="#CE631B"/>
<path d="M43.7697 60.0735C44.2199 59.8167 44.7042 59.8139 44.9217 60.098C45.2244 60.4926 45.0711 60.856 44.7959 61.1949C44.0355 61.9425 43.2722 62.6863 42.5165 63.4387C40.5162 65.4313 38.5186 67.4269 36.5201 69.4214C36.4095 69.5319 36.3036 69.6499 36.1806 69.7462C35.877 69.984 35.5554 70.0463 35.2433 69.7669C34.9217 69.4809 34.9198 69.1354 35.127 68.7909C35.2225 68.6332 35.371 68.5058 35.5034 68.3736C38.1337 65.7466 40.7658 63.1205 43.3952 60.4935C43.5276 60.3614 43.6449 60.2141 43.7688 60.0735H43.7697Z" fill="#CE631B"/>
<path d="M25.3947 42.4916C25.5233 42.3793 25.651 42.266 25.7796 42.1537C26.0936 41.8809 26.4304 41.8365 26.7453 42.1235C27.0499 42.401 27.0688 42.7465 26.8616 43.0976C26.7916 43.2175 26.698 43.3242 26.6148 43.4365C26.4512 43.5781 26.279 43.7112 26.1258 43.8641C23.8076 46.174 21.4952 48.4904 19.1675 50.7928C18.9689 50.9891 18.6871 51.1779 18.4241 51.2109C18.2151 51.2374 17.8538 51.0722 17.78 50.8985C17.6836 50.6738 17.78 50.35 17.8453 50.081C17.8737 49.964 18.0307 49.8762 18.13 49.7771C20.4132 47.4984 22.6963 45.2196 24.9785 42.939C25.1223 42.7956 25.2547 42.6408 25.3919 42.4916H25.3947Z" fill="#CE631C"/>
<path d="M49.8046 66.0069C49.9096 65.9427 50.0278 65.8937 50.1157 65.8115C50.4156 65.5321 50.722 65.4424 51.0682 65.7266C51.4191 66.0145 51.4597 66.3147 51.2015 66.7536C51.1467 66.8471 51.0814 66.9348 51.0218 67.0255C50.128 67.8996 49.2343 68.7746 48.3386 69.6468C48.2043 69.778 48.0738 69.9158 47.9215 70.0235C47.5422 70.2906 47.1875 70.2538 46.9161 69.9394C46.639 69.6185 46.6494 69.2815 46.9842 68.9407C47.808 68.1053 48.645 67.2832 49.4698 66.4487C49.5984 66.3184 49.6939 66.1542 49.8046 66.006V66.0069Z" fill="#CE631B"/>
<path d="M19.2664 36.6584C20.0552 36.2978 20.407 36.5876 20.3985 37.591C19.5643 38.4132 18.7301 39.2363 17.8959 40.0585C17.7956 40.1576 17.7001 40.2605 17.5951 40.354C17.2509 40.6617 16.812 40.6919 16.5387 40.4314C16.2634 40.169 16.2606 39.6573 16.5699 39.3298C17.0418 38.8304 17.5355 38.3509 18.0236 37.8666C18.4341 37.4607 18.8512 37.0605 19.2664 36.6574V36.6584Z" fill="#CE631B"/>
<path d="M24.9102 29.8913C25.1003 26.1532 29.1445 23.9755 32.3725 25.8757C32.7499 26.0976 33.1112 26.3477 33.4772 26.5903C34.3871 27.1935 35.3499 27.2681 36.3411 26.8376C36.9285 26.5827 37.4874 26.2599 38.0729 26.0003C38.542 25.7917 39.0234 25.6029 39.5152 25.4557C40.1631 25.2622 40.7599 25.4368 41.2773 25.8502C41.5705 26.0843 41.8485 26.3411 42.1058 26.613C42.8804 27.4323 43.795 27.6343 44.8496 27.2728C45.4256 27.0755 46.0006 26.8763 46.5756 26.6781C46.9095 26.8074 47.2642 26.899 47.5735 27.0727C49.0319 27.8911 49.5228 29.256 49.5994 30.8164C49.64 31.6499 49.903 32.3815 50.4345 33.012C50.9188 33.586 51.4219 34.1448 51.9308 34.697C52.8236 35.6655 53.2086 36.8086 53.0667 38.1056C52.9787 38.9127 52.8179 39.7132 52.6685 40.5127C52.4283 41.8012 52.5153 43.0453 53.1972 44.1913C53.6938 45.0248 54.247 45.8243 54.7644 46.6456C55.3527 47.5791 55.9438 48.5306 55.8105 49.6936C55.7433 50.277 55.5608 50.8547 55.3659 51.4125C54.9999 52.4594 55.1493 53.4251 55.7603 54.3199C56.1926 54.9533 56.6711 55.5546 57.1336 56.1672C57.7352 56.9639 58.1334 57.8305 58.0813 58.8556C57.581 58.6961 57.0816 58.5356 56.5813 58.3761C56.0242 58.377 55.4615 58.428 54.9119 58.3648C54.4022 58.3053 53.9066 58.1231 53.4043 57.9957C53.3883 57.4803 53.3835 56.9649 53.3533 56.4504C53.2076 53.9895 53.0364 51.5305 52.9125 49.0696C52.8217 47.278 51.5042 46.0216 49.6968 46.0745C48.5552 46.0065 47.4146 45.9404 46.273 45.8687C45.5078 45.8206 44.7436 45.763 43.9794 45.7092C45.1749 42.2364 44.6935 39.0184 42.4406 36.1101C41.2962 34.6319 39.8255 33.5605 38.018 32.9903C37.9641 32.962 37.914 32.9233 37.8563 32.9063C34.7351 31.9718 31.8088 32.3664 29.0934 34.191C29.0783 33.7861 29.0717 33.3802 29.0471 32.9752C28.9336 31.1128 27.7239 29.9168 25.9411 29.8989C25.5978 29.8951 25.2544 29.8941 24.9111 29.8923L24.9102 29.8913Z" fill="#80CE00"/>
<path d="M53.4037 57.9944C53.9059 58.1228 54.4015 58.304 54.9113 58.3635C55.4608 58.4277 56.0236 58.3757 56.5807 58.3748C56.6422 59.0431 56.6932 59.7133 56.7698 60.3807C56.8219 60.8281 56.8521 61.2926 56.9978 61.7126C57.291 62.5575 57.1444 63.306 56.5759 63.9489C56.0794 64.5105 55.5091 65.008 54.9719 65.5347C53.1143 63.7572 51.252 61.9845 49.3983 60.2023C39.7236 50.8968 30.049 41.5875 20.3763 32.2791C20.242 32.1498 20.1228 32.0045 19.9961 31.8657C20.5882 31.2361 21.1386 30.5574 21.7884 29.9919C22.2566 29.5842 22.8846 29.6502 23.4899 29.7654C23.9552 29.8541 24.4366 29.8522 24.9114 29.8909C25.2548 29.8928 25.5981 29.8938 25.9414 29.8975C27.7242 29.9164 28.9339 31.1115 29.0474 32.9739C29.072 33.3789 29.0786 33.7838 29.0938 34.1897C29.2139 35.8511 30.4151 37.0074 32.0664 37.0386C32.5989 37.049 33.1333 37.0131 33.6658 37.0282C35.3067 37.0744 36.5202 38.2742 36.6053 39.9176C36.6328 40.4491 36.6356 40.9824 36.6923 41.511C36.8371 42.8722 37.8377 43.9276 39.2053 44.0965C39.805 44.1702 40.4226 44.0965 41.0317 44.0899C42.3303 44.122 43.2836 44.728 43.9429 45.8268C44.0393 46.6452 44.1812 47.4627 44.2238 48.2839C44.3108 49.9972 45.529 51.2234 47.2371 51.247C47.5974 51.2517 47.9587 51.2583 48.3181 51.2328C49.3084 51.1611 50.1748 51.4386 50.9125 52.105C51.5008 52.78 51.7845 53.5653 51.776 54.4602C51.7732 54.7557 51.7741 55.0521 51.7921 55.3475C51.8611 56.5124 52.3189 57.4459 53.4056 57.9953L53.4037 57.9944Z" fill="#D0F19B"/>
<path d="M58.0809 58.854C58.1329 57.8288 57.7347 56.9623 57.1332 56.1656C56.6707 55.553 56.1921 54.9517 55.7599 54.3183C55.1489 53.4234 54.9995 52.4577 55.3655 51.4109C55.5603 50.853 55.7429 50.2744 55.81 49.692C55.9443 48.529 55.3532 47.5775 54.7639 46.6439C54.2466 45.8227 53.6933 45.0231 53.1968 44.1896C52.5148 43.0446 52.4278 41.7995 52.6681 40.511C52.8175 39.7115 52.9783 38.911 53.0662 38.104C53.2072 36.807 52.8232 35.6638 51.9303 34.6953C51.4215 34.1431 50.9183 33.5843 50.4341 33.0104C49.9025 32.3798 49.6396 31.6492 49.5989 30.8147C49.5223 29.2544 49.0314 27.8894 47.573 27.071C47.2637 26.8973 46.9091 26.8058 46.5752 26.6764C48.656 25.7702 52.3805 26.6944 52.6085 30.1294C52.6964 31.4632 53.1287 32.5875 54.1047 33.5069C54.3781 33.7646 54.6117 34.0629 54.8746 34.3329C55.9765 35.4637 56.2224 36.8287 55.9812 38.3286C55.845 39.1763 55.6823 40.0211 55.5726 40.8716C55.4449 41.8656 55.6814 42.8058 56.1827 43.661C56.6489 44.4558 57.1757 45.2157 57.6713 45.9935C58.2464 46.896 58.8214 47.8154 58.7288 48.9368C58.6834 49.4862 58.5263 50.0431 58.3258 50.5594C57.9087 51.6346 58.0629 52.6116 58.7023 53.5348C59.0049 53.9718 59.3416 54.3862 59.6509 54.8186C59.9328 55.2131 60.2307 55.6002 60.4643 56.0231C61.3467 57.6155 60.8303 59.3694 59.231 60.2822C58.8479 59.8055 58.4639 59.3297 58.0809 58.853V58.854Z" fill="#6DB001"/>
<path d="M58.0806 58.8545C58.4636 59.3312 58.8476 59.807 59.2307 60.2837C59.4681 61.5212 59.2676 62.8088 59.714 64.0312C59.9372 64.64 59.7291 65.2763 59.2978 65.7369C58.6499 66.4298 57.9226 67.0481 57.2293 67.6984C56.4774 66.9773 55.7246 66.2561 54.9727 65.5349C55.5099 65.0091 56.0802 64.5116 56.5767 63.9491C57.1452 63.3062 57.2908 62.5577 56.9986 61.7128C56.8529 61.2928 56.8226 60.8283 56.7706 60.3809C56.6931 59.7145 56.6429 59.0443 56.5815 58.375C57.0818 58.5345 57.5812 58.695 58.0815 58.8545H58.0806Z" fill="#BDDA82"/>
<path d="M41.0307 44.0894C40.4216 44.0961 39.804 44.1697 39.2043 44.0961C37.8367 43.9271 36.8361 42.8708 36.6913 41.5106C36.6355 40.9819 36.6327 40.4486 36.6043 39.9172C36.5192 38.2737 35.3057 37.074 33.6648 37.0277C33.1323 37.0126 32.5979 37.0485 32.0654 37.0381C30.415 37.007 29.2129 35.8506 29.0928 34.1892C31.8082 32.3646 34.7345 31.97 37.8556 32.9045C37.9124 32.9215 37.9635 32.9602 38.0174 32.9885C38.1659 33.1849 38.2879 33.4086 38.4666 33.5728C39.8163 34.816 40.7451 36.3169 41.2028 38.0878C41.4837 39.1762 41.7164 40.2834 41.5187 41.4209C41.3636 42.312 41.1943 43.2002 41.0307 44.0894Z" fill="#F62D2C"/>
<path d="M50.911 52.1033C50.1733 51.4368 49.3069 51.1593 48.3167 51.2311C47.9582 51.2565 47.596 51.2509 47.2356 51.2452C45.5275 51.2216 44.3093 49.9954 44.2223 48.2821C44.1807 47.4609 44.0388 46.6444 43.9414 45.825C43.9537 45.7854 43.966 45.7457 43.9783 45.707C44.7425 45.7608 45.5067 45.8175 46.2719 45.8666C47.4125 45.9383 48.5541 46.0044 49.6957 46.0723C50.1988 46.6246 50.6471 47.2277 50.7039 47.9895C50.807 49.3583 50.8448 50.7317 50.9101 52.1033H50.911Z" fill="#FEC043"/>
<path d="M43.979 45.7071C43.9667 45.7468 43.9544 45.7864 43.9421 45.8251C43.2829 44.7264 42.3285 44.1203 41.0309 44.0892C41.1945 43.2 41.3638 42.3117 41.5189 41.4206C41.7166 40.2832 41.4839 39.1759 41.203 38.0875C40.7453 36.3167 39.8165 34.8158 38.4668 33.5726C38.289 33.4083 38.1661 33.1846 38.0176 32.9883C39.8241 33.5584 41.2948 34.6298 42.4402 36.1081C44.6921 39.0164 45.1745 42.2353 43.979 45.7071Z" fill="#E22A29"/>
<path d="M50.9107 52.1029C50.8454 50.7313 50.8067 49.3579 50.7045 47.9891C50.6478 47.2274 50.1995 46.6242 49.6963 46.072C51.5037 46.0182 52.8222 47.2746 52.912 49.0671C53.0359 51.529 53.2081 53.988 53.3528 56.4479C53.383 56.9624 53.3868 57.4778 53.4038 57.9932C52.3181 57.4438 51.8603 56.5102 51.7903 55.3454C51.7723 55.0499 51.7714 54.7535 51.7742 54.4581C51.7827 53.5641 51.499 52.7788 50.9107 52.1029Z" fill="#ECB901"/>
</g>
<defs>
<clipPath id="clip0_7576_161378">
<rect width="50" height="66.6667" fill="white" transform="translate(23.333 6.66602)"/>
</clipPath>
<clipPath id="clip1_7576_161378">
<rect width="48.3333" height="48.3333" fill="white" transform="translate(13.333 25)"/>
</clipPath>
</defs>
</svg>
