<svg width="32" height="32" viewBox="0 0 32 32" fill="none" xmlns="http://www.w3.org/2000/svg">
<path fill-rule="evenodd" clip-rule="evenodd" d="M26.6654 6.3707C26.6654 5.90378 26.2371 5.33366 25.4673 5.33366L23.3839 5.33366C22.2663 8.19235 19.4064 10.1485 16.1919 10.1485C12.9774 10.1485 10.1175 8.19234 8.99997 5.33366L6.5301 5.33366C5.76033 5.33366 5.33203 5.90378 5.33203 6.37069L5.33203 25.63C5.33203 26.0969 5.76033 26.667 6.5301 26.667L25.4673 26.667C26.2371 26.667 26.6654 26.0969 26.6654 25.63L26.6654 6.3707ZM6.5301 2.66699C4.39567 2.66699 2.66537 4.3252 2.66537 6.37069L2.66537 25.63C2.66537 27.6755 4.39567 29.3337 6.5301 29.3337L25.4673 29.3337C27.6017 29.3337 29.332 27.6755 29.332 25.63L29.332 6.3707C29.332 4.3252 27.6017 2.66699 25.4673 2.66699L21.2161 2.66699C21.2161 5.32614 18.9667 7.48181 16.1919 7.48181C13.4172 7.48181 11.1678 5.32614 11.1678 2.66699L6.5301 2.66699Z" fill="#FF6300"/>
<path d="M13.862 23.6873H15.0842L18.1398 18.7984H21.5009C22.0081 18.7984 22.4175 18.3889 22.4175 17.8817C22.4175 17.3745 22.0081 16.9651 21.5009 16.9651L18.1398 16.9651L15.0842 12.0762L13.862 12.0762L15.3898 16.9651H12.0286L11.112 15.7428L10.1953 15.7428L10.8064 17.8817L10.1953 20.0206L11.112 20.0206L12.0286 18.7984L15.3898 18.7984L13.862 23.6873Z" fill="#FF6300"/>
</svg>
