<svg width="120" height="120" viewBox="0 0 120 120" fill="none" xmlns="http://www.w3.org/2000/svg">
<circle cx="60" cy="60" r="50" fill="#FFEFE5"/>
<path d="M41.5234 89.9984C41.0743 89.7464 40.9822 89.3644 41.0381 88.8963C41.5168 84.8823 41.9889 80.8682 42.4577 76.8542C42.9282 72.8401 43.392 68.8245 43.8609 64.8105C44.3363 60.737 44.8133 56.665 45.2887 52.5931C45.7575 48.579 46.2247 44.5634 46.6918 40.5494C47.0685 37.3103 47.4403 34.0712 47.8187 30.8321C47.8894 30.2262 48.1411 30.0023 48.7777 30.0023C55.9185 29.9992 63.0576 29.9992 70.1984 30.0023C70.8597 30.0023 71.0637 30.184 71.1492 30.8963C71.4617 33.4935 71.7578 36.0939 72.0605 38.6926C72.531 42.727 73.0014 46.7614 73.4719 50.7942C73.9029 54.4795 74.3355 58.1632 74.7681 61.8485C75.2452 65.9205 75.7222 69.994 76.1976 74.066C76.6648 78.0612 77.1303 82.0565 77.5975 86.0517C77.7093 87.002 77.8031 87.9538 77.9446 88.901C78.0153 89.3753 77.9396 89.7511 77.479 90H41.5234V89.9984ZM57.2739 41.1912C57.2739 42.2057 57.2673 43.2186 57.2756 44.2331C57.2805 44.875 57.5272 45.1082 58.2066 45.1145C59.0669 45.1239 59.9272 45.1239 60.7876 45.1145C61.4702 45.1082 61.7219 44.8765 61.7235 44.2378C61.7301 42.2104 61.7301 40.183 61.7235 38.1557C61.7219 37.5169 61.4686 37.2805 60.7925 37.2727C59.9322 37.2633 59.0719 37.2633 58.2115 37.2727C57.5305 37.2805 57.2805 37.5138 57.2756 38.151C57.2673 39.1654 57.2739 40.1783 57.2739 41.1928V41.1912ZM61.7268 53.7406C61.7268 52.7261 61.7334 51.7132 61.7252 50.6988C61.7203 50.0804 61.4768 49.8314 60.8517 49.8221C59.9503 49.808 59.0488 49.8095 58.1474 49.8221C57.542 49.8314 57.2805 50.0741 57.2789 50.6424C57.2706 52.7089 57.2706 54.7754 57.2789 56.8419C57.2821 57.4102 57.542 57.6482 58.1507 57.656C59.0307 57.667 59.9124 57.6654 60.7925 57.656C61.4785 57.6497 61.7203 57.4243 61.7252 56.7793C61.7334 55.7664 61.7268 54.7519 61.7268 53.7375V53.7406ZM61.7268 66.243C61.7268 65.2097 61.7268 64.1765 61.7268 63.1432C61.7268 62.6188 61.4505 62.3448 60.8994 62.3417C59.9782 62.337 59.0554 62.3307 58.1342 62.3417C57.5322 62.3495 57.2805 62.589 57.2789 63.1698C57.2706 65.216 57.2706 67.2637 57.2789 69.3099C57.2805 69.922 57.5322 70.1662 58.1655 70.1756C59.0455 70.1881 59.9272 70.1866 60.8073 70.1756C61.4768 70.1678 61.7219 69.9282 61.7268 69.2817C61.7351 68.2688 61.7285 67.2543 61.7268 66.2398V66.243ZM57.2739 78.7485C57.2739 79.7817 57.2673 80.815 57.2756 81.8482C57.2805 82.4666 57.524 82.7171 58.149 82.7265C59.0505 82.7406 59.9519 82.7406 60.8534 82.7265C61.4554 82.7171 61.7203 82.4698 61.7235 81.903C61.7318 79.8365 61.7334 77.77 61.7235 75.7035C61.7203 75.1368 61.4571 74.8957 60.8501 74.8863C59.97 74.8738 59.0883 74.8769 58.2083 74.8863C57.5272 74.8926 57.2821 75.1243 57.2772 75.7661C57.269 76.7603 57.2756 77.7544 57.2756 78.7485H57.2739Z" fill="#FF8331"/>
<path d="M85.4803 89.9992C85.3158 89.6407 85.0493 89.2915 85.0033 88.9205C84.5015 84.8501 84.0311 80.7766 83.5573 76.7031C83.0869 72.6687 82.623 68.6327 82.1525 64.5983C81.6804 60.5451 81.2018 56.4904 80.7297 52.4372C80.2608 48.4216 79.7953 44.406 79.3265 40.392C78.9745 37.3658 78.6241 34.3396 78.2622 31.315C78.1602 30.4665 78.3329 30.0547 78.8709 30.0062C79.3709 29.9608 79.6325 30.2755 79.7312 31.1177C80.2608 35.5983 80.779 40.0789 81.3037 44.5594C81.8203 48.9617 82.3434 53.364 82.8566 57.7679C83.4109 62.5209 83.9538 67.2738 84.5081 72.0252C85.0625 76.7766 85.6267 81.528 86.1843 86.281C86.283 87.1154 86.3538 87.953 86.4755 88.7827C86.5462 89.2587 86.4591 89.661 86.0972 90.0007H85.4819L85.4803 89.9992Z" fill="#FFC19A"/>
<path d="M32.9034 89.9979C32.5432 89.7083 32.4609 89.3513 32.5152 88.9052C32.9643 85.1635 33.392 81.4188 33.8279 77.6756C34.2572 73.9903 34.6882 70.305 35.1192 66.6198C35.5946 62.5462 36.0716 58.4743 36.547 54.4007C37.0159 50.3851 37.4814 46.3711 37.9502 42.3555C38.4009 38.4949 38.8533 34.6358 39.3007 30.7752C39.355 30.2993 39.5836 29.9971 40.1133 30.0081C40.5723 30.0175 40.8355 30.3838 40.773 30.9474C40.5624 32.8292 40.3338 34.711 40.1133 36.5912C39.6807 40.2765 39.2464 43.9617 38.8154 47.6454C38.345 51.6595 37.8762 55.6751 37.4057 59.6907C36.932 63.7251 36.4582 67.7595 35.9845 71.7923C35.5074 75.8455 35.0304 79.8986 34.5566 83.9534C34.3707 85.544 34.2128 87.1377 33.9908 88.7236C33.9299 89.1603 33.6831 89.5737 33.5219 89.9979H32.9034Z" fill="#FFC19A"/>
</svg>
