<svg width="80" height="80" viewBox="0 0 80 80" fill="none" xmlns="http://www.w3.org/2000/svg">
<g clip-path="url(#clip0_7292_120274)">
<path d="M70.665 69.6669C71.0821 69.6669 71.501 69.6881 71.9163 69.6669C72.5153 69.6368 72.9752 69.8685 73.3353 70.3283V71.1224C72.9199 71.5893 72.3941 71.6671 71.7862 71.6671C49.9924 71.6547 28.1986 71.6565 6.40483 71.6512C6.10357 71.6512 5.7631 71.6441 5.50997 71.5097C5.11424 71.301 4.90924 70.9208 5.0465 70.4486C5.19802 69.9268 5.6294 69.7305 6.10892 69.6846C6.63834 69.6333 7.1749 69.6669 7.70967 69.6651C8.6384 69.6669 9.56534 69.6704 10.4941 69.6722C15.7616 69.6775 21.0273 69.6881 26.2948 69.6739C26.5444 69.6739 26.8599 69.5218 27.0328 69.3379C27.5302 68.8074 27.9811 68.2343 28.4286 67.6596C33.1364 61.6271 37.8441 55.5946 42.5466 49.5585C47.4647 43.243 52.3615 36.9099 57.3028 30.6121C58.6486 28.8966 58.137 29.0045 60.5346 29.0239C60.8002 29.0257 61.0676 29.0363 61.3332 29.0434C61.3047 29.1247 61.294 29.222 61.244 29.2874C59.8519 31.0754 58.4579 32.8599 57.0603 34.6426C54.6717 37.6898 52.2759 40.7299 49.8944 43.7824C48.176 45.9843 46.4843 48.2073 44.7695 50.4109C42.5002 53.3255 40.2185 56.233 37.9422 59.1423C36.5054 60.978 35.0651 62.812 33.6301 64.6495C32.3502 66.2907 31.0775 67.9372 29.737 69.6669H70.6685H70.665Z" fill="#D7DBE4"/>
<path d="M70.662 69.6669H29.7305C31.071 67.939 32.3437 66.2907 33.6236 64.6495C35.0568 62.8102 36.4971 60.978 37.9357 59.1423C40.212 56.233 42.4937 53.3273 44.7629 50.411C46.4796 48.2073 48.1712 45.9843 49.8879 43.7824C52.2694 40.7299 54.6652 37.6898 57.0538 34.6426C58.4514 32.8599 59.8453 31.0737 61.2375 29.2874C61.2892 29.222 61.2981 29.1247 61.3267 29.0434C64.4355 29.0328 67.5461 29.0204 70.6549 29.0098C70.6567 42.5621 70.6585 56.1145 70.662 69.6669Z" fill="#E3E9F7"/>
<path d="M70.6553 29.0095C67.5465 29.0202 64.4359 29.0325 61.3271 29.0431C61.0615 29.0361 60.7941 29.0255 60.5285 29.0237C58.1309 29.0042 58.6425 28.8946 57.2967 30.6118C52.3554 36.9114 47.4586 43.2428 42.5405 49.5583C37.838 55.5961 33.132 61.6286 28.4225 67.6593C27.975 68.2323 27.5223 68.8071 27.0267 69.3377C26.8538 69.5216 26.5401 69.6737 26.2887 69.6737C21.0212 69.6879 15.7555 69.6773 10.4879 69.6719C10.4879 67.2862 10.4862 64.9022 10.4844 62.5164C13.6984 62.5164 16.9141 62.5199 20.1281 62.5111C20.3812 62.5111 20.6344 62.4315 20.8857 62.3891C21.818 62.4191 22.4134 61.8461 22.9268 61.1988C24.6363 59.043 26.3244 56.8712 28.0142 54.7012C30.6899 51.2632 33.3549 47.8163 36.0358 44.38C39.1482 40.3884 42.2767 36.4091 45.389 32.4175C48.0273 29.0325 50.6316 25.621 53.2966 22.259C54.0292 21.3341 55.0435 20.807 56.3002 20.8106C61.0793 20.8229 65.8584 20.8141 70.6375 20.8106C70.6428 23.543 70.6482 26.2754 70.6517 29.0078L70.6553 29.0095Z" fill="#FFA265"/>
<path d="M70.6405 20.8121C65.8614 20.8121 61.0823 20.8227 56.3032 20.8121C55.0465 20.8086 54.0322 21.3374 53.2995 22.2606C50.6328 25.6226 48.0302 29.0341 45.392 32.4191C42.2796 36.4107 39.1512 40.3899 36.0388 44.3815C33.3596 47.8178 30.6947 51.2647 28.0172 54.7028C26.3274 56.8745 24.6393 59.0463 22.9298 61.2004C22.4164 61.8477 21.821 62.4207 20.8887 62.3906C17.4234 62.3906 13.9581 62.3889 10.4927 62.3871H10.3555C10.3983 61.9078 10.5052 61.425 10.4713 60.9528C10.3983 59.9288 10.4892 58.9933 11.4125 58.3354C14.0418 58.346 16.6694 58.3601 19.2987 58.3637C19.5554 58.3637 19.812 58.2894 20.0687 58.2487C20.206 58.3035 20.3433 58.4043 20.4805 58.4026C21.7889 58.4026 22.9244 57.9799 23.7551 56.94C25.0029 55.3748 26.2311 53.792 27.4629 52.2144C30.6733 48.1043 33.8837 43.9942 37.087 39.8788C39.6022 36.6495 42.1032 33.4112 44.6148 30.1783C47.1514 26.9118 49.6952 23.6489 52.2318 20.3788C53.3334 18.9587 54.64 17.8038 56.3691 17.1866C56.8219 17.0257 57.2747 16.8647 57.7257 16.7038C61.5618 16.7038 65.3979 16.6914 69.2322 16.7126C70.038 16.7162 70.6351 17.3528 70.6565 18.1717C70.6815 19.0506 70.6476 19.9314 70.6405 20.8103V20.8121Z" fill="#FF8331"/>
<path d="M57.7234 16.7037C57.2706 16.8647 56.8178 17.0256 56.3668 17.1865C54.6359 17.802 53.3311 18.9569 52.2295 20.3788C49.6946 23.647 47.1509 26.91 44.6125 30.1783C42.1026 33.4112 39.5999 36.6494 37.0847 39.8787C33.8814 43.9942 30.6692 48.1025 27.4605 52.2144C26.2288 53.7919 25.0024 55.3747 23.7528 56.9399C22.9239 57.9798 21.7884 58.4007 20.4782 58.4025C20.3409 58.4025 20.2037 58.3017 20.0664 58.2486C21.6582 56.1865 23.243 54.1191 24.8437 52.064C33.1274 41.4351 41.427 30.8167 49.6982 20.1754C51.7482 17.5367 54.4238 16.442 57.7234 16.7037Z" fill="#5C5E6F"/>
<path d="M10.3559 62.386C10.4023 62.386 10.4469 62.386 10.4932 62.386C10.4879 62.4284 10.4861 62.4726 10.4879 62.5169C10.4879 64.9026 10.4896 67.2866 10.4914 69.6724C9.5627 69.6706 8.63575 69.6671 7.70703 69.6653C7.71773 67.2371 7.7302 64.8071 7.7409 62.3789C8.61258 62.3824 9.48426 62.3842 10.3559 62.3877V62.386Z" fill="#727688"/>
<path d="M10.3548 62.3855C9.48317 62.382 8.61149 62.3802 7.73981 62.3767C7.72911 61.6109 7.70059 60.8434 7.71485 60.0776C7.73446 58.9793 8.32806 58.3656 9.42791 58.3161C10.0875 58.2878 10.7524 58.325 11.4137 58.3338C10.4885 58.9917 10.3994 59.9273 10.4725 60.9512C10.5064 61.4234 10.3994 61.9063 10.3566 62.3838L10.3548 62.3855Z" fill="#5C5E6F"/>
<path d="M10.4844 62.5166C10.4844 62.4724 10.4844 62.43 10.4897 62.3857C13.9551 62.3857 17.4204 62.3875 20.8857 62.3893C20.6326 62.4317 20.3795 62.5096 20.1281 62.5113C16.9141 62.5202 13.6984 62.5166 10.4844 62.5166Z" fill="#FF8331"/>
</g>
<path d="M6.66797 10.0003C6.66797 8.15938 8.16035 6.66699 10.0013 6.66699H30.0013C31.8422 6.66699 33.3346 8.15938 33.3346 10.0003V30.0003C33.3346 31.8413 31.8422 33.3337 30.0013 33.3337H10.0013C8.16035 33.3337 6.66797 31.8413 6.66797 30.0003V10.0003Z" fill="#037E0B"/>
<path d="M15 13.334L21.6667 20.0007L15 26.6673V13.334Z" fill="white"/>
<path d="M21.1094 13.334L27.776 20.0007L21.1094 26.6673V13.334Z" fill="white"/>
<defs>
<clipPath id="clip0_7292_120274">
<rect width="68.3333" height="55" fill="white" transform="translate(5 16.667)"/>
</clipPath>
</defs>
</svg>
