<svg width="59" height="54" viewBox="0 0 59 54" fill="none" xmlns="http://www.w3.org/2000/svg">
<g clip-path="url(#clip0_7536_27257)">
<path d="M0.667969 21.6054C0.667969 21.0633 0.667969 20.5223 0.667969 19.9802C0.726074 19.8432 0.795573 19.7097 0.840007 19.5681C1.47803 17.5076 3.19954 16.2342 5.30843 16.3921C6.02279 16.4455 6.71777 16.7717 7.42187 16.9725C8.67513 17.9139 9.28125 19.235 9.66862 20.7336C10.1882 22.743 10.8034 24.7269 11.3787 26.7212C11.7069 27.8913 12.0213 29.0661 12.3677 30.2304C12.7892 31.6489 13.9388 32.5149 15.3789 32.5161C25.0176 32.5184 34.6551 32.5184 44.2938 32.5161C45.7339 32.5161 46.8835 31.6489 47.305 30.2304C47.6502 29.0661 47.9647 27.8913 48.2939 26.7212C48.63 25.5522 48.9673 24.3844 49.3034 23.2155C49.5506 22.3657 49.8389 21.5253 50.0382 20.6628C50.3835 19.1665 51.0192 17.8745 52.2816 16.9655C52.6268 16.8216 52.972 16.6776 53.3172 16.5325C53.422 16.6347 53.5086 16.7717 53.6328 16.8355C55.3657 17.7282 56.3888 19.856 55.8123 22.1695C54.4019 27.8274 53.0859 33.5097 51.7028 39.1746C51.0089 42.0163 49.2236 43.7982 46.4551 44.5678C46.3001 44.6108 46.16 44.7071 46.013 44.7791C45.4263 44.7663 44.8395 44.7431 44.2528 44.7431C34.311 44.7408 24.3693 44.7408 14.4276 44.7431C14.1632 44.7431 13.8978 44.764 13.6335 44.7756C13.3133 44.7652 12.992 44.7303 12.673 44.7466C10.9082 44.836 9.25732 44.4877 7.77165 43.4697C6.27913 42.3425 5.34147 40.8555 4.90625 39.0121C3.84668 34.5255 2.76888 30.0435 1.68766 25.5627C1.36523 24.2405 1.00749 22.9252 0.667969 21.6054Z" fill="#FFA265"/>
<path d="M53.3132 16.5335C55.9541 15.8498 58.1644 17.1604 58.9038 19.8466C58.9175 19.8965 58.9676 19.936 59.0007 19.9801V21.7213C58.7352 22.7138 58.4469 23.7005 58.2065 24.6989C57.049 29.5024 55.9028 34.3082 54.7555 39.1141C54.3226 40.9308 53.3621 42.3865 51.8947 43.5009C50.9445 44.108 49.9373 44.5886 48.8094 44.6931C47.9093 44.7766 47.0024 44.7766 46.0978 44.8138C46.0659 44.8091 46.0352 44.7975 46.0078 44.7801C46.1548 44.7081 46.2949 44.6118 46.4499 44.5688C49.2196 43.7992 51.0049 42.0162 51.6976 39.1756C53.0807 33.5107 54.3966 27.8285 55.8071 22.1706C56.3836 19.857 55.3594 17.7304 53.6276 16.8365C53.5034 16.7727 53.4168 16.6369 53.312 16.5335H53.3132Z" fill="#FF6300"/>
<path d="M7.42188 16.9723C7.59619 14.1956 7.7557 11.4178 7.94938 8.6422C8.26953 4.03949 12.0635 0.122839 16.5968 0.0578324C24.4286 -0.0547685 32.2637 0.0311332 40.0977 0.0346157C40.1865 0.0636366 40.2743 0.107748 40.3666 0.119357C44.1411 0.619676 47.2822 3.46024 48.1037 7.21437C48.3202 8.2034 48.3486 9.23771 48.4216 10.2546C48.5822 12.4834 48.7235 14.7134 48.8591 16.9433C48.9525 18.4826 49.014 20.023 49.1086 21.5611C49.1428 22.1148 49.235 22.6639 49.3011 23.2153C48.965 24.3843 48.6278 25.5521 48.2917 26.721C48.1515 26.5922 48.0046 26.4703 47.8713 26.3333C46.5667 24.996 44.9876 24.2043 43.167 23.9466C39.0472 23.3651 34.9024 23.083 30.7461 23.0319C26.5682 22.982 22.4028 23.2362 18.2523 23.7191C16.7666 23.8921 15.2319 23.9664 13.9194 24.7917C13.0239 25.3547 12.2218 26.0721 11.3787 26.721C10.8045 24.7267 10.1893 22.7428 9.66862 20.7334C9.28125 19.2348 8.67513 17.9138 7.42188 16.9723ZM42.1439 11.4166C42.1519 10.8373 41.8762 10.5599 41.1755 10.5831C40.6012 10.6017 40.403 10.3927 40.4235 9.81116C40.4474 9.12743 40.0954 8.74435 39.5622 8.75596C39.0472 8.76757 38.7031 9.1402 38.7339 9.78562C38.7624 10.3811 38.5926 10.6203 37.9751 10.5843C37.3109 10.546 37.0101 10.8594 37.0135 11.4352C37.0158 11.9448 37.3644 12.329 37.9421 12.3C38.5721 12.2686 38.7726 12.4973 38.7362 13.1242C38.702 13.7 39.0825 14.061 39.5884 14.0563C40.0703 14.0517 40.4531 13.6988 40.4201 13.1625C40.3802 12.5194 40.5557 12.2524 41.2347 12.2965C41.8032 12.3336 42.1371 11.9413 42.1439 11.4143V11.4166ZM20.0706 14.0575C20.5788 14.0691 20.9661 13.7116 20.9377 13.1416C20.9069 12.5356 21.0619 12.2652 21.7147 12.3011C22.3231 12.3348 22.6751 11.9366 22.658 11.3969C22.641 10.8431 22.355 10.5529 21.7147 10.5854C21.1257 10.6156 20.9023 10.431 20.9365 9.80651C20.9741 9.13091 20.6061 8.74319 20.0729 8.75828C19.5579 8.77221 19.2196 9.14136 19.2492 9.79026C19.2777 10.4067 19.0544 10.6098 18.4619 10.5843C17.8239 10.5576 17.5413 10.8501 17.5288 11.4073C17.5174 11.9448 17.8695 12.3313 18.4824 12.3023C19.0885 12.2744 19.2834 12.488 19.2492 13.094C19.2162 13.6825 19.5705 14.0459 20.0695 14.0575H20.0706Z" fill="#FF8331"/>
<path d="M11.3773 26.7227C12.2204 26.0738 13.0225 25.3564 13.918 24.7934C15.2305 23.968 16.7651 23.8937 18.2508 23.7207C22.4014 23.2378 26.5667 22.9836 30.7446 23.0335C34.902 23.0834 39.0457 23.3667 43.1655 23.9483C44.9873 24.2048 46.5664 24.9977 47.8698 26.3349C48.0031 26.4708 48.1489 26.5938 48.2902 26.7227C47.9621 27.8928 47.6476 29.0676 47.3013 30.2319C46.8808 31.6504 45.7301 32.5176 44.29 32.5176C34.6514 32.5199 25.0138 32.5199 15.3752 32.5176C13.9351 32.5176 12.7855 31.6504 12.3639 30.2319C12.0187 29.0676 11.7043 27.8928 11.375 26.7227H11.3773Z" fill="#FFDFCC"/>
<path d="M49.3011 23.2158C49.235 22.6644 49.1427 22.1153 49.1086 21.5616C49.0129 20.0235 48.9525 18.4819 48.8591 16.9438C48.7235 14.7139 48.5822 12.4839 48.4216 10.2551C48.3486 9.23821 48.3202 8.20275 48.1037 7.21488C47.2811 3.46074 44.1411 0.62018 40.3665 0.119861C40.2754 0.108253 40.1877 0.064141 40.0977 0.0351201C42.1017 0.00609929 44.1229 -0.166865 46.029 0.70376C49.3387 2.21633 51.328 4.77248 51.7005 8.46858C51.9842 11.2917 52.0925 14.1334 52.2793 16.967C51.0169 17.876 50.3812 19.168 50.036 20.6643C49.8366 21.5256 49.5495 22.3661 49.3011 23.217V23.2158Z" fill="#FF6300"/>
<path d="M7.07031 46.4366C7.30273 45.4476 7.53516 44.4597 7.76758 43.4707C9.25212 44.4888 10.9041 44.837 12.6689 44.7465C12.988 44.7302 13.3092 44.7639 13.6294 44.7755C13.1611 45.7285 12.6929 46.6816 12.2235 47.6346C10.404 47.6915 8.70068 47.2283 7.07145 46.4366H7.07031Z" fill="#FF6300"/>
<path d="M7.07297 46.4365C8.7022 47.2282 10.4055 47.6914 12.225 47.6345C11.5311 49.1111 10.8567 50.5969 10.1366 52.0596C9.60341 53.1426 8.46181 53.5872 7.40451 53.1868C6.34722 52.7863 5.77072 51.7079 6.04416 50.5215C6.35862 49.1529 6.72776 47.7982 7.07297 46.4365Z" fill="#FF8331"/>
<path d="M52.5973 46.4365C52.9425 47.797 53.3117 49.1529 53.625 50.5215C53.903 51.7369 53.3048 52.8211 52.2099 53.2042C51.1447 53.578 50.0418 53.1113 49.5063 52.0097C48.8011 50.561 48.1312 49.0937 47.4453 47.6357C49.2625 47.6809 50.9715 47.2456 52.5973 46.4377V46.4365Z" fill="#FF8331"/>
<path d="M52.5991 46.4369C50.9733 47.2449 49.2643 47.6802 47.4471 47.6349C46.9982 46.6946 46.5505 45.7532 46.1016 44.8129C47.005 44.7758 47.9131 44.7746 48.8131 44.6922C49.9411 44.5877 50.9482 44.1083 51.8984 43.5C52.132 44.4786 52.3656 45.4583 52.5991 46.4369Z" fill="#FF6300"/>
<path d="M42.1421 11.4164C42.1341 11.9434 41.8003 12.3358 41.2329 12.2986C40.5539 12.2545 40.3784 12.5215 40.4183 13.1646C40.4513 13.7009 40.0685 14.0538 39.5866 14.0584C39.0807 14.0631 38.7002 13.7021 38.7344 13.1263C38.7708 12.4994 38.5715 12.2696 37.9403 12.3021C37.3626 12.3311 37.014 11.9469 37.0117 11.4373C37.0095 10.8615 37.3091 10.5481 37.9733 10.5864C38.5908 10.6224 38.7617 10.3832 38.7321 9.78773C38.7002 9.14231 39.0454 8.76968 39.5604 8.75807C40.0936 8.74646 40.4456 9.12954 40.4217 9.81327C40.4012 10.3948 40.6006 10.6038 41.1737 10.5852C41.8732 10.562 42.1501 10.8394 42.1421 11.4187V11.4164Z" fill="#FF6300"/>
<path d="M20.0684 14.0574C19.5693 14.0458 19.2139 13.6825 19.248 13.094C19.2822 12.488 19.0874 12.2744 18.4813 12.3023C17.8683 12.3313 17.5151 11.9447 17.5277 11.4073C17.5402 10.8512 17.8227 10.5575 18.4608 10.5842C19.0532 10.6086 19.2765 10.4055 19.248 9.79022C19.2184 9.14131 19.5568 8.77217 20.0718 8.75824C20.605 8.74315 20.973 9.13087 20.9354 9.80647C20.9012 10.4298 21.1245 10.6144 21.7135 10.5854C22.3538 10.5529 22.6387 10.8431 22.6569 11.3968C22.674 11.9366 22.3219 12.3348 21.7135 12.3011C21.0607 12.2651 20.9058 12.5356 20.9365 13.1415C20.965 13.7115 20.5776 14.0702 20.0695 14.0574H20.0684Z" fill="#FF6300"/>
</g>
<defs>
<clipPath id="clip0_7536_27257">
<rect width="58.3333" height="53.3333" fill="white" transform="translate(0.667969)"/>
</clipPath>
</defs>
</svg>
