<svg width="24" height="28" viewBox="0 0 24 28" fill="none" xmlns="http://www.w3.org/2000/svg">
<path d="M20 19.4403C18.9867 19.4403 18.08 19.8403 17.3867 20.467L7.88 14.9337C7.94667 14.627 8 14.3203 8 14.0003C8 13.6803 7.94667 13.3737 7.88 13.067L17.28 7.58699C18 8.25366 18.9467 8.66699 20 8.66699C22.2133 8.66699 24 6.88033 24 4.66699C24 2.45366 22.2133 0.666992 20 0.666992C17.7867 0.666992 16 2.45366 16 4.66699C16 4.98699 16.0533 5.29366 16.12 5.60033L6.72 11.0803C6 10.4137 5.05333 10.0003 4 10.0003C1.78667 10.0003 0 11.787 0 14.0003C0 16.2137 1.78667 18.0003 4 18.0003C5.05333 18.0003 6 17.587 6.72 16.9203L16.2133 22.467C16.1467 22.747 16.1067 23.0403 16.1067 23.3337C16.1067 25.4803 17.8533 27.227 20 27.227C22.1467 27.227 23.8933 25.4803 23.8933 23.3337C23.8933 21.187 22.1467 19.4403 20 19.4403ZM20 3.33366C20.7333 3.33366 21.3333 3.93366 21.3333 4.66699C21.3333 5.40033 20.7333 6.00033 20 6.00033C19.2667 6.00033 18.6667 5.40033 18.6667 4.66699C18.6667 3.93366 19.2667 3.33366 20 3.33366ZM4 15.3337C3.26667 15.3337 2.66667 14.7337 2.66667 14.0003C2.66667 13.267 3.26667 12.667 4 12.667C4.73333 12.667 5.33333 13.267 5.33333 14.0003C5.33333 14.7337 4.73333 15.3337 4 15.3337ZM20 24.6937C19.2667 24.6937 18.6667 24.0937 18.6667 23.3603C18.6667 22.627 19.2667 22.027 20 22.027C20.7333 22.027 21.3333 22.627 21.3333 23.3603C21.3333 24.0937 20.7333 24.6937 20 24.6937Z" fill="#FF6300"/>
</svg>
