<svg width="65" height="64" viewBox="0 0 65 64" fill="none" xmlns="http://www.w3.org/2000/svg">
<path d="M19.7221 5.00955C19.1019 5.07757 18.6366 5.60831 18.6501 6.23228V7.09768H16.6183C14.4138 7.09768 12.5928 8.8999 12.5928 11.1043V53.9745C12.5928 56.179 14.4138 58 16.6183 58H48.2964C50.5008 58 52.3219 56.179 52.3219 53.9745V11.1043C52.3219 8.89979 50.5008 7.09768 48.2964 7.09768H46.2645V6.23228C46.2729 5.88167 46.1281 5.54533 45.8678 5.31019C45.6074 5.07547 45.2581 4.96546 44.9104 5.00955C44.2974 5.08639 43.8422 5.61461 43.8569 6.23228V7.09768H39.9627V6.23228C39.9703 5.88544 39.828 5.55247 39.5722 5.31817C39.3161 5.08387 38.9718 4.97133 38.6271 5.00955C38.0069 5.07757 37.5416 5.60831 37.5551 6.23228V7.09768H33.6609V6.23228C33.6685 5.88544 33.5261 5.55247 33.2704 5.31817C33.0143 5.08387 32.67 4.97133 32.3252 5.00955C31.7051 5.07757 31.2398 5.60831 31.2533 6.23228V7.09768H27.3591V6.23228C27.3667 5.88544 27.2243 5.55247 26.9686 5.31817C26.7125 5.08387 26.3682 4.97133 26.0234 5.00955C25.4033 5.07757 24.938 5.60831 24.9514 6.23228V7.09768H21.0573V6.23228C21.0649 5.88544 20.9225 5.55247 20.6668 5.31817C20.4107 5.08387 20.0668 4.97133 19.7221 5.00955Z" fill="#FFEFE5"/>
<path d="M23.1592 40.6947H43.0983V37.5625H23.1592V40.6947Z" fill="#5C0FD9"/>
<path d="M23.1592 48.9994H43.0983V45.8672H23.1592V48.9994Z" fill="#5C0FD9"/>
<path d="M19.7221 5.00955C19.1019 5.07757 18.6366 5.60831 18.6501 6.23228V7.09768H16.6183C14.4138 7.09768 12.5928 8.8999 12.5928 11.1043V53.9745C12.5928 56.179 14.4138 58 16.6183 58H48.2964C50.5008 58 52.3219 56.179 52.3219 53.9745V11.1043C52.3219 8.89979 50.5008 7.09768 48.2964 7.09768H46.2645V6.23228C46.2729 5.88167 46.1281 5.54533 45.8678 5.31019C45.6074 5.07547 45.2581 4.96546 44.9104 5.00955C44.2974 5.08639 43.8422 5.61461 43.8569 6.23228V7.09768H39.9627V6.23228C39.9703 5.88544 39.828 5.55247 39.5722 5.31817C39.3161 5.08387 38.9718 4.97133 38.6271 5.00955C38.0069 5.07757 37.5416 5.60831 37.5551 6.23228V7.09768H33.6609V6.23228C33.6685 5.88544 33.5261 5.55247 33.2704 5.31817C33.0143 5.08387 32.67 4.97133 32.3252 5.00955C31.7051 5.07757 31.2398 5.60831 31.2533 6.23228V7.09768H27.3591V6.23228C27.3667 5.88544 27.2243 5.55247 26.9686 5.31817C26.7125 5.08387 26.3682 4.97133 26.0234 5.00955C25.4033 5.07757 24.938 5.60831 24.9514 6.23228V7.09768H21.0573V6.23228C21.0649 5.88544 20.9225 5.55247 20.6668 5.31817C20.4107 5.08387 20.0668 4.97133 19.7221 5.00955ZM16.6182 9.50532H18.6501V9.86265C18.6454 10.1851 18.7702 10.4954 18.9965 10.7251C19.2228 10.9548 19.5314 11.0837 19.8539 11.0837C20.1764 11.0837 20.485 10.9548 20.7113 10.7251C20.9377 10.4954 21.0624 10.1851 21.0578 9.86265V9.50532H24.9519V9.86265C24.9473 10.1851 25.072 10.4954 25.2983 10.7251C25.5246 10.9548 25.8333 11.0837 26.1557 11.0837C26.4782 11.0837 26.7868 10.9548 27.0132 10.7251C27.2395 10.4954 27.3642 10.1851 27.3596 9.86265V9.50532H31.2537V9.86265C31.2491 10.1851 31.3738 10.4954 31.6001 10.7251C31.8265 10.9548 32.1351 11.0837 32.4576 11.0837C32.78 11.0837 33.0887 10.9548 33.315 10.7251C33.5413 10.4954 33.666 10.1851 33.6614 9.86265V9.50532H37.5555V9.86265C37.5509 10.1851 37.6756 10.4954 37.902 10.7251C38.1283 10.9548 38.4369 11.0837 38.7594 11.0837C39.0819 11.0837 39.3905 10.9548 39.6168 10.7251C39.8431 10.4954 39.9678 10.1851 39.9632 9.86265V9.50532H43.8574V9.86265C43.8527 10.1851 43.9775 10.4954 44.2038 10.7251C44.4301 10.9548 44.7387 11.0837 45.0612 11.0837C45.3837 11.0837 45.6923 10.9548 45.9186 10.7251C46.145 10.4954 46.2697 10.1851 46.2651 9.86265V9.50532H48.2969C49.2089 9.50532 49.9143 10.1918 49.9143 11.1043V53.9745C49.9143 54.887 49.2089 55.5924 48.2969 55.5924H16.6188C15.7068 55.5924 15.0013 54.887 15.0013 53.9745V11.1043C15.0013 10.1918 15.7062 9.50532 16.6182 9.50532Z" fill="#FF6300"/>
<path d="M29.386 31.6032L29.5304 30.441L29.9074 27.4651L27.8844 25.2811L27.0928 24.4317L28.2236 24.2146L31.1263 23.6655L32.5398 21.0281L33.0927 20L33.6456 21.0281L35.0655 23.6655L37.9619 24.2146L39.0928 24.4317L38.3011 25.2811L36.2718 27.4714L36.6551 30.4408L36.7996 31.603L35.7629 31.1049L33.0927 29.815L30.4225 31.1049L29.386 31.6032Z" fill="#5C0FD9"/>
</svg>
