<svg width="65" height="64" viewBox="0 0 65 64" fill="none" xmlns="http://www.w3.org/2000/svg">
<rect width="64" height="64" transform="translate(0.362305)" fill="white"/>
<path d="M11.7697 9.33398C7.67871 9.33398 4.3623 12.7946 4.3623 17.0635L4.3623 22.8992C9.6806 22.8992 13.9919 26.0646 13.9919 31.6142C13.9919 37.1637 9.6806 40.3292 4.3623 40.3292L4.3623 46.9378C4.3623 51.2067 7.67871 54.6673 11.7697 54.6673L52.9549 54.6673C57.0459 54.6673 60.3623 51.2067 60.3623 46.9378L60.3623 17.0635C60.3623 12.7946 57.0459 9.33398 52.9549 9.33398L11.7697 9.33398Z" fill="#FFEFE5"/>
<path d="M11.7697 9.33398C7.67871 9.33398 4.3623 12.7946 4.3623 17.0635L4.3623 22.8992C9.6806 22.8992 13.9919 26.0646 13.9919 31.6142C13.9919 37.1637 9.6806 40.3292 4.3623 40.3292L4.3623 46.9378C4.3623 51.2067 7.67871 54.6673 11.7697 54.6673L52.9549 54.6673C57.0459 54.6673 60.3623 51.2067 60.3623 46.9378L60.3623 17.0635C60.3623 12.7946 57.0459 9.33398 52.9549 9.33398L11.7697 9.33398Z" fill="#FFEFE5"/>
<path fill-rule="evenodd" clip-rule="evenodd" d="M11.7697 12.0007C9.2573 12.0007 7.02897 14.1592 7.02897 17.0635V20.5301C12.6016 21.7974 16.6586 25.6208 16.6586 31.6142C16.6586 37.6075 12.6016 41.431 7.02897 42.6982L7.02897 46.9378C7.02897 49.8421 9.2573 52.0007 11.7697 52.0007L52.9549 52.0007C55.4673 52.0007 57.6956 49.8421 57.6956 46.9378L57.6956 17.0635C57.6956 14.1592 55.4673 12.0007 52.9549 12.0007L11.7697 12.0007ZM4.3623 46.9378C4.3623 51.2067 7.67871 54.6673 11.7697 54.6673L52.9549 54.6673C57.0459 54.6673 60.3623 51.2067 60.3623 46.9378L60.3623 17.0635C60.3623 12.7946 57.0459 9.33398 52.9549 9.33398L11.7697 9.33398C7.67871 9.33398 4.3623 12.7946 4.3623 17.0635L4.3623 22.8992C9.6806 22.8992 13.9919 26.0647 13.9919 31.6142C13.9919 37.1637 9.6806 40.3292 4.3623 40.3292L4.3623 46.9378Z" fill="#FF6300"/>
<path fill-rule="evenodd" clip-rule="evenodd" d="M11.7697 12.0007C9.2573 12.0007 7.02897 14.1592 7.02897 17.0635V20.5301C12.6016 21.7974 16.6586 25.6208 16.6586 31.6142C16.6586 37.6075 12.6016 41.431 7.02897 42.6982L7.02897 46.9378C7.02897 49.8421 9.2573 52.0007 11.7697 52.0007L52.9549 52.0007C55.4673 52.0007 57.6956 49.8421 57.6956 46.9378L57.6956 17.0635C57.6956 14.1592 55.4673 12.0007 52.9549 12.0007L11.7697 12.0007ZM4.3623 46.9378C4.3623 51.2067 7.67871 54.6673 11.7697 54.6673L52.9549 54.6673C57.0459 54.6673 60.3623 51.2067 60.3623 46.9378L60.3623 17.0635C60.3623 12.7946 57.0459 9.33398 52.9549 9.33398L11.7697 9.33398C7.67871 9.33398 4.3623 12.7946 4.3623 17.0635L4.3623 22.8992C9.6806 22.8992 13.9919 26.0647 13.9919 31.6142C13.9919 37.1637 9.6806 40.3292 4.3623 40.3292L4.3623 46.9378Z" fill="#FF6300"/>
<path fill-rule="evenodd" clip-rule="evenodd" d="M21.6953 25.3327C21.6953 24.5963 22.2923 23.9993 23.0286 23.9993L41.6953 23.9994C42.4317 23.9994 43.0286 24.5963 43.0286 25.3327C43.0286 26.0691 42.4317 26.666 41.6953 26.666L23.0286 26.666C22.2923 26.666 21.6953 26.0691 21.6953 25.3327Z" fill="#5C0FD9"/>
<path fill-rule="evenodd" clip-rule="evenodd" d="M21.6953 32.0007C21.6953 31.2643 22.2923 30.6673 23.0286 30.6673L41.6953 30.6673C42.4317 30.6673 43.0286 31.2643 43.0286 32.0007C43.0286 32.737 42.4317 33.334 41.6953 33.334L23.0286 33.334C22.2923 33.334 21.6953 32.737 21.6953 32.0007Z" fill="#5C0FD9"/>
<path fill-rule="evenodd" clip-rule="evenodd" d="M21.6953 38.6667C21.6953 37.9303 22.2923 37.3333 23.0286 37.3333L32.362 37.3333C33.0984 37.3333 33.6953 37.9303 33.6953 38.6667C33.6953 39.403 33.0984 40 32.362 40L23.0286 40C22.2923 40 21.6953 39.403 21.6953 38.6667Z" fill="#5C0FD9"/>
<path fill-rule="evenodd" clip-rule="evenodd" d="M49.696 10.666C50.4323 10.666 51.0293 11.263 51.0293 11.9993L51.0293 14.4993C51.0293 15.2357 50.4323 15.8327 49.696 15.8327C48.9596 15.8327 48.3626 15.2357 48.3626 14.4993L48.3626 11.9993C48.3626 11.263 48.9596 10.666 49.696 10.666ZM49.696 18.166C50.4323 18.166 51.0293 18.763 51.0293 19.4993L51.0293 24.4993C51.0293 25.2357 50.4323 25.8327 49.696 25.8327C48.9596 25.8327 48.3626 25.2357 48.3626 24.4993L48.3626 19.4993C48.3626 18.763 48.9596 18.166 49.696 18.166ZM49.696 28.166C50.4323 28.166 51.0293 28.763 51.0293 29.4993L51.0293 34.4993C51.0293 35.2357 50.4323 35.8327 49.696 35.8327C48.9596 35.8327 48.3626 35.2357 48.3626 34.4993L48.3626 29.4993C48.3626 28.763 48.9596 28.166 49.696 28.166ZM49.696 38.166C50.4323 38.166 51.0293 38.763 51.0293 39.4993L51.0293 44.4993C51.0293 45.2357 50.4323 45.8327 49.696 45.8327C48.9596 45.8327 48.3626 45.2357 48.3626 44.4993L48.3626 39.4993C48.3626 38.763 48.9596 38.166 49.696 38.166ZM49.696 48.166C50.4323 48.166 51.0293 48.763 51.0293 49.4993L51.0293 51.9993C51.0293 52.7357 50.4323 53.3327 49.696 53.3327C48.9596 53.3327 48.3626 52.7357 48.3626 51.9993L48.3626 49.4993C48.3626 48.763 48.9596 48.166 49.696 48.166Z" fill="#FF6300"/>
</svg>
