<svg width="18" height="18" viewBox="0 0 18 18" fill="none" xmlns="http://www.w3.org/2000/svg">
<path fill-rule="evenodd" clip-rule="evenodd" d="M9 2.8125C5.58274 2.8125 2.8125 5.58274 2.8125 9C2.8125 12.4173 5.58274 15.1875 9 15.1875C12.4173 15.1875 15.1875 12.4173 15.1875 9C15.1875 5.58274 12.4173 2.8125 9 2.8125ZM1.6875 9C1.6875 4.96142 4.96142 1.6875 9 1.6875C13.0386 1.6875 16.3125 4.96142 16.3125 9C16.3125 13.0386 13.0386 16.3125 9 16.3125C4.96142 16.3125 1.6875 13.0386 1.6875 9Z" fill="#666666"/>
<path fill-rule="evenodd" clip-rule="evenodd" d="M9 4.5C9.31066 4.5 9.5625 4.75184 9.5625 5.0625V8.4375H12.9375C13.2482 8.4375 13.5 8.68934 13.5 9C13.5 9.31066 13.2482 9.5625 12.9375 9.5625H9C8.68934 9.5625 8.4375 9.31066 8.4375 9V5.0625C8.4375 4.75184 8.68934 4.5 9 4.5Z" fill="#666666"/>
</svg>
