<svg width="72" height="72" viewBox="0 0 72 72" fill="none" xmlns="http://www.w3.org/2000/svg">
<path d="M12 15C12 15 28.5 15 36 6C43.5 15 60 15 60 15C60 15 60 28.5 60 41.25C60 54 36 66 36 66C36 66 12 53.25 12 41.25C12 29.25 12 15 12 15Z" fill="#FF8331"/>
<path d="M15 17.1C15 17.1 29.4375 17.1 36 9C42.5625 17.1 57 17.1 57 17.1C57 17.1 57 29.25 57 40.725C57 52.2 36 63 36 63C36 63 15 51.525 15 40.725C15 29.925 15 17.1 15 17.1Z" fill="#FFDFCC"/>
<path fill-rule="evenodd" clip-rule="evenodd" d="M34.8701 62.3522C35.5848 62.7728 36.0006 63 36.0006 63C36.0006 63 57.0006 52.2 57.0006 40.725V17.1C57.0006 17.1 55.8287 17.1 54.0008 16.9127V40.1063C54.0008 50.2171 39.1176 59.818 34.8701 62.3522ZM40.0688 12.5638C38.5503 11.5967 37.1538 10.4234 36.0006 9C35.8621 9.17099 35.72 9.33836 35.5747 9.50221C36.9287 10.7544 38.469 11.7585 40.0688 12.5638Z" fill="#FFC19A"/>
<path fill-rule="evenodd" clip-rule="evenodd" d="M33.1074 64.342C34.8727 65.4019 35.9995 66.0005 35.9995 66.0005C35.9995 66.0005 59.9995 54.0005 59.9995 41.2505V15.0005C59.9995 15.0005 58.7567 15.0005 56.7982 14.8145V39.7505C56.7982 51.6456 35.9088 62.8878 33.1074 64.342Z" fill="#FF6300"/>
<path d="M42.9729 46.9569L45.0942 44.8355L41.9122 31.047L47.7458 25.2133C48.6262 24.333 48.6262 22.9117 47.7458 22.0314C46.8655 21.151 45.4442 21.151 44.5638 22.0314L38.7302 27.865L24.9416 24.683L22.8203 26.8043L33.9572 32.638L28.1236 38.4716L24.4113 37.9413L22.8203 39.5322L27.5933 42.1839L30.2449 46.9569L31.8359 45.3659L31.3056 41.6536L37.1392 35.8199L42.9729 46.9569Z" fill="#FF6300"/>
</svg>
