<svg width="65" height="64" viewBox="0 0 65 64" fill="none" xmlns="http://www.w3.org/2000/svg">
<circle cx="32.638" cy="31.9993" r="21.3333" fill="#FFDFCC"/>
<path d="M53.3047 22.6667L53.9714 10L48.638 15.3333C44.318 10.9867 39.278 8 32.638 8C19.3847 8 9.30469 18.08 9.30469 31.3333C9.30469 44.5867 19.3847 54.6667 32.638 54.6667C45.8914 54.6667 55.3047 44.5867 55.3047 31.3333H51.9714C51.9714 41.6267 43.9714 51.3333 32.638 51.3333C19.3047 51.3333 12.638 40.6667 12.638 31.3333C12.638 22 21.3047 11.3333 32.638 11.3333C37.7847 11.3333 43.2514 13.9733 46.638 17.3333L41.3047 22.6667H53.3047Z" fill="#FF6300"/>
<circle cx="51.305" cy="39.9994" r="9.33333" fill="#FFDFCC"/>
<path d="M51.3047 30C45.7847 30 41.3047 34.48 41.3047 40C41.3047 45.52 45.7847 50 51.3047 50C56.8247 50 61.3047 45.52 61.3047 40C61.3047 34.48 56.8247 30 51.3047 30ZM51.3047 48C46.8947 48 43.3047 44.41 43.3047 40C43.3047 35.59 46.8947 32 51.3047 32C55.7147 32 59.3047 35.59 59.3047 40C59.3047 44.41 55.7147 48 51.3047 48ZM55.8947 35.58L49.3047 42.17L46.7147 39.59L45.3047 41L49.3047 45L57.3047 37L55.8947 35.58Z" fill="#5C0FD9"/>
</svg>
