<svg width="28" height="22" viewBox="0 0 28 22" fill="none" xmlns="http://www.w3.org/2000/svg">
<path d="M24.9213 0.333008H3.33464C1.86797 0.333008 0.681302 1.53301 0.681302 2.99967V8.33301C2.14797 8.33301 3.33464 9.53301 3.33464 10.9997C3.33464 12.4663 2.14797 13.6663 0.667969 13.6663V18.9997C0.667969 20.4663 1.86797 21.6663 3.33464 21.6663H24.668C26.1346 21.6663 27.3346 20.4663 27.3346 18.9997V2.99967C27.3346 1.53301 26.2546 0.333008 24.9213 0.333008ZM24.668 18.9997H3.33464V15.613C4.9213 14.693 6.0013 12.9597 6.0013 10.9997C6.0013 9.02634 4.93464 7.30634 3.34797 6.38634L3.33464 2.99967H24.668V18.9997ZM9.82797 15.8797L7.61464 12.0397L8.85464 11.7063L10.5346 13.0263L13.7213 12.173L10.5213 6.62634L12.388 6.11967L17.7346 11.1063L20.988 10.2397C21.668 10.053 22.3746 10.4663 22.5613 11.1463C22.7346 11.8263 22.3346 12.533 21.6413 12.733L9.82797 15.8797Z" fill="#FF6300"/>
</svg>
